<svg id="SvgjsSvg1035" xmlns="http://www.w3.org/2000/svg" version="1.1" xmlns:xlink="http://www.w3.org/1999/xlink" xmlns:svgjs="http://svgjs.com/svgjs" ><defs id="SvgjsDefs1036"></defs><path id="SvgjsPath1037" d="M693 739.5L690.19 741.75L686.5600000000001 741.59L685.7500000000001 741.5300000000001L685.5600000000001 742.3100000000001L684.6600000000001 745.7800000000001L681.6600000000001 747.7500000000001L681.0000000000001 748.1900000000002L681.2800000000001 748.9400000000002L682.5600000000001 752.2800000000002L681.2800000000001 755.6300000000002L681.0000000000001 756.3800000000002L681.6600000000001 756.8100000000002L684.6600000000001 758.7800000000002L685.5600000000001 762.2500000000002L685.7500000000001 763.0300000000002L686.5600000000001 762.9700000000003L690.19 762.8100000000003L693 765.0600000000003L693.63 765.5600000000003L694.25 765.0600000000003L697.06 762.8100000000003L700.6899999999999 762.9700000000003L701.4999999999999 763.0300000000002L701.6899999999999 762.2500000000002L702.5899999999999 758.7800000000002L705.5899999999999 756.8100000000002L706.2499999999999 756.3800000000002L705.9699999999999 755.6300000000002L704.6899999999999 752.2800000000002L705.9699999999999 748.9400000000002L706.2499999999999 748.1900000000002L705.5899999999999 747.7500000000001L702.5899999999999 745.7800000000001L701.6899999999999 742.3100000000001L701.4999999999999 741.5300000000001L700.6899999999999 741.59L697.06 741.75L694.25 739.5L693.63 739ZM696.09 743.56L696.4100000000001 743.81L696.7800000000001 743.78L699.9700000000001 743.63L700.7500000000001 746.63L700.8400000000001 747L701.1600000000002 747.22L703.8100000000002 748.97L702.6900000000002 751.94L702.5600000000002 752.2800000000001L702.6900000000002 752.6300000000001L703.8100000000002 755.5900000000001L701.1600000000002 757.3400000000001L700.8400000000001 757.5600000000002L700.7500000000001 757.9400000000002L699.9700000000001 760.9400000000002L696.7800000000001 760.7800000000002L696.4100000000001 760.7500000000002L696.09 761.0000000000002L693.63 763.0000000000002L691.16 761.0000000000002L690.8399999999999 760.7500000000002L690.4699999999999 760.7800000000002L687.2799999999999 760.9400000000002L686.4999999999999 757.9400000000002L686.4099999999999 757.5600000000002L686.0899999999998 757.3400000000001L683.4399999999998 755.5900000000001L684.5599999999998 752.6300000000001L684.6899999999998 752.2800000000001L684.5599999999998 751.94L683.4399999999998 748.97L686.0899999999998 747.22L686.4099999999999 747L686.4999999999999 746.63L687.2799999999999 743.63L690.4699999999999 743.78L690.8399999999999 743.81L691.16 743.56L693.63 741.56ZM698.91 748.56L700.3399999999999 750L693.3399999999999 757L692.6299999999999 757.69L691.9099999999999 757L687.9099999999999 753L689.3399999999998 751.56L692.6299999999998 754.8399999999999Z " fill="#616161" fill-opacity="1" transform="matrix(1,0,0,1,-681,-739)"></path></svg>