<?xml version="1.0" encoding="UTF-8"?>
<svg width="64px" height="64px" viewBox="0 0 64 64" version="1.1" xmlns="http://www.w3.org/2000/svg" xmlns:xlink="http://www.w3.org/1999/xlink">
    <!-- Generator: Sketch 42 (36781) - http://www.bohemiancoding.com/sketch -->
    <title>Page 1</title>
    <desc>Created with Sketch.</desc>
    <defs>
        <polygon id="path-1" points="21.0001 42 42 42 42 0 0.0002 0 0.0002 42"></polygon>
    </defs>
    <g id="Page-1" stroke="none" stroke-width="1" fill="none" fill-rule="evenodd">
        <g id="b2b_landing_cor" transform="translate(-200.000000, -1243.000000)">
            <g id="Group-5" transform="translate(200.000000, 1241.000000)">
                <g id="Page-1" transform="translate(0.000000, 2.000000)">
                    <g id="Group-3" transform="translate(22.000000, 21.999900)">
                        <mask id="mask-2" fill="white">
                            <use xlink:href="#path-1"></use>
                        </mask>
                        <g id="Clip-2"></g>
                        <path d="M42.0002,21 C42.0002,32.598 32.5992,42 21.0002,42 C9.4012,42 0.0002,32.598 0.0002,21 C0.0002,9.401 9.4012,0 21.0002,0 C32.5992,0 42.0002,9.401 42.0002,21" id="Fill-1" fill="#B0DAF1" mask="url(#mask-2)"></path>
                    </g>
                    <path d="M46.0002,15.9999 C44.8972,15.9999 44.0002,16.8969 44.0002,17.9999 C44.0002,19.1029 44.8972,19.9999 46.0002,19.9999 C47.1032,19.9999 48.0002,19.1029 48.0002,17.9999 C48.0002,16.8969 47.1032,15.9999 46.0002,15.9999 M46.0002,21.9999 C43.7942,21.9999 42.0002,20.2059 42.0002,17.9999 C42.0002,15.7939 43.7942,13.9999 46.0002,13.9999 C48.2062,13.9999 50.0002,15.7939 50.0002,17.9999 C50.0002,20.2059 48.2062,21.9999 46.0002,21.9999" id="Fill-4" fill="#2E3C3E"></path>
                    <path d="M6.0002,33.9999 L4.0002,33.9999 L4.0002,6.9999 C4.0002,5.3459 5.3462,3.9999 7.0002,3.9999 L34.0002,3.9999 L34.0002,5.9999 L7.0002,5.9999 C6.4492,5.9999 6.0002,6.4489 6.0002,6.9999 L6.0002,33.9999 Z" id="Fill-6" fill="#2E3C3E"></path>
                    <path d="M57.0002,59.9999 L30.0002,59.9999 L30.0002,57.9999 L57.0002,57.9999 C57.5512,57.9999 58.0002,57.5519 58.0002,56.9999 L58.0002,29.9999 L60.0002,29.9999 L60.0002,56.9999 C60.0002,58.6539 58.6542,59.9999 57.0002,59.9999" id="Fill-8" fill="#2E3C3E"></path>
                    <polygon id="Fill-10" fill="#2E3C3E" points="8 9.9999 22 9.9999 22 7.9999 8 7.9999"></polygon>
                    <polygon id="Fill-12" fill="#2E3C3E" points="8 13.9999 10 13.9999 10 11.9999 8 11.9999"></polygon>
                    <polygon id="Fill-13" fill="#2E3C3E" points="12 13.9999 14 13.9999 14 11.9999 12 11.9999"></polygon>
                    <polygon id="Fill-14" fill="#2E3C3E" points="16 13.9999 18 13.9999 18 11.9999 16 11.9999"></polygon>
                    <polygon id="Fill-15" fill="#2E3C3E" points="31 32.9999 33 32.9999 33 30.9999 31 30.9999"></polygon>
                    <polygon id="Fill-16" fill="#2E3C3E" points="42 55.9999 56 55.9999 56 53.9999 42 53.9999"></polygon>
                    <polygon id="Fill-17" fill="#2E3C3E" points="54 51.9999 56 51.9999 56 49.9999 54 49.9999"></polygon>
                    <polygon id="Fill-18" fill="#2E3C3E" points="50 51.9999 52 51.9999 52 49.9999 50 49.9999"></polygon>
                    <polygon id="Fill-19" fill="#2E3C3E" points="46 51.9999 48 51.9999 48 49.9999 46 49.9999"></polygon>
                    <path d="M18.0002,52.9999 C15.7942,52.9999 14.0002,51.2059 14.0002,48.9999 L16.0002,48.9999 C16.0002,50.1029 16.8972,50.9999 18.0002,50.9999 C19.1032,50.9999 20.0002,50.1029 20.0002,48.9999 C20.0002,48.3509 18.5762,47.3539 17.5912,46.9129 C16.9922,46.6439 14.0002,45.1929 14.0002,42.9999 C14.0002,40.7939 15.7942,38.9999 18.0002,38.9999 C20.2062,38.9999 22.0002,40.7939 22.0002,42.9999 L20.0002,42.9999 C20.0002,41.8969 19.1032,40.9999 18.0002,40.9999 C16.8972,40.9999 16.0002,41.8969 16.0002,42.9999 C16.0002,43.6489 17.4242,44.6459 18.4092,45.0869 C19.0082,45.3559 22.0002,46.8069 22.0002,48.9999 C22.0002,51.2059 20.2062,52.9999 18.0002,52.9999" id="Fill-20" fill="#2E3C3E"></path>
                    <polygon id="Fill-21" fill="#2E3C3E" points="17 39.9999 19 39.9999 19 36.9999 17 36.9999"></polygon>
                    <polygon id="Fill-22" fill="#2E3C3E" points="17 54.9999 19 54.9999 19 51.9999 17 51.9999"></polygon>
                    <polygon id="Fill-23" fill="#2E3C3E" points="24 46.9999 26 46.9999 26 44.9999 24 44.9999"></polygon>
                    <polygon id="Fill-24" fill="#2E3C3E" points="10 46.9999 12 46.9999 12 44.9999 10 44.9999"></polygon>
                    <path d="M46.0002,28.9999 C46.3042,28.9999 46.5912,29.1379 46.7812,29.3759 L50.3172,33.7959 L54.0002,32.3229 L54.0002,26.9999 C54.0002,26.4479 54.4482,25.9999 55.0002,25.9999 L60.3232,25.9999 L61.7962,22.3169 L57.3762,18.7809 C57.1382,18.5909 57.0002,18.3039 57.0002,17.9999 C57.0002,17.6959 57.1382,17.4089 57.3762,17.2189 L61.7962,13.6829 L60.3232,9.9999 L55.0002,9.9999 C54.4482,9.9999 54.0002,9.5519 54.0002,8.9999 L54.0002,3.6769 L50.3172,2.2039 L46.7812,6.6239 C46.4022,7.0989 45.5982,7.0989 45.2192,6.6239 L41.6832,2.2039 L38.0002,3.6769 L38.0002,8.9999 C38.0002,9.5519 37.5522,9.9999 37.0002,9.9999 L31.6772,9.9999 L30.2042,13.6829 L34.6242,17.2189 C34.8622,17.4089 35.0002,17.6959 35.0002,17.9999 C35.0002,18.3039 34.8622,18.5909 34.6242,18.7809 L30.2042,22.3169 L31.6772,25.9999 L37.0002,25.9999 C37.5522,25.9999 38.0002,26.4479 38.0002,26.9999 L38.0002,32.3229 L41.6832,33.7959 L45.2192,29.3759 C45.4092,29.1379 45.6962,28.9999 46.0002,28.9999 M50.0012,35.9999 C49.7032,35.9999 49.4132,35.8669 49.2192,35.6239 L46.0002,31.6009 L42.7812,35.6239 C42.5062,35.9679 42.0382,36.0899 41.6282,35.9289 L36.6282,33.9289 C36.2492,33.7759 36.0002,33.4089 36.0002,32.9999 L36.0002,27.9999 L31.0002,27.9999 C30.5912,27.9999 30.2242,27.7509 30.0712,27.3719 L28.0712,22.3719 C27.9082,21.9619 28.0312,21.4939 28.3762,21.2189 L32.3992,17.9999 L28.3762,14.7809 C28.0312,14.5059 27.9082,14.0379 28.0712,13.6279 L30.0712,8.6279 C30.2242,8.2489 30.5912,7.9999 31.0002,7.9999 L36.0002,7.9999 L36.0002,2.9999 C36.0002,2.5909 36.2492,2.2239 36.6282,2.0709 L41.6282,0.0709 C42.0382,-0.0911 42.5062,0.0309 42.7812,0.3759 L46.0002,4.3989 L49.2192,0.3759 C49.4952,0.0309 49.9612,-0.0911 50.3722,0.0709 L55.3722,2.0709 C55.7512,2.2239 56.0002,2.5909 56.0002,2.9999 L56.0002,7.9999 L61.0002,7.9999 C61.4092,7.9999 61.7762,8.2489 61.9292,8.6279 L63.9292,13.6279 C64.0922,14.0379 63.9692,14.5059 63.6242,14.7809 L59.6012,17.9999 L63.6242,21.2189 C63.9692,21.4939 64.0922,21.9619 63.9292,22.3719 L61.9292,27.3719 C61.7762,27.7509 61.4092,27.9999 61.0002,27.9999 L56.0002,27.9999 L56.0002,32.9999 C56.0002,33.4089 55.7512,33.7759 55.3722,33.9289 L50.3722,35.9289 C50.2512,35.9769 50.1252,35.9999 50.0012,35.9999" id="Fill-25" fill="#2E3C3E"></path>
                    <path d="M46.0002,10.9999 C42.1402,10.9999 39.0002,14.1399 39.0002,17.9999 C39.0002,21.8599 42.1402,24.9999 46.0002,24.9999 C49.8602,24.9999 53.0002,21.8599 53.0002,17.9999 C53.0002,14.1399 49.8602,10.9999 46.0002,10.9999 M46.0002,26.9999 C41.0382,26.9999 37.0002,22.9619 37.0002,17.9999 C37.0002,13.0379 41.0382,8.9999 46.0002,8.9999 C50.9622,8.9999 55.0002,13.0379 55.0002,17.9999 C55.0002,22.9619 50.9622,26.9999 46.0002,26.9999" id="Fill-26" fill="#2E3C3E"></path>
                    <path d="M18.0002,56.9999 C18.3042,56.9999 18.5912,57.1379 18.7812,57.3749 L22.3172,61.7959 L26.0002,60.3229 L26.0002,54.9999 C26.0002,54.4469 26.4482,53.9999 27.0002,53.9999 L32.3232,53.9999 L33.7962,50.3169 L29.3762,46.7809 C29.1382,46.5909 29.0002,46.3039 29.0002,45.9999 C29.0002,45.6959 29.1382,45.4089 29.3762,45.2189 L33.7962,41.6829 L32.3232,37.9999 L27.0002,37.9999 C26.4482,37.9999 26.0002,37.5519 26.0002,36.9999 L26.0002,31.6769 L22.3172,30.2039 L18.7812,34.6239 C18.4022,35.0989 17.5982,35.0989 17.2192,34.6239 L13.6832,30.2039 L10.0002,31.6769 L10.0002,36.9999 C10.0002,37.5519 9.5522,37.9999 9.0002,37.9999 L3.6772,37.9999 L2.2042,41.6829 L6.6242,45.2189 C6.8622,45.4089 7.0002,45.6959 7.0002,45.9999 C7.0002,46.3039 6.8622,46.5909 6.6242,46.7809 L2.2042,50.3169 L3.6772,53.9999 L9.0002,53.9999 C9.5522,53.9999 10.0002,54.4469 10.0002,54.9999 L10.0002,60.3229 L13.6832,61.7959 L17.2192,57.3749 C17.4092,57.1379 17.6962,56.9999 18.0002,56.9999 M22.0012,63.9999 C21.7032,63.9999 21.4132,63.8669 21.2192,63.6249 L18.0002,59.6009 L14.7812,63.6249 C14.5062,63.9689 14.0392,64.0919 13.6282,63.9289 L8.6282,61.9289 C8.2492,61.7759 8.0002,61.4089 8.0002,60.9999 L8.0002,55.9999 L3.0002,55.9999 C2.5912,55.9999 2.2242,55.7509 2.0712,55.3709 L0.0712,50.3719 C-0.0918,49.9619 0.0312,49.4939 0.3762,49.2189 L4.3992,45.9999 L0.3762,42.7809 C0.0312,42.5059 -0.0918,42.0379 0.0712,41.6279 L2.0712,36.6279 C2.2242,36.2489 2.5912,35.9999 3.0002,35.9999 L8.0002,35.9999 L8.0002,30.9999 C8.0002,30.5909 8.2492,30.2239 8.6282,30.0709 L13.6282,28.0709 C14.0392,27.9089 14.5062,28.0309 14.7812,28.3759 L18.0002,32.3989 L21.2192,28.3759 C21.4942,28.0309 21.9622,27.9089 22.3722,28.0709 L27.3722,30.0709 C27.7512,30.2239 28.0002,30.5909 28.0002,30.9999 L28.0002,35.9999 L33.0002,35.9999 C33.4092,35.9999 33.7762,36.2489 33.9292,36.6279 L35.9292,41.6279 C36.0922,42.0379 35.9692,42.5059 35.6242,42.7809 L31.6012,45.9999 L35.6242,49.2189 C35.9692,49.4939 36.0922,49.9619 35.9292,50.3719 L33.9292,55.3709 C33.7762,55.7509 33.4092,55.9999 33.0002,55.9999 L28.0002,55.9999 L28.0002,60.9999 C28.0002,61.4089 27.7512,61.7759 27.3722,61.9289 L22.3722,63.9289 C22.2512,63.9769 22.1252,63.9999 22.0012,63.9999" id="Fill-27" fill="#2E3C3E"></path>
                </g>
            </g>
        </g>
    </g>
</svg>