<?xml version="1.0" encoding="UTF-8"?>
<svg width="64px" height="64px" viewBox="0 0 64 64" version="1.1" xmlns="http://www.w3.org/2000/svg" xmlns:xlink="http://www.w3.org/1999/xlink">
    <!-- Generator: Sketch 42 (36781) - http://www.bohemiancoding.com/sketch -->
    <title>Group 9</title>
    <desc>Created with Sketch.</desc>
    <defs>
        <polygon id="path-1" points="0 64 64 64 64 0 0 0"></polygon>
    </defs>
    <g id="Page-1" stroke="none" stroke-width="1" fill="none" fill-rule="evenodd">
        <g id="b2b_landing_cor" transform="translate(-200.000000, -1393.000000)">
            <g id="Group-15" transform="translate(200.000000, 1393.000000)">
                <g id="Group-9">
                    <path d="M53,21 C53,32.597 43.599,42 32,42 C20.401,42 11,32.597 11,21 C11,9.396 20.401,0 32,0 C43.599,0 53,9.396 53,21 L53,21 Z" id="Fill-1" fill="#B0DAF1"></path>
                    <path d="M4,8 C2.897,8 2,8.897 2,10 L2,50 C2,51.102 2.897,52 4,52 L60,52 C61.102,52 62,51.102 62,50 L62,10 C62,8.897 61.102,8 60,8 L4,8 Z M60,54 L4,54 C1.794,54 0,52.206 0,50 L0,10 C0,7.794 1.794,6 4,6 L60,6 C62.206,6 64,7.794 64,10 L64,50 C64,52.206 62.206,54 60,54 L60,54 Z" id="Fill-3" fill="#192324"></path>
                    <polygon id="Fill-5" fill="#192324" points="40.042 63.2871 37.042 53.2871 38.958 52.7131 41.958 62.7131"></polygon>
                    <polygon id="Fill-7" fill="#192324" points="23.958 63.2871 22.042 62.7131 25.042 52.7131 26.958 53.2871"></polygon>
                    <mask id="mask-2" fill="white">
                        <use xlink:href="#path-1"></use>
                    </mask>
                    <g id="Clip-10"></g>
                    <polygon id="Fill-9" fill="#192324" mask="url(#mask-2)" points="19 64 45 64 45 62 19 62"></polygon>
                    <polygon id="Fill-11" fill="#192324" mask="url(#mask-2)" points="31 50 33 50 33 48 31 48"></polygon>
                    <path d="M6,44 L58,44 L58,12 L6,12 L6,44 Z M59,46 L5,46 C4.447,46 4,45.553 4,45 L4,11 C4,10.447 4.447,10 5,10 L59,10 C59.553,10 60,10.447 60,11 L60,45 C60,45.553 59.553,46 59,46 L59,46 Z" id="Fill-12" fill="#192324" mask="url(#mask-2)"></path>
                    <path d="M12.3936,28 C14.7506,30.344 23.1296,38 31.9996,38 C40.8706,38 49.2486,30.344 51.6066,28 C49.2486,25.656 40.8706,18 31.9996,18 C23.1296,18 14.7506,25.656 12.3936,28 M31.9996,40 C20.6876,40 10.6806,29.135 10.2596,28.673 C9.9136,28.291 9.9136,27.709 10.2596,27.327 C10.6806,26.865 20.6876,16 31.9996,16 C43.3126,16 53.3196,26.865 53.7406,27.327 C54.0866,27.709 54.0866,28.291 53.7406,28.673 C53.3196,29.135 43.3126,40 31.9996,40" id="Fill-13" fill="#192324" mask="url(#mask-2)"></path>
                    <path d="M32,40 C25.383,40 20,34.617 20,28 L22,28 C22,33.514 26.486,38 32,38 C37.514,38 42,33.514 42,28 C42,22.486 37.514,18 32,18 L32,16 C38.617,16 44,21.383 44,28 C44,34.617 38.617,40 32,40" id="Fill-14" fill="#192324" mask="url(#mask-2)"></path>
                    <path d="M26,28 L24,28 C24,23.589 27.589,20 32,20 L32,22 C28.691,22 26,24.691 26,28" id="Fill-15" fill="#192324" mask="url(#mask-2)"></path>
                    <path d="M32,36 L32,34 C35.309,34 38,31.309 38,28 L40,28 C40,32.411 36.411,36 32,36" id="Fill-16" fill="#192324" mask="url(#mask-2)"></path>
                    <path d="M32,26 C30.897,26 30,26.897 30,28 C30,29.102 30.897,30 32,30 C33.102,30 34,29.102 34,28 C34,26.897 33.102,26 32,26 M32,32 C29.794,32 28,30.206 28,28 C28,25.794 29.794,24 32,24 C34.206,24 36,25.794 36,28 C36,30.206 34.206,32 32,32" id="Fill-17" fill="#192324" mask="url(#mask-2)"></path>
                </g>
            </g>
        </g>
    </g>
</svg>