<?xml version="1.0" encoding="UTF-8"?>
<svg width="64px" height="64px" viewBox="0 0 64 64" version="1.1" xmlns="http://www.w3.org/2000/svg" xmlns:xlink="http://www.w3.org/1999/xlink">
    <!-- Generator: Sketch 42 (36781) - http://www.bohemiancoding.com/sketch -->
    <title>Page 1</title>
    <desc>Created with Sketch.</desc>
    <defs></defs>
    <g id="Page-1" stroke="none" stroke-width="1" fill="none" fill-rule="evenodd">
        <g id="b2b_landing_cor" transform="translate(-609.000000, -1731.000000)">
            <g id="Group-25" transform="translate(501.000000, 1731.000000)">
                <g id="Page-1" transform="translate(108.000000, 0.000000)">
                    <path d="M64,43 C64,54.597 54.599,64 43,64 C31.401,64 22,54.597 22,43 C22,31.396 31.401,22 43,22 C54.599,22 64,31.396 64,43 L64,43 Z" id="Fill-1" fill="#B0DAF1"></path>
                    <path d="M27,64 C12.112,64 0,51.888 0,37 C0,22.112 12.112,10 27,10 L27,12 C13.215,12 2,23.215 2,37 C2,50.785 13.215,62 27,62 C40.785,62 52,50.785 52,37 C52,32.479 50.78,28.05 48.474,24.191 L50.19,23.165 C52.683,27.334 54,32.118 54,37 C54,51.888 41.888,64 27,64" id="Fill-3" fill="#2E3C3E"></path>
                    <polygon id="Fill-5" fill="#2E3C3E" points="26 63 28 63 28 14 26 14"></polygon>
                    <polygon id="Fill-7" fill="#2E3C3E" points="1 38 53 38 53 36 1 36"></polygon>
                    <path d="M27,64 C19.149,64 13,52.14 13,37 C13,21.86 19.149,10 27,10 L27,12 C20.495,12 15,23.449 15,37 C15,50.551 20.495,62 27,62 C33.505,62 39,50.551 39,37 L41,37 C41,52.14 34.851,64 27,64" id="Fill-8" fill="#2E3C3E"></path>
                    <polygon id="Fill-9" fill="#2E3C3E" points="6 23 29 23 29 21 6 21"></polygon>
                    <polygon id="Fill-10" fill="#2E3C3E" points="6 53 48 53 48 51 6 51"></polygon>
                    <path d="M40,2 C33.383,2 28,7.383 28,14 C28,20.456 37.258,32.129 40,35.446 C42.742,32.128 52,20.452 52,14 C52,7.383 46.617,2 40,2 M40,38 C39.71,38 39.435,37.874 39.244,37.655 C38.703,37.031 26,22.278 26,14 C26,6.28 32.28,0 40,0 C47.72,0 54,6.28 54,14 C54,22.278 41.297,37.031 40.756,37.655 C40.565,37.874 40.29,38 40,38" id="Fill-11" fill="#2E3C3E"></path>
                    <path d="M40,7 C36.141,7 33,10.14 33,14 C33,17.86 36.141,21 40,21 C43.859,21 47,17.86 47,14 C47,10.14 43.859,7 40,7 M40,23 C35.037,23 31,18.962 31,14 C31,9.038 35.037,5 40,5 C44.963,5 49,9.038 49,14 C49,18.962 44.963,23 40,23" id="Fill-12" fill="#2E3C3E"></path>
                </g>
            </g>
        </g>
    </g>
</svg>