<?xml version="1.0" encoding="UTF-8"?>
<svg width="64px" height="64px" viewBox="0 0 64 64" version="1.1" xmlns="http://www.w3.org/2000/svg" xmlns:xlink="http://www.w3.org/1999/xlink">
    <!-- Generator: Sketch 42 (36781) - http://www.bohemiancoding.com/sketch -->
    <title>Page 1</title>
    <desc>Created with Sketch.</desc>
    <defs></defs>
    <g id="Page-1" stroke="none" stroke-width="1" fill="none" fill-rule="evenodd">
        <g id="b2b_landing_cor" transform="translate(-239.000000, -600.000000)">
            <g id="Group-21" transform="translate(131.000000, 600.000000)">
                <g id="Group-17">
                    <g id="Page-1" transform="translate(108.000000, 0.000000)">
                        <path d="M52,44 C52,55.045 43.046,64 32,64 C20.954,64 12,55.045 12,44 C12,32.954 20.954,24 32,24 C43.046,24 52,32.954 52,44 L52,44 Z" id="Fill-1" fill="#B0DAF1"></path>
                        <path d="M32,2 C22.075,2 14,10.075 14,20 C14,29.925 22.075,38 32,38 C41.925,38 50,29.925 50,20 C50,10.075 41.925,2 32,2 M32,40 C20.972,40 12,31.028 12,20 C12,8.972 20.972,0 32,0 C43.028,0 52,8.972 52,20 C52,31.028 43.028,40 32,40" id="Fill-3" fill="#2E3C3E"></path>
                        <path d="M32,29 C29.243,29 27,26.757 27,24 L29,24 C29,25.654 30.346,27 32,27 C33.654,27 35,25.654 35,24 C35,22.656 33.93,22.064 32.038,21.134 L31.08,20.66 C29.167,19.72 27,18.655 27,16 C27,13.243 29.243,11 32,11 C34.757,11 37,13.243 37,16 L35,16 C35,14.346 33.654,13 32,13 C30.346,13 29,14.346 29,16 C29,17.344 30.07,17.936 31.962,18.866 L32.92,19.34 C34.833,20.28 37,21.345 37,24 C37,26.757 34.757,29 32,29" id="Fill-5" fill="#2E3C3E"></path>
                        <polygon id="Fill-7" fill="#2E3C3E" points="31 12 33 12 33 9 31 9"></polygon>
                        <polygon id="Fill-9" fill="#2E3C3E" points="31 31 33 31 33 28 31 28"></polygon>
                        <path d="M24,58 L11,58 L11,55 C10.998,54.944 10.944,53.358 9.293,51.707 L2.293,44.707 C0.026,42.44 0,40.099 0,40 L0,24 C0,21.794 1.794,20 4,20 C6.206,20 8,21.794 8,24 L8,32 L6,32 L6,24 C6,22.897 5.103,22 4,22 C2.897,22 2,22.897 2,24 L2,40 C2.001,40.056 2.056,41.642 3.707,43.293 L10.707,50.293 C12.974,52.56 13,54.901 13,55 L13,56 L22,56 L22,49 C22,48.977 21.964,46.378 20.293,44.707 L10.586,35 L10,35 C8.897,35 8,35.897 8,37 L8,37.586 L14.707,44.293 L13.293,45.707 L6,38.414 L6,37 C6,34.794 7.794,33 10,33 L11.414,33 L21.707,43.293 C23.974,45.56 24,48.86 24,49 L24,58 Z" id="Fill-10" fill="#2E3C3E"></path>
                        <path d="M53,58 L40,58 L40,49 C40,48.86 40.026,45.56 42.293,43.293 L52.586,33 L54,33 C56.206,33 58,34.794 58,37 L58,38.414 L50.707,45.707 L49.293,44.293 L56,37.586 L56,37 C56,35.897 55.103,35 54,35 L53.414,35 L43.707,44.707 C42.02,46.395 42,48.974 42,49 L42,56 L51,56 L51,55 C51,54.901 51.026,52.56 53.293,50.293 L60.293,43.293 C61.944,41.642 61.998,40.056 62,39.989 L62,24 C62,22.897 61.103,22 60,22 C58.897,22 58,22.897 58,24 L58,32 L56,32 L56,24 C56,21.794 57.794,20 60,20 C62.206,20 64,21.794 64,24 L64,40 C64,40.099 63.974,42.44 61.707,44.707 L54.707,51.707 C53.056,53.358 53.001,54.944 53,55.011 L53,58 Z" id="Fill-11" fill="#2E3C3E"></path>
                        <path d="M55,64 L53,64 L53,58 L40,58 L40,64 L38,64 L38,58 C38,56.898 38.897,56 40,56 L53,56 C54.103,56 55,56.898 55,58 L55,64 Z" id="Fill-12" fill="#2E3C3E"></path>
                        <path d="M26,64 L24,64 L24,58 L11,58 L11,64 L9,64 L9,58 C9,56.898 9.897,56 11,56 L24,56 C25.103,56 26,56.898 26,58 L26,64 Z" id="Fill-13" fill="#2E3C3E"></path>
                        <polygon id="Fill-14" fill="#2E3C3E" points="22 21 24 21 24 19 22 19"></polygon>
                        <polygon id="Fill-15" fill="#2E3C3E" points="40 21 42 21 42 19 40 19"></polygon>
                        <path d="M32,6 C24.28,6 18,12.28 18,20 C18,27.72 24.28,34 32,34 C39.72,34 46,27.72 46,20 C46,12.28 39.72,6 32,6 M32,36 C23.178,36 16,28.822 16,20 C16,11.178 23.178,4 32,4 C40.822,4 48,11.178 48,20 C48,28.822 40.822,36 32,36" id="Fill-16" fill="#2E3C3E"></path>
                    </g>
                </g>
            </g>
        </g>
    </g>
</svg>