<?xml version="1.0" encoding="UTF-8"?>
<svg width="64px" height="64px" viewBox="0 0 64 64" version="1.1" xmlns="http://www.w3.org/2000/svg" xmlns:xlink="http://www.w3.org/1999/xlink">
    <!-- Generator: Sketch 42 (36781) - http://www.bohemiancoding.com/sketch -->
    <title>Group 24</title>
    <desc>Created with Sketch.</desc>
    <defs></defs>
    <g id="Page-1" stroke="none" stroke-width="1" fill="none" fill-rule="evenodd">
        <g id="b2b_landing_com" transform="translate(-973.000000, -1584.000000)">
            <g id="Group-23" transform="translate(870.000000, 1584.000000)">
                <g id="Group-24" transform="translate(103.000000, 0.000000)">
                    <path d="M42,43 C42,54.598 32.599,64 21,64 C9.401,64 0,54.598 0,43 C0,31.401 9.401,22 21,22 C32.599,22 42,31.401 42,43 L42,43 Z" id="Fill-1" fill="#B0DAF1"></path>
                    <path d="M8.8945,51.4473 L7.1055,50.5523 C7.2365,50.2903 10.3865,44.1033 15.8035,43.0193 L22.6525,41.0593 C23.7755,40.5373 24.9995,39.5783 24.9995,39.0003 L24.9995,34.0003 L26.9995,34.0003 L26.9995,39.0003 C26.9995,41.1933 24.0085,42.6443 23.4085,42.9123 C23.3655,42.9323 23.3205,42.9483 23.2745,42.9613 L16.2745,44.9613 C11.7275,45.8743 8.9225,51.3913 8.8945,51.4473" id="Fill-3" fill="#2E3C3E"></path>
                    <path d="M55.106,51.4482 C55.078,51.3922 52.255,45.8702 47.804,44.9802 L40.725,42.9612 C40.68,42.9482 40.635,42.9322 40.591,42.9122 C39.992,42.6442 37,41.1932 37,39.0002 L37,34.0002 L39,34.0002 L39,39.0002 C39,39.6352 40.365,40.6052 41.346,41.0592 L48.275,43.0382 C53.613,44.1032 56.763,50.2902 56.894,50.5532 L55.106,51.4482 Z" id="Fill-5" fill="#2E3C3E"></path>
                    <path d="M27,15.6182 L27,17.0002 C27,17.5522 26.552,18.0002 26,18.0002 C24.897,18.0002 24,18.8972 24,20.0002 L24,23.0002 C24,29.2612 26.503,36.0002 32,36.0002 C37.497,36.0002 40,29.2612 40,23.0002 L40,20.0002 C40,18.8972 39.103,18.0002 38,18.0002 L32,18.0002 C31.845,18.0002 31.691,17.9642 31.553,17.8942 L27,15.6182 Z M32,38.0002 C25.129,38.0002 22,30.2242 22,23.0002 L22,20.0002 C22,18.1392 23.277,16.5722 25,16.1262 L25,14.0002 C25,13.6532 25.18,13.3312 25.474,13.1492 C25.769,12.9672 26.137,12.9512 26.447,13.1052 L32.236,16.0002 L38,16.0002 C40.206,16.0002 42,17.7942 42,20.0002 L42,23.0002 C42,30.2242 38.871,38.0002 32,38.0002 L32,38.0002 Z" id="Fill-7" fill="#2E3C3E"></path>
                    <path d="M34,47 L30,47 C29.735,47 29.48,46.895 29.293,46.707 L25.586,43 L23,43 L23,41 L26,41 C26.265,41 26.52,41.105 26.707,41.293 L30.414,45 L33.586,45 L37.293,41.293 C37.48,41.105 37.735,41 38,41 L41,41 L41,43 L38.414,43 L34.707,46.707 C34.52,46.895 34.265,47 34,47" id="Fill-9" fill="#2E3C3E"></path>
                    <polygon id="Fill-11" fill="#2E3C3E" points="31 56 33 56 33 54 31 54"></polygon>
                    <polygon id="Fill-13" fill="#2E3C3E" points="31 52 33 52 33 50 31 50"></polygon>
                    <polygon id="Fill-14" fill="#2E3C3E" points="31 60 33 60 33 58 31 58"></polygon>
                    <polygon id="Fill-15" fill="#2E3C3E" points="37 54 45 54 45 52 37 52"></polygon>
                    <path d="M46,18 L44,18 L44,17 C44,12.376 40.494,8.554 36,8.055 L36,9 C36,9.321 35.846,9.623 35.585,9.811 C35.323,9.999 34.987,10.049 34.684,9.949 L28.842,8.001 C23.952,8.086 20,12.09 20,17 L20,18 L18,18 L18,17 C18,10.935 22.935,6 29,6 C29.107,6 29.214,6.017 29.316,6.051 L34,7.613 L34,7 C34,6.448 34.448,6 35,6 C41.065,6 46,10.935 46,17 L46,18 Z" id="Fill-16" fill="#2E3C3E"></path>
                    <path d="M22,30 C18.14,30 15,26.86 15,23 C15,19.14 18.14,16 22,16 L22,18 C19.243,18 17,20.243 17,23 C17,25.757 19.243,28 22,28 L22,30 Z" id="Fill-17" fill="#2E3C3E"></path>
                    <path d="M42,30 L42,28 C44.757,28 47,25.757 47,23 C47,20.243 44.757,18 42,18 L42,16 C45.86,16 49,19.14 49,23 C49,26.86 45.86,30 42,30" id="Fill-18" fill="#2E3C3E"></path>
                    <path d="M44,34 L33,34 C31.346,34 30,32.654 30,31 L32,31 C32,31.551 32.449,32 33,32 L44,32 C44.551,32 45,31.551 45,31 L45,27 L47,27 L47,31 C47,32.654 45.654,34 44,34" id="Fill-19" fill="#2E3C3E"></path>
                    <path d="M32,2 C15.458,2 2,15.458 2,32 C2,48.542 15.458,62 32,62 C48.542,62 62,48.542 62,32 C62,15.458 48.542,2 32,2 M32,64 C14.355,64 0,49.645 0,32 C0,14.355 14.355,0 32,0 C49.645,0 64,14.355 64,32 C64,49.645 49.645,64 32,64" id="Fill-20" fill="#2E3C3E"></path>
                </g>
            </g>
        </g>
    </g>
</svg>