<svg id="SvgjsSvg1038" xmlns="http://www.w3.org/2000/svg" version="1.1" xmlns:xlink="http://www.w3.org/1999/xlink" xmlns:svgjs="http://svgjs.com/svgjs" width="22" height="27"><defs id="SvgjsDefs1039"></defs><path id="SvgjsPath1040" d="M327.41 889L319 889L319 914L341 914L341 889L332.59 889C332.15 887.89 331.26 887 330 887C328.74 887 327.85 887.89 327.41 889ZM324 891L324 895L336 895L336 891L339 891L339 912L321 912L321 891ZM331 890L331 891L334 891L334 893L326 893L326 891L329 891L329 890C329 889.45 329.45 889 330 889C330.55 889 331 889.45 331 890ZM335.28 898.28L336.71999999999997 899.72L329.71999999999997 906.72L328.99999999999994 907.4100000000001L328.2799999999999 906.72L324.2799999999999 902.72L325.7199999999999 901.28L328.9999999999999 904.56Z " fill="#616161" fill-opacity="1" transform="matrix(1,0,0,1,-319,-887)"></path></svg>