<?xml version="1.0" encoding="UTF-8"?>
<svg width="12px" height="12px" viewBox="0 0 12 12" version="1.1" xmlns="http://www.w3.org/2000/svg" xmlns:xlink="http://www.w3.org/1999/xlink">
    <!-- Generator: Sketch 42 (36781) - http://www.bohemiancoding.com/sketch -->
    <title>Group</title>
    <desc>Created with Sketch.</desc>
    <defs></defs>
    <g id="Page-1" stroke="none" stroke-width="1" fill="none" fill-rule="evenodd">
        <g id="b2b_landing_cor" transform="translate(-298.000000, -1282.000000)">
            <g id="Group-5" transform="translate(200.000000, 1241.000000)">
                <g id="ic_check_circle_24px-copy-5" transform="translate(97.000000, 40.000000)">
                    <g id="Group">
                        <polygon id="Shape" points="0 0 14 0 14 14 0 14"></polygon>
                        <path d="M7,1.16666667 C3.78,1.16666667 1.16666667,3.78 1.16666667,7 C1.16666667,10.22 3.78,12.8333333 7,12.8333333 C10.22,12.8333333 12.8333333,10.22 12.8333333,7 C12.8333333,3.78 10.22,1.16666667 7,1.16666667 L7,1.16666667 Z M5.83333333,9.91666667 L2.91666667,7 L3.73916667,6.1775 L5.83333333,8.26583333 L10.2608333,3.83833333 L11.0833333,4.66666667 L5.83333333,9.91666667 L5.83333333,9.91666667 Z" id="Shape" fill="#616161"></path>
                    </g>
                </g>
            </g>
        </g>
    </g>
</svg>