<svg xmlns="http://www.w3.org/2000/svg" width="75" height="94" viewBox="0 0 75 94">
    <g fill="none" fill-rule="evenodd">
        <path fill="#FFF" d="M2.286 92.96V87H1.201v-.908h1.085v-.724c0-.368.052-.695.156-.98.104-.286.253-.526.447-.721.195-.195.432-.342.711-.441.28-.1.595-.15.946-.15.27 0 .54.037.806.109l-.063.952a3.547 3.547 0 0 0-.635-.057c-.38 0-.675.11-.882.333-.208.222-.311.54-.311.955v.724h1.466V87H3.46v5.96H2.286zm3.625-3.498c0-.499.073-.961.219-1.387.146-.425.353-.794.622-1.107.269-.313.596-.559.98-.737a3.054 3.054 0 0 1 1.296-.266c.486 0 .923.089 1.31.266.388.178.717.424.987.737.271.313.479.682.622 1.107.144.426.216.888.216 1.387v.14c0 .5-.072.962-.216 1.387a3.243 3.243 0 0 1-.622 1.105c-.27.31-.598.554-.984.73a3.102 3.102 0 0 1-1.3.263c-.483 0-.917-.088-1.302-.263a2.862 2.862 0 0 1-.984-.73c-.27-.311-.48-.68-.625-1.105a4.246 4.246 0 0 1-.22-1.387v-.14zm1.18.14c0 .343.04.667.121.971.08.305.202.573.365.803.163.23.366.414.61.55.243.135.527.202.853.202.322 0 .605-.067.85-.203.246-.135.45-.318.61-.549.161-.23.283-.498.365-.803.083-.304.124-.628.124-.97v-.14c0-.34-.041-.662-.124-.969a2.516 2.516 0 0 0-.368-.806 1.724 1.724 0 0 0-1.47-.759c-.321 0-.603.07-.844.207a1.867 1.867 0 0 0-.606.552c-.163.23-.285.5-.365.806-.08.307-.12.63-.12.968v.14zm9.865-2.456a3.106 3.106 0 0 0-.578-.045c-.406 0-.737.089-.993.267a1.62 1.62 0 0 0-.575.717v4.875h-1.174v-6.868h1.142l.02.793c.177-.283.4-.508.666-.673.267-.165.59-.247.971-.247a1.736 1.736 0 0 1 .52.089v1.092zm10.112 2.456c0 .504-.06.968-.178 1.393a3.376 3.376 0 0 1-.52 1.105 2.438 2.438 0 0 1-.839.727c-.33.173-.706.26-1.13.26-.452 0-.844-.08-1.174-.238a2.311 2.311 0 0 1-.838-.682l-.057.793h-1.079v-9.75h1.174v3.637a2.33 2.33 0 0 1 .826-.654c.321-.152.7-.228 1.136-.228.431 0 .813.085 1.146.254.332.17.611.407.837.714.227.307.4.675.518 1.104.118.43.178.907.178 1.432v.133zm-1.175-.133c0-.343-.031-.666-.095-.968a2.454 2.454 0 0 0-.308-.797 1.586 1.586 0 0 0-.555-.543c-.229-.133-.508-.2-.838-.2-.216 0-.41.028-.584.083a1.68 1.68 0 0 0-.825.571 2.289 2.289 0 0 0-.26.426v2.97c.076.153.166.294.27.426a1.68 1.68 0 0 0 .828.571c.173.055.368.082.584.082.317 0 .588-.065.812-.196.224-.132.408-.31.552-.534.144-.224.25-.487.318-.79.067-.302.101-.625.101-.968v-.133zm6.894 2.812a2.188 2.188 0 0 1-.82.593c-.33.142-.727.213-1.192.213a2.8 2.8 0 0 1-.92-.143 1.791 1.791 0 0 1-.712-.45 2.052 2.052 0 0 1-.46-.794c-.108-.324-.162-.714-.162-1.171v-4.437h1.174v4.45c0 .308.036.563.108.764.072.201.168.36.286.477a.955.955 0 0 0 .406.24c.153.045.31.067.47.067.478 0 .862-.09 1.152-.273.29-.182.503-.425.638-.73v-4.995h1.174v6.868h-1.117l-.025-.68zm6.925-1.143c0-.127-.019-.246-.057-.358a.755.755 0 0 0-.225-.318 1.683 1.683 0 0 0-.48-.276 4.952 4.952 0 0 0-.818-.235 7.753 7.753 0 0 1-1.029-.285 3.145 3.145 0 0 1-.777-.397 1.635 1.635 0 0 1-.492-.55 1.54 1.54 0 0 1-.172-.742c0-.27.06-.528.181-.771.12-.243.291-.457.511-.641.22-.184.487-.33.8-.438a3.2 3.2 0 0 1 1.047-.162c.41 0 .778.056 1.102.168.323.112.598.266.825.46a1.97 1.97 0 0 1 .695 1.517h-1.18c0-.14-.032-.28-.096-.422a1.15 1.15 0 0 0-.28-.38 1.44 1.44 0 0 0-.45-.274 1.676 1.676 0 0 0-.616-.104c-.245 0-.454.028-.625.085a1.233 1.233 0 0 0-.422.229.878.878 0 0 0-.241.324.948.948 0 0 0-.013.714.65.65 0 0 0 .241.276c.119.082.28.159.486.228.205.07.47.141.797.213.418.097.782.207 1.091.33.31.123.565.266.768.429.204.163.355.35.454.561.1.212.15.457.15.737 0 .3-.063.575-.188.825a1.83 1.83 0 0 1-.536.641 2.632 2.632 0 0 1-.838.416c-.326.1-.688.149-1.086.149a3.53 3.53 0 0 1-1.209-.19 2.708 2.708 0 0 1-.879-.505 2.139 2.139 0 0 1-.54-.717 1.974 1.974 0 0 1-.184-.829h1.175c.012.241.07.444.174.606.104.163.234.296.39.397.157.102.329.174.515.216.186.042.372.063.558.063.242 0 .453-.025.635-.076.182-.05.336-.12.46-.21a.902.902 0 0 0 .283-.313.826.826 0 0 0 .095-.39zm3.98 1.822h-1.174v-6.868h1.174v6.868zm-1.27-8.69c0-.19.059-.351.175-.482.116-.132.289-.197.517-.197.229 0 .402.065.52.197a.694.694 0 0 1 .179.482c0 .19-.06.35-.178.476-.119.127-.292.19-.52.19-.23 0-.402-.063-.518-.19a.678.678 0 0 1-.174-.476zm4.26 1.822l.038.863a2.55 2.55 0 0 1 2.057-.99c.334 0 .636.045.907.136.271.091.502.237.692.438.19.201.338.46.441.775.104.315.156.697.156 1.146v4.5h-1.174v-4.513c0-.267-.03-.494-.09-.683a1.126 1.126 0 0 0-.263-.46 1.038 1.038 0 0 0-.431-.26 1.943 1.943 0 0 0-.594-.083c-.38 0-.715.102-1.003.305-.288.203-.512.47-.673.8v4.894h-1.174v-6.868h1.11zm8.912 6.995a3.28 3.28 0 0 1-1.298-.248 2.897 2.897 0 0 1-.994-.688 3.044 3.044 0 0 1-.634-1.05 3.865 3.865 0 0 1-.223-1.334v-.266c0-.56.084-1.058.251-1.499.167-.44.39-.81.67-1.11.28-.3.599-.53.958-.69.36-.158.735-.237 1.124-.237.49 0 .914.086 1.27.257.355.171.648.407.879.708.23.3.4.656.51 1.066.11.41.166.857.166 1.34v.526H53.62c.008.318.06.614.155.889.096.275.231.514.407.717.175.203.387.364.634.483.248.118.528.177.841.177.415 0 .766-.084 1.054-.253.288-.17.54-.394.755-.673l.718.558c-.11.17-.244.334-.4.492-.157.159-.34.3-.55.426-.209.124-.449.224-.72.298-.27.074-.577.111-.92.111zm-.146-6.157c-.237 0-.455.043-.654.13a1.627 1.627 0 0 0-.533.378c-.157.165-.287.37-.39.615a3.121 3.121 0 0 0-.213.844h3.44v-.088a3.25 3.25 0 0 0-.11-.68 1.844 1.844 0 0 0-.286-.603 1.472 1.472 0 0 0-.499-.431c-.203-.11-.455-.165-.755-.165zm8.182 4.208c0-.127-.019-.246-.057-.358a.755.755 0 0 0-.225-.318 1.683 1.683 0 0 0-.48-.276 4.952 4.952 0 0 0-.819-.235 7.753 7.753 0 0 1-1.028-.285 3.145 3.145 0 0 1-.777-.397 1.635 1.635 0 0 1-.492-.55 1.54 1.54 0 0 1-.172-.742c0-.27.06-.528.181-.771.12-.243.291-.457.511-.641.22-.184.487-.33.8-.438a3.2 3.2 0 0 1 1.047-.162c.41 0 .778.056 1.102.168.323.112.598.266.825.46a1.97 1.97 0 0 1 .695 1.517h-1.18c0-.14-.033-.28-.096-.422a1.15 1.15 0 0 0-.28-.38 1.44 1.44 0 0 0-.45-.274 1.676 1.676 0 0 0-.616-.104c-.245 0-.454.028-.625.085a1.233 1.233 0 0 0-.422.229.878.878 0 0 0-.241.324.948.948 0 0 0-.013.714.65.65 0 0 0 .241.276c.119.082.28.159.486.228.205.07.47.141.796.213.42.097.783.207 1.092.33.31.123.565.266.768.429.203.163.355.35.454.561.1.212.15.457.15.737 0 .3-.063.575-.188.825a1.83 1.83 0 0 1-.536.641 2.632 2.632 0 0 1-.838.416c-.326.1-.688.149-1.086.149a3.53 3.53 0 0 1-1.209-.19 2.708 2.708 0 0 1-.879-.505 2.139 2.139 0 0 1-.54-.717 1.974 1.974 0 0 1-.184-.829h1.175c.012.241.07.444.174.606.104.163.234.296.39.397.157.102.329.174.515.216.186.042.372.063.558.063.242 0 .453-.025.635-.076.182-.05.336-.12.46-.21a.902.902 0 0 0 .283-.313.826.826 0 0 0 .095-.39zm6.703 0c0-.127-.019-.246-.057-.358a.755.755 0 0 0-.225-.318 1.683 1.683 0 0 0-.48-.276 4.952 4.952 0 0 0-.818-.235 7.753 7.753 0 0 1-1.029-.285 3.145 3.145 0 0 1-.777-.397 1.635 1.635 0 0 1-.492-.55 1.54 1.54 0 0 1-.172-.742c0-.27.06-.528.181-.771.12-.243.291-.457.511-.641.22-.184.487-.33.8-.438a3.2 3.2 0 0 1 1.047-.162c.41 0 .778.056 1.102.168.323.112.599.266.825.46a1.97 1.97 0 0 1 .695 1.517h-1.18c0-.14-.032-.28-.096-.422a1.15 1.15 0 0 0-.28-.38 1.44 1.44 0 0 0-.45-.274 1.676 1.676 0 0 0-.616-.104c-.245 0-.453.028-.625.085a1.233 1.233 0 0 0-.422.229.878.878 0 0 0-.241.324.948.948 0 0 0-.013.714.65.65 0 0 0 .241.276c.119.082.28.159.486.228.205.07.47.141.797.213.419.097.782.207 1.091.33.31.123.565.266.768.429.204.163.355.35.454.561.1.212.15.457.15.737 0 .3-.063.575-.188.825a1.83 1.83 0 0 1-.536.641 2.632 2.632 0 0 1-.838.416c-.326.1-.688.149-1.085.149a3.53 3.53 0 0 1-1.21-.19 2.708 2.708 0 0 1-.879-.505 2.139 2.139 0 0 1-.54-.717 1.974 1.974 0 0 1-.183-.829h1.174c.013.241.07.444.174.606.104.163.234.296.39.397.157.102.329.174.515.216.186.042.372.063.559.063.24 0 .452-.025.634-.076.182-.05.336-.12.46-.21a.902.902 0 0 0 .283-.313.826.826 0 0 0 .095-.39z"/>
        <g fill-rule="nonzero" transform="translate(0 -1)">
            <rect width="74.42" height="58.92" y="16.51" fill="#FFF" rx="6.2"/>
            <path fill="#FFF" d="M37.21 25.81a7.89 7.89 0 1 0 0-15.78 7.89 7.89 0 0 0 0 15.78zm0 9c-9.34-.006-16.906-7.58-16.9-16.92C20.316 8.55 27.89.984 37.23.99c9.34.006 16.906 7.58 16.9 16.92a16.91 16.91 0 0 1-16.92 16.92v-.02z"/>
            <path fill="#212121" d="M50.1 14.18A13.42 13.42 0 0 0 24 15.57a1.015 1.015 0 0 0 2 .35 11.39 11.39 0 0 1 22.43 0 1.016 1.016 0 1 0 2-.36 13.4 13.4 0 0 0-.33-1.38zM13.59 45.76v25.03H9V45.76H4.13v-4.13h14.38v4.13h-4.92M32 70.79l-3.81-12h-2.54v12h-4.59V41.62h7.37c5.32 0 7.45 2.58 7.45 8.6 0 3.6-.74 6.18-3.4 7.62l4.34 12.94-4.82.01zm-3.56-25h-2.79v8.93h2.83c2.46 0 2.83-2 2.83-4.46s-.37-4.46-2.83-4.46l-.04-.01zM39.63 41.63h4.59v29.16h-4.59zM55.32 59.4h-2.75v11.39H48V41.62h7.33c5.28 0 7.49 2.74 7.49 8.85 0 5.9-2 8.93-7.49 8.93h-.01zm.08-13.64h-2.83v9.5h2.83c2.46 0 2.83-2.17 2.83-4.75s-.37-4.75-2.83-4.75zM68.16 70.95a2.85 2.85 0 0 1-2.87-2.87 2.87 2.87 0 1 1 5.73 0 2.85 2.85 0 0 1-2.87 2.87h.01zM66 41.62h4.34v21H66v-21zM10.81 35.83a3.65 3.65 0 0 1-3 1.29 3.65 3.65 0 0 1-3-1.29c-1.14-1.29-1.12-3.52-1.12-6.53 0-3.01 0-5.24 1.12-6.53a3.65 3.65 0 0 1 3-1.29 3.65 3.65 0 0 1 3 1.29c1.14 1.29 1.12 3.52 1.12 6.53 0 3.01 0 5.24-1.12 6.53zM9 24.23a1.27 1.27 0 0 0-1.16-.58 1.23 1.23 0 0 0-1.14.58c-.45.73-.54 2.28-.54 5.07 0 2.79.09 4.34.54 5.07a1.23 1.23 0 0 0 1.14.58A1.27 1.27 0 0 0 9 34.37c.45-.73.52-2.28.52-5.07 0-2.79-.06-4.3-.52-5.07zM20.32 36.95l-3.62-9.09v9.09h-2.4v-15.3h2.15l3.59 9.09v-9.09h2.4v15.3h-2.12M25.03 36.95v-15.3h6.43v2.17h-4.02v4.34h3.46v2.17h-3.46v4.45h4.02v2.17h-6.43M42.14 23.82v13.13h-2.41V23.82h-2.55v-2.17h7.54v2.17h-2.58M58.4 36.95h-2.52l-2.19-11.63-2.17 11.63h-2.51l-2.9-15.3h2.64l1.51 11.6 2.1-11.6h2.67l2.12 11.6 1.49-11.6h2.64l-2.88 15.3M69.56 35.83a4.05 4.05 0 0 1-5.93 0c-1.14-1.29-1.12-3.52-1.12-6.53 0-3.01 0-5.24 1.12-6.53a4.05 4.05 0 0 1 5.93 0c1.14 1.29 1.12 3.52 1.12 6.53 0 3.01 0 5.24-1.12 6.53zm-1.81-11.6a1.27 1.27 0 0 0-1.16-.58 1.23 1.23 0 0 0-1.14.58c-.45.73-.54 2.28-.54 5.07 0 2.79.09 4.34.54 5.07a1.23 1.23 0 0 0 1.14.58 1.27 1.27 0 0 0 1.16-.58c.45-.73.52-2.28.52-5.07 0-2.79-.06-4.34-.52-5.07z"/>
            <path fill="#212121" d="M46.59 14.69l3.58 3.65 1.38-4.94z"/>
        </g>
    </g>
</svg>
