<svg width="154px" height="154px" viewBox="0 0 154 154" version="1.1" xmlns="http://www.w3.org/2000/svg" xmlns:xlink="http://www.w3.org/1999/xlink">
    <!-- Generator: Sketch 42 (36781) - http://www.bohemiancoding.com/sketch -->
    <title>Group</title>
    <desc>Created with Sketch.</desc>
    <defs></defs>
    <g id="Page-1" stroke="none" stroke-width="1" fill="none" fill-rule="evenodd">
        <g id="b2b_logo" transform="translate(-379.000000, -197.000000)">
            <g id="Group" transform="translate(379.000000, 197.000000)">
                <circle id="Oval-2" fill="#8BC5E5" opacity="0.9" cx="77" cy="77" r="77"></circle>
                <g id="Group-7-Copy-3" transform="translate(32.000000, 38.000000)">
                    <path d="M9.97798676,20.1985584 C9.06503218,21.2015377 7.84854907,21.9679815 5.77952096,21.9679815 C3.71138123,21.9679815 2.49460199,21.2015377 1.58164741,20.1985584 C-0.0307553463,18.4294224 4.1694396e-05,15.3622119 4.1694396e-05,11.2340365 C4.1694396e-05,7.10557406 -0.0307553463,4.03865063 1.58164741,2.26922756 C2.49460199,1.26682241 3.71138123,0.500091553 5.77952096,0.500091553 C7.84854907,0.500091553 9.06503218,1.26682241 9.97798676,2.26922756 C11.5900934,4.03865063 11.5595925,7.10557406 11.5595925,11.2340365 C11.5595925,15.3622119 11.5900934,18.4294224 9.97798676,20.1985584 Z M7.42242464,4.27489903 C7.11800773,3.80268928 6.6009728,3.47860124 5.77952096,3.47860124 C4.95836525,3.47860124 4.47212736,3.80268928 4.16741433,4.27489903 C3.52837574,5.27730418 3.40696432,7.40038222 3.40696432,11.2340365 C3.40696432,15.0676908 3.52837574,17.1907688 4.16741433,18.193174 C4.47212736,18.6653837 4.95836525,18.9897588 5.77952096,18.9897588 C6.6009728,18.9897588 7.11800773,18.6653837 7.42242464,18.193174 C8.0611671,17.1907688 8.15296598,15.0676908 8.15296598,11.2340365 C8.15296598,7.40038222 8.0611671,5.27730418 7.42242464,4.27489903 Z M22.5768237,21.5172018 L17.4525697,9.25340672 L17.4525697,21.5172018 L14.0366972,21.5172018 L14.0366972,0.875 L17.086191,0.875 L22.1801609,13.1385129 L22.1801609,0.875 L25.5963303,0.875 L25.5963303,21.5172018 L22.5768237,21.5172018 Z M28.0733945,21.5172018 L28.0733945,0.875 L37.1559633,0.875 L37.1559633,3.80308198 L31.475181,3.80308198 L31.475181,9.65952816 L36.3661361,9.65952816 L36.3661361,12.5876101 L31.475181,12.5876101 L31.475181,18.5894021 L37.1559633,18.5894021 L37.1559633,21.5172018 L28.0733945,21.5172018 Z M51.239269,3.80304195 L51.239269,21.5172018 L47.8140043,21.5172018 L47.8140043,3.80304195 L44.1749954,3.80304195 L44.1749954,0.875 L54.9089404,0.875 L54.9089404,3.80304195 L51.239269,3.80304195 Z M73.5404419,21.5172018 L69.9824407,21.5172018 L66.8808819,5.83277473 L63.8098119,21.5172018 L60.2521067,21.5172018 L56.146789,0.875 L59.8871303,0.875 L62.0157149,16.5309228 L64.9959109,0.875 L68.766445,0.875 L71.7768337,16.5309228 L73.8746335,0.875 L77.6146789,0.875 L73.5404419,21.5172018 Z M88.4180169,20.1985821 C87.505335,21.2012609 86.2885245,21.9679815 84.2200354,21.9679815 C82.1512502,21.9679815 80.9347359,21.2012609 80.0217578,20.1985821 C78.4099058,18.4291826 78.4404075,15.3625873 78.4404075,11.23418 C78.4404075,7.10605984 78.4099058,4.03889037 80.0217578,2.26949096 C80.9347359,1.26709921 82.1512502,0.500091553 84.2200354,0.500091553 C86.2885245,0.500091553 87.505335,1.26709921 88.4180169,2.26949096 C90.0304612,4.03889037 89.9999595,7.10605984 89.9999595,11.23418 C89.9999595,15.3625873 90.0304612,18.4291826 88.4180169,20.1985821 Z M85.8626852,4.27484856 C85.5585566,3.80293217 85.0415084,3.47884847 84.2200354,3.47884847 C83.3985625,3.47884847 82.9120159,3.80293217 82.6075912,4.27484856 C81.9685362,5.27752736 81.8471216,7.400577 81.8471216,11.23418 C81.8471216,15.067496 81.9685362,17.1908327 82.6075912,18.1935115 C82.9120159,18.6651408 83.3985625,18.9897987 84.2200354,18.9897987 C85.0415084,18.9897987 85.5585566,18.6651408 85.8626852,18.1935115 C86.5014441,17.1908327 86.5929492,15.067496 86.5929492,11.23418 C86.5929492,7.400577 86.5014441,5.27752736 85.8626852,4.27484856 Z" id="Combined-Shape-Copy" fill="#FFFFFF"></path>
                    <path d="M15.425012,74.1268142 C15.2501533,74.0986354 15.0732157,74.0805207 14.8941938,74.0724696 C14.5153334,74.0724696 14.1853967,74.1549921 13.9043739,74.3200397 C13.6233511,74.4850873 13.3829241,74.7185658 13.1830857,75.0204821 L12.3525113,79.6639321 L11.2221808,79.6639321 L12.3962257,73.1304953 L13.4890868,73.124457 L13.3204739,73.8852824 C13.5328023,73.6155704 13.7763517,73.3981939 14.0511296,73.2331463 C14.3259074,73.0680987 14.6464768,72.9896017 15.0128472,72.9976528 C15.1086032,72.9976528 15.2001944,73.0067101 15.2876237,73.0248251 C15.375053,73.0429401 15.462481,73.0640739 15.5499104,73.0882272 L15.425012,74.1268142 Z M4.26843258,76.3790988 C4.30590229,76.0852336 4.3714733,75.7964046 4.46514757,75.5126033 C4.55882183,75.2288019 4.67851494,74.9611068 4.82423047,74.7095098 C4.969946,74.4579129 5.14167958,74.2264472 5.33943637,74.0151057 C5.53719316,73.8037643 5.75784479,73.6226172 6.00139789,73.4716591 C6.24495099,73.3207009 6.51139825,73.2039617 6.80074766,73.1214379 C7.09009707,73.0389141 7.40129914,73.0016783 7.7343632,73.0097294 C8.2089795,73.021806 8.61489524,73.1234497 8.95212261,73.3146633 C9.28934998,73.505877 9.55996047,73.7554574 9.76396221,74.0634121 C9.96796396,74.3713668 10.1084733,74.7215845 10.1854943,75.1140757 C10.2625154,75.5065669 10.2781275,75.9081096 10.2323312,76.3187159 L10.2198414,76.4575967 C10.1615552,76.9004073 10.0397804,77.3240902 9.85451355,77.7286581 C9.66924667,78.133226 9.42777884,78.4904883 9.13010283,78.8004557 C8.83242682,79.1104232 8.4827148,79.3549717 8.08095627,79.5341087 C7.67919773,79.7132458 7.23269042,79.7967747 6.74142092,79.784698 C6.27096792,79.7726214 5.86817461,79.6729905 5.53302889,79.4858024 C5.19788317,79.2986142 4.92831349,79.0520529 4.72431175,78.746111 C4.52031001,78.4401692 4.3787599,78.093977 4.29965718,77.707524 C4.22055447,77.3210711 4.20390151,76.9225476 4.24969782,76.5119413 L4.26843258,76.3790988 Z M5.38627327,76.5119413 C5.36545677,76.6810145 5.35608948,76.8561233 5.35817113,77.0372731 C5.36025278,77.2184229 5.37690573,77.3955445 5.40813049,77.5686432 C5.43935525,77.7417419 5.4882733,77.9057807 5.55488611,78.0607644 C5.62149892,78.2157481 5.70996774,78.3526148 5.82029521,78.4713686 C5.93062268,78.5901223 6.06592793,78.6857277 6.22621501,78.7581876 C6.3865021,78.8306476 6.57488863,78.8709025 6.79138028,78.8789536 C7.13693425,78.8910302 7.44293227,78.825616 7.70938352,78.6827089 C7.97583478,78.5398019 8.20377208,78.3516102 8.39320227,78.1181282 C8.58263245,77.8846462 8.73459066,77.621983 8.84908143,77.3301305 C8.9635722,77.0382781 9.04163292,76.7474364 9.08326593,76.4575967 L9.10200069,76.3247541 C9.12281719,76.155681 9.13218448,75.9795658 9.13010283,75.7964032 C9.12802118,75.6132406 9.11136823,75.4341063 9.08014347,75.2589948 C9.04891871,75.0838833 9.00000066,74.9168255 8.93338785,74.7578162 C8.86677504,74.5988069 8.77726541,74.4589211 8.66485629,74.3381546 C8.55244717,74.2173881 8.4150603,74.1197699 8.25269157,74.0452972 C8.09032283,73.9708245 7.90089549,73.9295632 7.68440384,73.9215121 C7.33468657,73.9094355 7.02764774,73.9768625 6.76327814,74.1237951 C6.49890853,74.2707277 6.27305285,74.4629449 6.08570431,74.7004524 C5.89835578,74.9379599 5.74847919,75.2046487 5.63607007,75.5005267 C5.52366095,75.7964047 5.44664104,76.0892591 5.40500803,76.3790988 L5.38627327,76.5119413 Z M0.0187347601,79.6639321 L1.04290165,73.9939717 L0,73.9939717 L0.156123001,73.1304953 L1.19277973,73.1304953 L1.29269845,72.4421295 C1.33849476,72.1120343 1.42592276,71.8111289 1.55498509,71.5394042 C1.68404741,71.2676795 1.85369938,71.0352074 2.06394607,70.8419809 C2.27419276,70.6487545 2.52086464,70.5008177 2.8039691,70.3981661 C3.08707355,70.2955146 3.40764291,70.2462023 3.76568678,70.2502279 C3.90307571,70.2502279 4.03838096,70.2602916 4.17160658,70.2804193 C4.30483221,70.3005471 4.43805584,70.3247 4.57128146,70.3528789 L4.43389322,71.2646617 C4.333974,71.2445339 4.23405628,71.228432 4.13413706,71.2163553 C4.03421784,71.2042787 3.9322185,71.1962277 3.82813598,71.1922021 C3.62829754,71.1922021 3.44927829,71.2223933 3.29107286,71.2827766 C3.13286743,71.3431598 2.99548056,71.4297079 2.87890814,71.5424233 C2.76233571,71.6551387 2.66554042,71.7879799 2.58851935,71.9409509 C2.51149829,72.0939218 2.458417,72.2609797 2.42927389,72.4421295 L2.32311025,73.1304953 L3.72197234,73.1304953 L3.56584934,73.9939717 L2.16698725,73.9939717 L1.14906529,79.6639321 L0.0187347601,79.6639321 Z" id="Combined-Shape-Copy-2" fill="#F5F5F5"></path>
                    <path d="M0.833333333,27.125 L19.9,27.125 L19.9,32.3262834 L13.3813956,32.3262834 L13.3813956,63.7916667 L7.2974706,63.7916667 L7.2974706,32.3262834 L0.833333333,32.3262834 L0.833333333,27.125 Z M37.1265561,63.7916667 L32.1667611,48.7543177 L28.8065817,48.7543177 L28.8065817,63.7916667 L22.8333333,63.7916667 L22.8333333,27.125 L32.4325849,27.125 C39.3663295,27.125 42.1398274,30.3690969 42.1398274,37.9396588 C42.1398274,42.4716687 41.1798503,45.7157655 37.7132376,47.5180416 L43.3666667,63.7916667 L37.1265561,63.7916667 Z M32.4865804,32.3262834 L28.8065817,32.3262834 L28.8065817,43.5530343 L32.4865804,43.5530343 C35.6863309,43.5530343 36.166579,40.978211 36.166579,37.9396588 C36.166579,34.9011067 35.6863309,32.3262834 32.4865804,32.3262834 Z M47.7666667,63.7916667 L47.7666667,27.125 L53.6333333,27.125 L53.6333333,63.7916667 L47.7666667,63.7916667 Z M67.4615554,49.4752281 L63.9323814,49.4752281 L63.9323814,63.7916667 L58.0333333,63.7916667 L58.0333333,27.125 L67.4615554,27.125 C74.2558436,27.125 77.1,30.5751429 77.1,38.2484772 C77.1,45.6641287 74.5722028,49.4752281 67.4615554,49.4752281 Z M67.5666667,32.3262834 L63.9323814,32.3262834 L63.9323814,44.2739447 L67.5666667,44.2739447 C70.7266695,44.2739447 71.200952,41.5442109 71.200952,38.3001141 C71.200952,35.0555159 70.7266695,32.3262834 67.5666667,32.3262834 Z M82.3903414,53.3450317 L82.3903414,27.125 L87.942482,27.125 L87.942482,53.3450317 L82.3903414,53.3450317 Z M85.1669216,63.7916667 C83.1236238,63.7916667 81.5,62.2043564 81.5,60.2067584 C81.5,58.209659 83.1236238,56.5710005 85.1669216,56.5710005 C87.2097096,56.5710005 88.8333333,58.209659 88.8333333,60.2067584 C88.8333333,62.2043564 87.2097096,63.7916667 85.1669216,63.7916667 Z" id="Combined-Shape-Copy-3" fill="#FFFFFF"></path>
                    <path d="M49.3304267,68.6715923 C49.3304267,68.3710178 49.4289567,68.1214374 49.6260196,67.9228435 C49.8230825,67.7242497 50.104795,67.6249542 50.4711654,67.6249542 C50.8375359,67.6249542 51.1206361,67.7242497 51.3204746,67.9228435 C51.520313,68.1214374 51.6202307,68.3710178 51.6202307,68.6715923 C51.6202307,68.9667994 51.520313,69.2123543 51.3204746,69.4082645 C51.1206361,69.6041746 50.8375359,69.7021282 50.4711654,69.7021282 C50.104795,69.7021282 49.8230825,69.6041746 49.6260196,69.4082645 C49.4289567,69.2123543 49.3304267,68.9667994 49.3304267,68.6715923 Z M20,79.6451898 L20,67.9228435 L24.1549535,67.9228435 C24.8099795,67.9228435 25.3983838,67.9859095 25.9201842,68.1120435 C26.4419846,68.2381774 26.8832878,68.4300591 27.2441072,68.6876944 C27.6049266,68.9453297 27.8810881,69.2740781 28.0726,69.6739495 C28.2641118,70.0738209 28.3598663,70.547487 28.3598663,71.0949619 C28.3598663,71.6317021 28.2099897,72.114761 27.910232,72.5441531 C27.6104744,72.9735452 27.1719466,73.3063191 26.5946356,73.5424848 C26.9443528,73.6337306 27.2482692,73.7665718 27.5063939,73.9410124 C27.7645185,74.1154529 27.9782314,74.3207529 28.147539,74.5569186 C28.3168466,74.7930843 28.4431315,75.0533993 28.5263975,75.3378716 C28.6096635,75.6223439 28.6512959,75.9175466 28.6512959,76.2234884 C28.6512959,76.7870656 28.5555414,77.282201 28.3640296,77.7089094 C28.1725177,78.1356178 27.8949685,78.4925447 27.5313736,78.7797006 C27.1677786,79.0668566 26.7264754,79.2828913 26.2074505,79.4278111 C25.6884257,79.572731 25.1014091,79.6451898 24.4463831,79.6451898 L20,79.6451898 Z M22.1066197,74.3556421 L22.1066197,78.0188753 L24.4463831,78.0188753 C24.7905493,78.0188753 25.0944657,77.9759367 25.3581414,77.8900583 C25.6218171,77.8041799 25.8424687,77.6820733 26.0201029,77.523735 C26.1977371,77.3653966 26.3309607,77.1761986 26.4197778,76.9561351 C26.5085949,76.7360716 26.5530028,76.4918585 26.5530028,76.2234884 C26.5530028,75.6438091 26.3947997,75.1875868 26.0783888,74.8548079 C25.761978,74.522029 25.2485119,74.3556421 24.5379752,74.3556421 L22.1066197,74.3556421 Z M22.1066197,72.8581445 L24.1716066,72.8581445 C24.8266326,72.8581445 25.3387109,72.7145687 25.7078569,72.4274127 C26.0770029,72.1402567 26.2615732,71.7336822 26.2615732,71.2076768 C26.2615732,70.6279975 26.0908804,70.2093464 25.7494897,69.9517111 C25.408099,69.6940759 24.8765923,69.5652602 24.1549535,69.5652602 L22.1066197,69.5652602 L22.1066197,72.8581445 Z M36.1827091,78.7917772 C35.8996046,79.1138213 35.5498926,79.3634017 35.1335625,79.540526 C34.7172324,79.7176502 34.2231948,79.806211 33.6514348,79.806211 C33.2073494,79.806211 32.8035153,79.7458287 32.4399204,79.6250621 C32.0763254,79.5042956 31.7640825,79.3137557 31.5031824,79.0534367 C31.2422822,78.7931178 31.0396712,78.4576602 30.8953435,78.047054 C30.7510157,77.6364478 30.6788529,77.1439961 30.6788529,76.5696841 L30.6788529,70.9339407 L32.702207,70.9339407 L32.702207,76.5857862 C32.702207,76.9024629 32.7410639,77.1641198 32.8187788,77.3707648 C32.8964938,77.5774097 33.0005747,77.7437967 33.1310248,77.8699306 C33.2614749,77.9960646 33.4127393,78.0846254 33.5848224,78.1356157 C33.7569055,78.186606 33.9373125,78.2121008 34.1260488,78.2121008 C34.6478491,78.2121008 35.069724,78.1208563 35.3916859,77.9383647 C35.7136478,77.755873 35.9551157,77.5062926 36.1160966,77.1896159 L36.1160966,70.9339407 L38.1394507,70.9339407 L38.1394507,79.6451898 L36.2326685,79.6451898 L36.1827091,78.7917772 Z M45.4127406,77.2781776 C45.4127406,77.1386251 45.3891489,77.0084676 45.3419648,76.8877011 C45.2947807,76.7669345 45.2018017,76.6542208 45.063025,76.5495565 C44.9242483,76.4448921 44.7285761,76.3469385 44.4760026,76.2556927 C44.223429,76.1644469 43.8945331,76.0785697 43.4893052,75.9980587 C43.0063623,75.9014455 42.5664468,75.7806808 42.1695454,75.6357609 C41.7726441,75.4908411 41.4326463,75.3150613 41.1495418,75.1084164 C40.8664374,74.9017714 40.6457857,74.6589001 40.4875803,74.3797952 C40.3293749,74.1006904 40.2502733,73.7786511 40.2502733,73.4136678 C40.2502733,73.0594193 40.3307626,72.7226199 40.4917436,72.4032595 C40.6527245,72.0838991 40.8844781,71.8034566 41.1870113,71.5619235 C41.4895445,71.3203905 41.8559095,71.1285088 42.2861173,70.9862726 C42.716325,70.8440365 43.1978729,70.7729195 43.7307754,70.7729195 C44.2914333,70.7729195 44.7951851,70.8440365 45.2420461,70.9862726 C45.688907,71.1285088 46.0677617,71.324416 46.3786215,71.5740001 C46.6894813,71.8235843 46.9267859,72.1174451 47.0905424,72.4555914 C47.2542989,72.7937377 47.3361759,73.1587156 47.3361759,73.5505359 L45.3128218,73.5505359 C45.3128218,73.3841464 45.2795159,73.221785 45.2129031,73.0634466 C45.1462903,72.9051083 45.0463726,72.7642161 44.913147,72.6407659 C44.7799213,72.5173156 44.6147795,72.419362 44.4177166,72.3469021 C44.2206537,72.2744422 43.9916756,72.2382128 43.7307754,72.2382128 C43.4754263,72.2382128 43.2533869,72.2690748 43.0646506,72.3308 C42.8759143,72.3925251 42.719099,72.4730349 42.5942,72.5723318 C42.469301,72.6716288 42.376322,72.7870262 42.3152602,72.9185275 C42.2541985,73.0500288 42.2236681,73.1882373 42.2236681,73.3331572 C42.2236681,73.478077 42.251423,73.6068927 42.3069337,73.7196082 C42.3624443,73.8323236 42.4609743,73.9343027 42.6025265,74.0255485 C42.7440788,74.1167943 42.9342,74.2013297 43.1728959,74.279157 C43.4115918,74.3569843 43.711345,74.4334686 44.0721644,74.5086122 C44.5939648,74.6159603 45.0616352,74.7420923 45.4751898,74.8870122 C45.8887443,75.031932 46.2384563,75.2090536 46.5243363,75.4183822 C46.8102163,75.6277109 47.0280925,75.8746077 47.1779713,76.15908 C47.3278501,76.4435522 47.4027884,76.7816935 47.4027884,77.1735138 C47.4027884,77.5599667 47.3167482,77.9142099 47.1446651,78.236254 C46.9725819,78.558298 46.7269509,78.8360569 46.4077645,79.0695389 C46.0885781,79.3030208 45.7041724,79.4841679 45.2545359,79.6129856 C44.8048994,79.7418032 44.3053108,79.806211 43.7557551,79.806211 C43.1395866,79.806211 42.5942024,79.7216757 42.1195861,79.5526026 C41.6449698,79.3835294 41.2466866,79.1621274 40.9247247,78.88839 C40.6027628,78.6146525 40.3599072,78.3046897 40.1961507,77.9584923 C40.0323942,77.6122949 39.9505172,77.2593936 39.9505172,76.8997777 L41.9155853,76.8997777 C41.9322385,77.1681477 41.9960749,77.3935752 42.1070962,77.5760669 C42.2181176,77.7585585 42.3596677,77.9061598 42.5317508,78.0188753 C42.7038339,78.1315907 42.8981183,78.2134424 43.11461,78.2644327 C43.3311016,78.315423 43.553141,78.3409178 43.7807348,78.3409178 C44.3136373,78.3409178 44.7188592,78.2429641 44.9964126,78.047054 C45.2739659,77.8511438 45.4127406,77.5948543 45.4127406,77.2781776 Z M51.4786792,79.6451898 L49.4553251,79.6451898 L49.4553251,70.9339407 L51.4786792,70.9339407 L51.4786792,79.6451898 Z M55.7211012,70.9339407 L55.7793871,71.9403235 C56.095798,71.5699728 56.4760404,71.2828211 56.9201258,71.0788598 C57.3642113,70.8748986 57.8582489,70.7729195 58.4022535,70.7729195 C58.8352368,70.7729195 59.227969,70.8306182 59.5804618,70.9460173 C59.9329546,71.0614164 60.2340955,71.2479308 60.4838935,71.5055661 C60.7336916,71.7632014 60.9265883,72.0986589 61.0625895,72.5119489 C61.1985906,72.9252388 61.2665902,73.4270833 61.2665902,74.0174975 L61.2665902,79.6451898 L59.2432361,79.6451898 L59.2432361,74.0013953 C59.2432361,73.7008208 59.2085424,73.4472149 59.1391541,73.24057 C59.0697658,73.033925 58.9684603,72.8661962 58.8352347,72.7373786 C58.702009,72.608561 58.5368672,72.5159747 58.3398043,72.459617 C58.1427414,72.4032592 57.9165388,72.3750808 57.6611897,72.3750808 C57.2448596,72.3750808 56.8826579,72.4716926 56.5745736,72.664919 C56.2664893,72.8581455 56.0208583,73.1184606 55.837673,73.4458721 L55.837673,79.6451898 L53.8143189,79.6451898 L53.8143189,70.9339407 L55.7211012,70.9339407 Z M67.4574272,79.806211 C66.7912991,79.806211 66.1917928,79.6988646 65.6588903,79.4841686 C65.1259878,79.2694725 64.6735825,78.9742698 64.301661,78.5985517 C63.9297394,78.2228336 63.6438637,77.777346 63.4440253,77.2620754 C63.2441869,76.7468049 63.1442691,76.1912872 63.1442691,75.5955056 L63.1442691,75.2734631 C63.1442691,74.5864357 63.2497378,73.9651683 63.4606784,73.4096423 C63.671619,72.8541162 63.9602702,72.381792 64.3266407,71.9926554 C64.6930111,71.6035188 65.1246002,71.3029488 65.6214207,71.0909364 C66.1182413,70.8789241 66.6525236,70.7729195 67.2242836,70.7729195 C67.8793096,70.7729195 68.4482855,70.8789241 68.9312284,71.0909364 C69.4141713,71.3029488 69.8138421,71.5994933 70.130253,71.9805788 C70.4466639,72.3616643 70.6825807,72.8152029 70.8380106,73.3412082 C70.9934405,73.8672136 71.0711543,74.4442006 71.0711543,75.0721866 L71.0711543,75.909497 L65.1842763,75.909497 C65.2120317,76.2476433 65.2855822,76.5589479 65.4049302,76.8434202 C65.5242781,77.1278925 65.6866444,77.3734474 65.8920339,77.5800924 C66.0974235,77.7867374 66.340279,77.9490988 66.620608,78.0671816 C66.9009369,78.1852645 67.2187307,78.244305 67.5739991,78.244305 C68.0735952,78.244305 68.5079597,78.1476932 68.8771057,77.9544668 C69.2462517,77.7612403 69.5668211,77.4955579 69.8388234,77.1574116 L70.9296028,78.1637944 C70.785275,78.3731231 70.6062558,78.5757394 70.3925397,78.7716496 C70.1788235,78.9675597 69.9290292,79.1419977 69.6431492,79.2949686 C69.3572693,79.4479395 69.0339244,79.5713879 68.673105,79.6653175 C68.3122856,79.759247 67.9070637,79.806211 67.4574272,79.806211 Z M67.215957,72.3428766 C66.6608502,72.3428766 66.2126082,72.5307328 65.8712175,72.9064509 C65.5298269,73.282169 65.3119507,73.8054828 65.2175826,74.476408 L69.0727799,74.476408 L69.0727799,74.3314889 C69.0561267,74.0738536 69.0131065,73.825615 68.9437182,73.5867656 C68.8743299,73.3479163 68.7674734,73.1359071 68.6231456,72.9507317 C68.4788179,72.7655564 68.2914722,72.6179551 68.0611028,72.5079233 C67.8307335,72.3978916 67.5490211,72.3428766 67.215957,72.3428766 Z M77.8531771,77.2781776 C77.8531771,77.1386251 77.8295854,77.0084676 77.7824013,76.8877011 C77.7352173,76.7669345 77.6422383,76.6542208 77.5034616,76.5495565 C77.3646849,76.4448921 77.1690127,76.3469385 76.9164391,76.2556927 C76.6638655,76.1644469 76.3349697,76.0785697 75.9297417,75.9980587 C75.4467988,75.9014455 75.0068833,75.7806808 74.609982,75.6357609 C74.2130806,75.4908411 73.8730828,75.3150613 73.5899784,75.1084164 C73.3068739,74.9017714 73.0862223,74.6589001 72.9280168,74.3797952 C72.7698114,74.1006904 72.6907099,73.7786511 72.6907099,73.4136678 C72.6907099,73.0594193 72.7711991,72.7226199 72.9321801,72.4032595 C73.0931611,72.0838991 73.3249147,71.8034566 73.6274479,71.5619235 C73.9299811,71.3203905 74.2963461,71.1285088 74.7265538,70.9862726 C75.1567616,70.8440365 75.6383095,70.7729195 76.171212,70.7729195 C76.7318698,70.7729195 77.2356217,70.8440365 77.6824826,70.9862726 C78.1293436,71.1285088 78.5081983,71.324416 78.8190581,71.5740001 C79.1299179,71.8235843 79.3672225,72.1174451 79.530979,72.4555914 C79.6947355,72.7937377 79.7766125,73.1587156 79.7766125,73.5505359 L77.7532584,73.5505359 C77.7532584,73.3841464 77.7199525,73.221785 77.6533397,73.0634466 C77.5867268,72.9051083 77.4868091,72.7642161 77.3535835,72.6407659 C77.2203579,72.5173156 77.0552161,72.419362 76.8581532,72.3469021 C76.6610903,72.2744422 76.4321122,72.2382128 76.171212,72.2382128 C75.9158629,72.2382128 75.6938235,72.2690748 75.5050872,72.3308 C75.3163509,72.3925251 75.1595356,72.4730349 75.0346365,72.5723318 C74.9097375,72.6716288 74.8167585,72.7870262 74.7556968,72.9185275 C74.694635,73.0500288 74.6641046,73.1882373 74.6641046,73.3331572 C74.6641046,73.478077 74.6918595,73.6068927 74.7473702,73.7196082 C74.8028809,73.8323236 74.9014109,73.9343027 75.0429631,74.0255485 C75.1845153,74.1167943 75.3746365,74.2013297 75.6133325,74.279157 C75.8520284,74.3569843 76.1517815,74.4334686 76.5126009,74.5086122 C77.0344013,74.6159603 77.5020718,74.7420923 77.9156263,74.8870122 C78.3291809,75.031932 78.6788929,75.2090536 78.9647729,75.4183822 C79.2506529,75.6277109 79.468529,75.8746077 79.6184078,76.15908 C79.7682867,76.4435522 79.843225,76.7816935 79.843225,77.1735138 C79.843225,77.5599667 79.7571847,77.9142099 79.5851016,78.236254 C79.4130185,78.558298 79.1673874,78.8360569 78.848201,79.0695389 C78.5290146,79.3030208 78.144609,79.4841679 77.6949725,79.6129856 C77.245336,79.7418032 76.7457474,79.806211 76.1961917,79.806211 C75.5800231,79.806211 75.0346389,79.7216757 74.5600226,79.5526026 C74.0854063,79.3835294 73.6871232,79.1621274 73.3651612,78.88839 C73.0431993,78.6146525 72.8003437,78.3046897 72.6365872,77.9584923 C72.4728307,77.6122949 72.3909537,77.2593936 72.3909537,76.8997777 L74.3560219,76.8997777 C74.3726751,77.1681477 74.4365114,77.3935752 74.5475328,77.5760669 C74.6585541,77.7585585 74.8001042,77.9061598 74.9721873,78.0188753 C75.1442704,78.1315907 75.3385549,78.2134424 75.5550465,78.2644327 C75.7715382,78.315423 75.9935776,78.3409178 76.2211713,78.3409178 C76.7540738,78.3409178 77.1592957,78.2429641 77.4368491,78.047054 C77.7144025,77.8511438 77.8531771,77.5948543 77.8531771,77.2781776 Z M86.8167586,77.2781776 C86.8167586,77.1386251 86.793167,77.0084676 86.7459829,76.8877011 C86.6987988,76.7669345 86.6058198,76.6542208 86.4670431,76.5495565 C86.3282664,76.4448921 86.1325942,76.3469385 85.8800206,76.2556927 C85.6274471,76.1644469 85.2985512,76.0785697 84.8933233,75.9980587 C84.4103804,75.9014455 83.9704649,75.7806808 83.5735635,75.6357609 C83.1766622,75.4908411 82.8366644,75.3150613 82.5535599,75.1084164 C82.2704554,74.9017714 82.0498038,74.6589001 81.8915984,74.3797952 C81.7333929,74.1006904 81.6542914,73.7786511 81.6542914,73.4136678 C81.6542914,73.0594193 81.7347807,72.7226199 81.8957617,72.4032595 C82.0567426,72.0838991 82.2884962,71.8034566 82.5910294,71.5619235 C82.8935626,71.3203905 83.2599276,71.1285088 83.6901353,70.9862726 C84.1203431,70.8440365 84.601891,70.7729195 85.1347935,70.7729195 C85.6954514,70.7729195 86.1992032,70.8440365 86.6460642,70.9862726 C87.0929251,71.1285088 87.4717798,71.324416 87.7826396,71.5740001 C88.0934994,71.8235843 88.330804,72.1174451 88.4945605,72.4555914 C88.658317,72.7937377 88.740194,73.1587156 88.740194,73.5505359 L86.7168399,73.5505359 C86.7168399,73.3841464 86.683534,73.221785 86.6169212,73.0634466 C86.5503084,72.9051083 86.4503907,72.7642161 86.317165,72.6407659 C86.1839394,72.5173156 86.0187976,72.419362 85.8217347,72.3469021 C85.6246718,72.2744422 85.3956937,72.2382128 85.1347935,72.2382128 C84.8794444,72.2382128 84.657405,72.2690748 84.4686687,72.3308 C84.2799324,72.3925251 84.1231171,72.4730349 83.9982181,72.5723318 C83.873319,72.6716288 83.7803401,72.7870262 83.7192783,72.9185275 C83.6582166,73.0500288 83.6276861,73.1882373 83.6276861,73.3331572 C83.6276861,73.478077 83.6554411,73.6068927 83.7109517,73.7196082 C83.7664624,73.8323236 83.8649924,73.9343027 84.0065446,74.0255485 C84.1480969,74.1167943 84.3382181,74.2013297 84.576914,74.279157 C84.8156099,74.3569843 85.1153631,74.4334686 85.4761825,74.5086122 C85.9979828,74.6159603 86.4656533,74.7420923 86.8792078,74.8870122 C87.2927624,75.031932 87.6424744,75.2090536 87.9283544,75.4183822 C88.2142344,75.6277109 88.4321105,75.8746077 88.5819894,76.15908 C88.7318682,76.4435522 88.8068065,76.7816935 88.8068065,77.1735138 C88.8068065,77.5599667 88.7207662,77.9142099 88.5486831,78.236254 C88.3766,78.558298 88.130969,78.8360569 87.8117826,79.0695389 C87.4925962,79.3030208 87.1081905,79.4841679 86.658554,79.6129856 C86.2089175,79.7418032 85.7093289,79.806211 85.1597732,79.806211 C84.5436047,79.806211 83.9982204,79.7216757 83.5236041,79.5526026 C83.0489878,79.3835294 82.6507047,79.1621274 82.3287428,78.88839 C82.0067808,78.6146525 81.7639253,78.3046897 81.6001688,77.9584923 C81.4364123,77.6122949 81.3545353,77.2593936 81.3545353,76.8997777 L83.3196034,76.8997777 C83.3362566,77.1681477 83.4000929,77.3935752 83.5111143,77.5760669 C83.6221357,77.7585585 83.7636858,77.9061598 83.9357689,78.0188753 C84.107852,78.1315907 84.3021364,78.2134424 84.5186281,78.2644327 C84.7351197,78.315423 84.9571591,78.3409178 85.1847529,78.3409178 C85.7176554,78.3409178 86.1228773,78.2429641 86.4004306,78.047054 C86.677984,77.8511438 86.8167586,77.5948543 86.8167586,77.2781776 Z" id="Combined-Shape-Copy-4" fill="#FFFFFF"></path>
                </g>
            </g>
        </g>
    </g>
</svg>