<?xml version="1.0" encoding="UTF-8"?>
<svg width="120px" height="106px" viewBox="0 0 120 106" version="1.1" xmlns="http://www.w3.org/2000/svg" xmlns:xlink="http://www.w3.org/1999/xlink">
    <!-- Generator: Sketch 42 (36781) - http://www.bohemiancoding.com/sketch -->
    <title>Group 7 Copy</title>
    <desc>Created with Sketch.</desc>
    <defs></defs>
    <g id="Page-1" stroke="none" stroke-width="1" fill="none" fill-rule="evenodd">
        <g id="b2b_logo" transform="translate(-396.000000, -465.000000)">
            <g id="Group-7-Copy" transform="translate(396.000000, 463.000000)">
                <path d="M13.3039824,28.2647445 C12.0867096,29.6020502 10.4647321,30.6239753 7.70602795,30.6239753 C4.9485083,30.6239753 3.32613599,29.6020502 2.10886321,28.2647445 C-0.0410071284,25.9058965 5.55925279e-05,21.8162825 5.55925279e-05,16.3120487 C5.55925279e-05,10.8074321 -0.0410071284,6.71820084 2.10886321,4.35897008 C3.32613599,3.02242988 4.9485083,2.00012207 7.70602795,2.00012207 C10.4647321,2.00012207 12.0867096,3.02242988 13.3039824,4.35897008 C15.4534579,6.71820084 15.41279,10.8074321 15.41279,16.3120487 C15.41279,21.8162825 15.4534579,25.9058965 13.3039824,28.2647445 Z M9.89656618,7.03319871 C9.49067698,6.4035857 8.80129707,5.97146832 7.70602795,5.97146832 C6.61115367,5.97146832 5.96283648,6.4035857 5.55655244,7.03319871 C4.70450098,8.36973891 4.5426191,11.2005096 4.5426191,16.3120487 C4.5426191,21.4235877 4.70450098,24.2543584 5.55655244,25.5908986 C5.96283648,26.2205116 6.61115367,26.6530118 7.70602795,26.6530118 C8.80129707,26.6530118 9.49067698,26.2205116 9.89656618,25.5908986 C10.7482228,24.2543584 10.8706213,21.4235877 10.8706213,16.3120487 C10.8706213,11.2005096 10.7482228,8.36973891 9.89656618,7.03319871 Z M30.1024316,30.0229358 L23.2700929,13.671209 L23.2700929,30.0229358 L18.7155963,30.0229358 L18.7155963,2.5 L22.781588,2.5 L29.5735479,18.8513505 L29.5735479,2.5 L34.1284404,2.5 L34.1284404,30.0229358 L30.1024316,30.0229358 Z M37.4311927,30.0229358 L37.4311927,2.5 L49.5412844,2.5 L49.5412844,6.40410931 L41.966908,6.40410931 L41.966908,14.2127042 L48.4881815,14.2127042 L48.4881815,18.1168135 L41.966908,18.1168135 L41.966908,26.1192028 L49.5412844,26.1192028 L49.5412844,30.0229358 L37.4311927,30.0229358 Z M68.3190254,6.40405593 L68.3190254,30.0229358 L63.7520057,30.0229358 L63.7520057,6.40405593 L58.8999939,6.40405593 L58.8999939,2.5 L73.2119205,2.5 L73.2119205,6.40405593 L68.3190254,6.40405593 Z M98.0539226,30.0229358 L93.309921,30.0229358 L89.1745093,9.11036631 L85.0797492,30.0229358 L80.3361422,30.0229358 L74.8623853,2.5 L79.8495071,2.5 L82.6876199,23.3745637 L86.6612146,2.5 L91.6885933,2.5 L95.7024449,23.3745637 L98.4995114,2.5 L103.486239,2.5 L98.0539226,30.0229358 Z M117.890689,28.2647761 C116.67378,29.6016811 115.051366,30.6239753 112.293381,30.6239753 C109.535,30.6239753 107.912981,29.6016811 106.695677,28.2647761 C104.546541,25.9055769 104.58721,21.816783 104.58721,16.31224 C104.58721,10.8080798 104.546541,6.71852049 106.695677,4.35932128 C107.912981,3.02279895 109.535,2.00012207 112.293381,2.00012207 C115.051366,2.00012207 116.67378,3.02279895 117.890689,4.35932128 C120.040615,6.71852049 119.999946,10.8080798 119.999946,16.31224 C119.999946,21.816783 120.040615,25.9055769 117.890689,28.2647761 Z M114.48358,7.03313141 C114.078076,6.40390956 113.388678,5.97179796 112.293381,5.97179796 C111.198083,5.97179796 110.549355,6.40390956 110.143455,7.03313141 C109.291382,8.37003648 109.129496,11.2007693 109.129496,16.31224 C109.129496,21.423328 109.291382,24.2544436 110.143455,25.5913487 C110.549355,26.2201878 111.198083,26.6530649 112.293381,26.6530649 C113.388678,26.6530649 114.078076,26.2201878 114.48358,25.5913487 C115.335259,24.2544436 115.457266,21.423328 115.457266,16.31224 C115.457266,11.2007693 115.335259,8.37003648 114.48358,7.03313141 Z" id="Combined-Shape-Copy" fill="#616161"></path>
                <path d="M20.5666826,100.169086 C20.3335378,100.131514 20.0976209,100.107361 19.858925,100.096626 C19.3537778,100.096626 18.9138623,100.206656 18.5391653,100.42672 C18.1644682,100.646783 17.8438988,100.958088 17.5774476,101.360643 L16.4700151,107.551909 L14.9629077,107.551909 L16.528301,98.8406604 L17.985449,98.8326093 L17.7606319,99.8470431 C18.0437363,99.4874272 18.3684689,99.1975919 18.7348394,98.9775285 C19.1012099,98.757465 19.5286357,98.6528022 20.0171297,98.663537 C20.1448042,98.663537 20.2669259,98.6756135 20.3834983,98.6997668 C20.5000707,98.7239201 20.6166414,98.7520986 20.7332138,98.784303 L20.5666826,100.169086 Z M5.69124345,103.172132 C5.74120306,102.780311 5.82863106,102.395206 5.95353009,102.016804 C6.07842911,101.638403 6.23801992,101.281476 6.43230729,100.946013 C6.62659466,100.610551 6.85557277,100.30193 7.11924849,100.020141 C7.38292421,99.7383524 7.67712639,99.496823 8.00186386,99.2955454 C8.32660132,99.0942678 8.68186433,98.9386155 9.06766354,98.8285838 C9.45346276,98.7185521 9.86839885,98.6689044 10.3124843,98.6796392 C10.945306,98.6957414 11.486527,98.8312662 11.9361635,99.0862178 C12.3858,99.3411694 12.746614,99.6739433 13.0186163,100.084549 C13.2906186,100.495156 13.4779643,100.962113 13.5806591,101.485434 C13.6833538,102.008756 13.70417,102.544146 13.6431083,103.091621 L13.6264552,103.276796 C13.5487402,103.86721 13.3863739,104.43212 13.1393514,104.971544 C12.8923289,105.510968 12.5703718,105.987318 12.1734704,106.400608 C11.7765691,106.813898 11.3102864,107.139962 10.7746084,107.378812 C10.2389303,107.617661 9.64358722,107.729033 8.98856122,107.712931 C8.36129056,107.696829 7.82423281,107.563987 7.37737185,107.314403 C6.9305109,107.064819 6.57108465,106.736071 6.29908233,106.328148 C6.02708001,105.920226 5.83834653,105.458636 5.73287625,104.943365 C5.62740596,104.428095 5.60520202,103.89673 5.66626377,103.349255 L5.69124345,103.172132 Z M7.18169769,103.349255 C7.15394235,103.574686 7.14145264,103.808164 7.14422817,104.049698 C7.14700371,104.291231 7.16920765,104.527393 7.21084065,104.758191 C7.25247366,104.988989 7.31769773,105.207708 7.40651482,105.414353 C7.4953319,105.620997 7.61329032,105.803486 7.76039362,105.961825 C7.90749691,106.120163 8.08790391,106.247637 8.30162002,106.34425 C8.51533613,106.440863 8.76651818,106.494537 9.0551737,106.505271 C9.51591233,106.521374 9.92390969,106.434155 10.279178,106.243612 C10.6344464,106.053069 10.9383628,105.802147 11.1909364,105.490838 C11.4435099,105.179528 11.6461209,104.829311 11.7987752,104.440174 C11.9514296,104.051037 12.0555106,103.663248 12.1110212,103.276796 L12.1360009,103.099672 C12.1637563,102.874241 12.176246,102.639421 12.1734704,102.395204 C12.1706949,102.150988 12.148491,101.912142 12.106858,101.67866 C12.065225,101.445178 12.0000009,101.222434 11.9111838,101.010422 C11.8223667,100.798409 11.7030205,100.611895 11.5531417,100.450873 C11.4032629,100.289851 11.2200804,100.159693 11.0035888,100.060396 C10.7870971,99.9610994 10.5345273,99.9060843 10.2458718,99.8953495 C9.7795821,99.8792473 9.37019699,99.9691499 9.01770418,100.16506 C8.66521138,100.36097 8.36407047,100.61726 8.11427242,100.933937 C7.86447437,101.250613 7.66463893,101.606198 7.5147601,102.000702 C7.36488127,102.395206 7.26218805,102.785679 7.20667737,103.172132 L7.18169769,103.349255 Z M0.0249796801,107.551909 L1.39053553,99.9919623 L0,99.9919623 L0.208164001,98.8406604 L1.59037297,98.8406604 L1.72359793,97.9228393 C1.78465968,97.4827124 1.90123035,97.0815052 2.07331345,96.7192056 C2.24539655,96.356906 2.47159917,96.0469432 2.75192809,95.7893079 C3.03225702,95.5316726 3.36115285,95.3344236 3.73862546,95.1975548 C4.11609807,95.0606861 4.54352388,94.9949364 5.02091571,95.0003038 C5.20410094,95.0003038 5.38450794,95.0137221 5.56214211,95.0405591 C5.73977628,95.0673961 5.91740778,95.0996001 6.09504195,95.1371719 L5.91185763,96.3528822 C5.77863201,96.3260452 5.64540838,96.3045759 5.51218275,96.2884737 C5.37895712,96.2723715 5.242958,96.2616369 5.10418131,96.2562695 C4.83773005,96.2562695 4.59903772,96.2965244 4.38809714,96.3770354 C4.17715657,96.4575464 3.99397408,96.5729438 3.83854418,96.7232311 C3.68311428,96.8735183 3.55405389,97.0506399 3.45135914,97.2546012 C3.34866438,97.4585624 3.27788933,97.6813063 3.23903186,97.9228393 L3.09748034,98.8406604 L4.96262979,98.8406604 L4.75446579,99.9919623 L2.88931634,99.9919623 L1.53208705,107.551909 L0.0249796801,107.551909 Z" id="Combined-Shape-Copy-2" fill="#808080"></path>
                <path d="M1.11111111,37.5 L26.5333333,37.5 L26.5333333,44.4350445 L17.8418608,44.4350445 L17.8418608,86.3888889 L9.7299608,86.3888889 L9.7299608,44.4350445 L1.11111111,44.4350445 L1.11111111,37.5 Z M49.5020748,86.3888889 L42.8890148,66.3390903 L38.4087756,66.3390903 L38.4087756,86.3888889 L30.4444444,86.3888889 L30.4444444,37.5 L43.2434465,37.5 C52.4884394,37.5 56.1864365,41.8254625 56.1864365,51.9195451 C56.1864365,57.9622249 54.9064671,62.2876874 50.2843168,64.6907221 L57.8222222,86.3888889 L49.5020748,86.3888889 Z M43.3154405,44.4350445 L38.4087756,44.4350445 L38.4087756,59.4040457 L43.3154405,59.4040457 C47.5817745,59.4040457 48.2221053,55.970948 48.2221053,51.9195451 C48.2221053,47.8681422 47.5817745,44.4350445 43.3154405,44.4350445 Z M63.6888889,86.3888889 L63.6888889,37.5 L71.5111111,37.5 L71.5111111,86.3888889 L63.6888889,86.3888889 Z M89.9487406,67.3003041 L85.2431751,67.3003041 L85.2431751,86.3888889 L77.3777778,86.3888889 L77.3777778,37.5 L89.9487406,37.5 C99.0077915,37.5 102.8,42.1001905 102.8,52.331303 C102.8,62.2188383 99.4296037,67.3003041 89.9487406,67.3003041 Z M90.0888889,44.4350445 L85.2431751,44.4350445 L85.2431751,60.3652596 L90.0888889,60.3652596 C94.302226,60.3652596 94.9346026,56.7256145 94.9346026,52.4001521 C94.9346026,48.0740212 94.302226,44.4350445 90.0888889,44.4350445 Z M109.853789,72.4600423 L109.853789,37.5 L117.256643,37.5 L117.256643,72.4600423 L109.853789,72.4600423 Z M113.555896,86.3888889 C110.831498,86.3888889 108.666667,84.2724753 108.666667,81.6090113 C108.666667,78.9462119 110.831498,76.7613339 113.555896,76.7613339 C116.279613,76.7613339 118.444444,78.9462119 118.444444,81.6090113 C118.444444,84.2724753 116.279613,86.3888889 113.555896,86.3888889 Z" id="Combined-Shape-Copy-3" fill="#616161"></path>
                <path d="M65.7739023,92.8954564 C65.7739023,92.4946904 65.9052756,92.1619165 66.1680261,91.8971247 C66.4307767,91.6323329 66.8063933,91.499939 67.2948873,91.499939 C67.7833812,91.499939 68.1608482,91.6323329 68.4272994,91.8971247 C68.6937507,92.1619165 68.8269743,92.4946904 68.8269743,92.8954564 C68.8269743,93.2890658 68.6937507,93.6164724 68.4272994,93.8776859 C68.1608482,94.1388995 67.7833812,94.2695043 67.2948873,94.2695043 C66.8063933,94.2695043 66.4307767,94.1388995 66.1680261,93.8776859 C65.9052756,93.6164724 65.7739023,93.2890658 65.7739023,92.8954564 Z M26.6666667,107.52692 L26.6666667,91.8971247 L32.2066046,91.8971247 C33.0799726,91.8971247 33.8645118,91.9812127 34.5602456,92.1493913 C35.2559794,92.3175699 35.8443838,92.5734122 36.3254763,92.9169259 C36.8065689,93.2604396 37.1747842,93.6987708 37.4301333,94.2319327 C37.6854824,94.7650946 37.813155,95.3966493 37.813155,96.1266159 C37.813155,96.8422695 37.6133196,97.486348 37.2136427,98.0588708 C36.8139658,98.6313936 36.2292621,99.0750922 35.4595141,99.3899797 C35.9258038,99.5116408 36.3310256,99.6887624 36.6751918,99.9213498 C37.019358,100.153937 37.3043086,100.427671 37.530052,100.742558 C37.7557954,101.057446 37.9241753,101.404532 38.0351966,101.783829 C38.146218,102.163125 38.2017278,102.556729 38.2017278,102.964651 C38.2017278,103.716087 38.0740552,104.376268 37.8187061,104.945213 C37.563357,105.514157 37.1932913,105.99006 36.7084981,106.372934 C36.2237048,106.755809 35.6353005,107.043855 34.9432674,107.237082 C34.2512342,107.430308 33.4685454,107.52692 32.5951774,107.52692 L26.6666667,107.52692 Z M29.4754929,100.474189 L29.4754929,105.3585 L32.5951774,105.3585 C33.0540657,105.3585 33.4592876,105.301249 33.8108552,105.186744 C34.1624228,105.07224 34.456625,104.909431 34.6934706,104.698313 C34.9303161,104.487195 35.1079476,104.234931 35.2263704,103.941513 C35.3447932,103.648096 35.4040037,103.322478 35.4040037,102.964651 C35.4040037,102.191745 35.1930663,101.583449 34.7711851,101.139744 C34.349304,100.696039 33.6646825,100.474189 32.7173003,100.474189 L29.4754929,100.474189 Z M29.4754929,98.477526 L32.2288088,98.477526 C33.1021768,98.477526 33.7849479,98.2860916 34.2771425,97.9032169 C34.7693372,97.5203423 35.0154309,96.9782429 35.0154309,96.2769024 C35.0154309,95.5039966 34.7878405,94.9457952 34.3326529,94.6022815 C33.8774654,94.2587678 33.1687897,94.0870136 32.2066046,94.0870136 L29.4754929,94.0870136 L29.4754929,98.477526 Z M48.2436121,106.389036 C47.8661395,106.818428 47.3998568,107.151202 46.84475,107.387368 C46.2896433,107.623534 45.6309264,107.741615 44.8685798,107.741615 C44.2764659,107.741615 43.7380204,107.661105 43.2532271,107.500083 C42.7684339,107.339061 42.3521101,107.085008 42.0042431,106.737916 C41.6563762,106.390824 41.3862283,105.943547 41.1937913,105.396072 C41.0013543,104.848597 40.9051372,104.191995 40.9051372,103.426245 L40.9051372,95.9119209 L43.6029427,95.9119209 L43.6029427,103.447715 C43.6029427,103.869951 43.6547519,104.218826 43.7583718,104.494353 C43.8619917,104.76988 44.0007663,104.991729 44.1746998,105.159908 C44.3486332,105.328086 44.550319,105.446167 44.7797632,105.514154 C45.0092073,105.582141 45.24975,105.616134 45.5013984,105.616134 C46.1971322,105.616134 46.759632,105.494475 47.1889145,105.251153 C47.6181971,105.007831 47.9401542,104.675057 48.1547955,104.252821 L48.1547955,95.9119209 L50.8526009,95.9119209 L50.8526009,107.52692 L48.3102246,107.52692 L48.2436121,106.389036 Z M60.5503207,104.370903 C60.5503207,104.184834 60.5188652,104.01129 60.4559531,103.850268 C60.393041,103.689246 60.269069,103.538961 60.0840334,103.399409 C59.8989978,103.259856 59.6381015,103.129251 59.3013367,103.00759 C58.964572,102.885929 58.5260442,102.771426 57.9857403,102.664078 C57.3418164,102.535261 56.7552624,102.374241 56.2260606,102.181015 C55.6968588,101.987788 55.2435284,101.753415 54.8660558,101.477888 C54.4885831,101.202362 54.194381,100.878534 53.9834404,100.506394 C53.7724998,100.134254 53.6670311,99.7048681 53.6670311,99.2182237 C53.6670311,98.7458924 53.7743501,98.2968266 53.9889914,97.8710127 C54.2036327,97.4451988 54.5126375,97.0712755 54.9160151,96.7492314 C55.3193927,96.4271873 55.8078793,96.171345 56.3814897,95.9816968 C56.9551,95.7920486 57.5971639,95.697226 58.3077006,95.697226 C59.0552444,95.697226 59.7269135,95.7920486 60.3227281,95.9816968 C60.9185427,96.171345 61.4236823,96.4325546 61.838162,96.7653335 C62.2526418,97.0981124 62.5690479,97.4899268 62.7873899,97.9407886 C63.0057319,98.3916503 63.1149012,98.8782874 63.1149012,99.4007145 L60.4170958,99.4007145 C60.4170958,99.1788619 60.3726879,98.9623799 60.2838708,98.7512621 C60.1950537,98.5401444 60.0618301,98.3522881 59.8841959,98.1876878 C59.7065618,98.0230875 59.4863727,97.8924827 59.2236222,97.7958695 C58.9608716,97.6992562 58.6555675,97.6509503 58.3077006,97.6509503 C57.9672351,97.6509503 57.6711826,97.6920998 57.4195342,97.7744 C57.1678858,97.8567001 56.9587987,97.9640465 56.7922666,98.0964424 C56.6257346,98.2288383 56.5017626,98.3827015 56.420347,98.5580367 C56.3389313,98.7333718 56.2982241,98.9176498 56.2982241,99.1108762 C56.2982241,99.3041027 56.3352306,99.475857 56.4092449,99.6261442 C56.4832591,99.7764315 56.6146324,99.9124036 56.8033687,100.034065 C56.992105,100.155726 57.2456,100.26844 57.5638612,100.372209 C57.8821224,100.475979 58.2817933,100.577958 58.7628859,100.67815 C59.4586197,100.82128 60.0821803,100.989456 60.6335863,101.182683 C61.1849924,101.375909 61.6512751,101.612071 62.0324484,101.891176 C62.4136218,102.170281 62.7041233,102.499477 62.9039617,102.878773 C63.1038002,103.25807 63.2037179,103.708925 63.2037179,104.231352 C63.2037179,104.746622 63.0889975,105.218946 62.8595534,105.648339 C62.6301093,106.077731 62.3026012,106.448076 61.8770193,106.759385 C61.4514375,107.070694 60.9388965,107.312224 60.3393812,107.483981 C59.7398659,107.655738 59.0737478,107.741615 58.3410068,107.741615 C57.5194488,107.741615 56.7922698,107.628901 56.1594481,107.40347 C55.5266264,107.178039 54.9955822,106.882837 54.5662996,106.517853 C54.137017,106.15287 53.8132096,105.739586 53.5948676,105.27799 C53.3765256,104.816393 53.2673562,104.345858 53.2673562,103.86637 L55.8874471,103.86637 C55.9096514,104.224197 55.9947665,104.524767 56.142795,104.768089 C56.2908234,105.011411 56.4795569,105.208213 56.709001,105.3585 C56.9384452,105.508788 57.1974911,105.617923 57.4861467,105.68591 C57.7748022,105.753897 58.0708547,105.78789 58.3743131,105.78789 C59.0848497,105.78789 59.6251456,105.657286 59.9952167,105.396072 C60.3652879,105.134858 60.5503207,104.793139 60.5503207,104.370903 Z M68.6382389,107.52692 L65.9404335,107.52692 L65.9404335,95.9119209 L68.6382389,95.9119209 L68.6382389,107.52692 Z M74.2948016,95.9119209 L74.3725162,97.2537646 C74.7943973,96.7599637 75.3013872,96.3770948 75.8935011,96.1051464 C76.485615,95.8331981 77.1443319,95.697226 77.8696714,95.697226 C78.4469824,95.697226 78.9706253,95.7741576 79.4406157,95.9280231 C79.9106061,96.0818886 80.3121273,96.3305745 80.6451914,96.6740881 C80.9782555,97.0176018 81.2354511,97.4648786 81.416786,98.0159318 C81.5981208,98.566985 81.6887869,99.2361111 81.6887869,100.02333 L81.6887869,107.52692 L78.9909815,107.52692 L78.9909815,100.00186 C78.9909815,99.6010945 78.9447233,99.2629532 78.8522055,98.9874266 C78.7596877,98.7119 78.6246137,98.4882616 78.4469795,98.3165048 C78.2693454,98.144748 78.0491563,98.0212996 77.7864058,97.9461559 C77.5236552,97.8710123 77.2220517,97.8334411 76.8815863,97.8334411 C76.3264795,97.8334411 75.8435438,97.9622568 75.4327648,98.2198921 C75.0219858,98.4775273 74.6944777,98.8246141 74.4502307,99.2611627 L74.4502307,107.52692 L71.7524253,107.52692 L71.7524253,95.9119209 L74.2948016,95.9119209 Z M89.9432363,107.741615 C89.0550655,107.741615 88.2557237,107.598486 87.545187,107.312225 C86.8346503,107.025963 86.2314434,106.63236 85.735548,106.131402 C85.2396526,105.630445 84.858485,105.036461 84.5920337,104.349434 C84.3255825,103.662407 84.1923588,102.921716 84.1923588,102.127341 L84.1923588,101.697951 C84.1923588,100.781914 84.3329838,99.9535578 84.6142379,99.2128564 C84.895492,98.472155 85.2803602,97.8423893 85.7688542,97.3235405 C86.2573482,96.8046917 86.8328002,96.4039317 87.4952277,96.1212486 C88.1576551,95.8385654 88.8700314,95.697226 89.6323781,95.697226 C90.5057461,95.697226 91.2643806,95.8385654 91.9083045,96.1212486 C92.5522283,96.4039317 93.0851229,96.7993244 93.507004,97.3074384 C93.9288852,97.8155524 94.243441,98.4202705 94.4506808,99.121611 C94.6579207,99.8229515 94.7615391,100.592267 94.7615391,101.429582 L94.7615391,102.545996 L86.9123685,102.545996 C86.9493756,102.996858 87.047443,103.411931 87.2065736,103.791227 C87.3657042,104.170523 87.5821926,104.49793 87.8560453,104.773457 C88.1298979,105.048983 88.4537054,105.265465 88.8274773,105.422909 C89.2012492,105.580353 89.6249743,105.659073 90.0986654,105.659073 C90.7647936,105.659073 91.3439463,105.530258 91.836141,105.272622 C92.3283356,105.014987 92.7557614,104.660744 93.1184312,104.209882 L94.5728037,105.551726 C94.3803667,105.830831 94.1416743,106.100986 93.8567195,106.362199 C93.5717647,106.623413 93.2387056,106.855997 92.8575323,107.059958 C92.476359,107.263919 92.0452325,107.428517 91.56414,107.553757 C91.0830475,107.678996 90.5427516,107.741615 89.9432363,107.741615 Z M89.621276,97.7905021 C88.8811336,97.7905021 88.2834776,98.0409771 87.8282901,98.5419345 C87.3731025,99.042892 87.082601,99.7406437 86.9567768,100.635211 L92.0970398,100.635211 L92.0970398,100.441985 C92.0748356,100.098471 92.0174754,99.7674867 91.9249576,99.4490209 C91.8324398,99.130555 91.6899645,98.8478761 91.4975275,98.6009757 C91.3050905,98.3540752 91.0552962,98.1572734 90.7481371,98.0105644 C90.440978,97.8638555 90.0653614,97.7905021 89.621276,97.7905021 Z M103.804236,104.370903 C103.804236,104.184834 103.772781,104.01129 103.709868,103.850268 C103.646956,103.689246 103.522984,103.538961 103.337949,103.399409 C103.152913,103.259856 102.892017,103.129251 102.555252,103.00759 C102.218487,102.885929 101.77996,102.771426 101.239656,102.664078 C100.595732,102.535261 100.009178,102.374241 99.479976,102.181015 C98.9507742,101.987788 98.4974438,101.753415 98.1199711,101.477888 C97.7424985,101.202362 97.4482964,100.878534 97.2373558,100.506394 C97.0264152,100.134254 96.9209465,99.7048681 96.9209465,99.2182237 C96.9209465,98.7458924 97.0282655,98.2968266 97.2429068,97.8710127 C97.4575481,97.4451988 97.7665529,97.0712755 98.1699305,96.7492314 C98.5733081,96.4271873 99.0617947,96.171345 99.6354051,95.9816968 C100.209015,95.7920486 100.851079,95.697226 101.561616,95.697226 C102.30916,95.697226 102.980829,95.7920486 103.576643,95.9816968 C104.172458,96.171345 104.677598,96.4325546 105.092077,96.7653335 C105.506557,97.0981124 105.822963,97.4899268 106.041305,97.9407886 C106.259647,98.3916503 106.368817,98.8782874 106.368817,99.4007145 L103.671011,99.4007145 C103.671011,99.1788619 103.626603,98.9623799 103.537786,98.7512621 C103.448969,98.5401444 103.315746,98.3522881 103.138111,98.1876878 C102.960477,98.0230875 102.740288,97.8924827 102.477538,97.7958695 C102.214787,97.6992562 101.909483,97.6509503 101.561616,97.6509503 C101.22115,97.6509503 100.925098,97.6920998 100.67345,97.7744 C100.421801,97.8567001 100.212714,97.9640465 100.046182,98.0964424 C99.87965,98.2288383 99.755678,98.3827015 99.6742624,98.5580367 C99.5928467,98.7333718 99.5521395,98.9176498 99.5521395,99.1108762 C99.5521395,99.3041027 99.589146,99.475857 99.6631603,99.6261442 C99.7371745,99.7764315 99.8685478,99.9124036 100.057284,100.034065 C100.24602,100.155726 100.499515,100.26844 100.817777,100.372209 C101.136038,100.475979 101.535709,100.577958 102.016801,100.67815 C102.712535,100.82128 103.336096,100.989456 103.887502,101.182683 C104.438908,101.375909 104.905191,101.612071 105.286364,101.891176 C105.667537,102.170281 105.958039,102.499477 106.157877,102.878773 C106.357716,103.25807 106.457633,103.708925 106.457633,104.231352 C106.457633,104.746622 106.342913,105.218946 106.113469,105.648339 C105.884025,106.077731 105.556517,106.448076 105.130935,106.759385 C104.705353,107.070694 104.192812,107.312224 103.593297,107.483981 C102.993781,107.655738 102.327663,107.741615 101.594922,107.741615 C100.773364,107.741615 100.046185,107.628901 99.4133635,107.40347 C98.7805417,107.178039 98.2494976,106.882837 97.820215,106.517853 C97.3909324,106.15287 97.067125,105.739586 96.848783,105.27799 C96.630441,104.816393 96.5212716,104.345858 96.5212716,103.86637 L99.1413625,103.86637 C99.1635668,104.224197 99.2486819,104.524767 99.3967104,104.768089 C99.5447388,105.011411 99.7334723,105.208213 99.9629164,105.3585 C100.192361,105.508788 100.451407,105.617923 100.740062,105.68591 C101.028718,105.753897 101.32477,105.78789 101.628228,105.78789 C102.338765,105.78789 102.879061,105.657286 103.249132,105.396072 C103.619203,105.134858 103.804236,104.793139 103.804236,104.370903 Z M115.755678,104.370903 C115.755678,104.184834 115.724223,104.01129 115.661311,103.850268 C115.598398,103.689246 115.474426,103.538961 115.289391,103.399409 C115.104355,103.259856 114.843459,103.129251 114.506694,103.00759 C114.169929,102.885929 113.731402,102.771426 113.191098,102.664078 C112.547174,102.535261 111.96062,102.374241 111.431418,102.181015 C110.902216,101.987788 110.448886,101.753415 110.071413,101.477888 C109.693941,101.202362 109.399738,100.878534 109.188798,100.506394 C108.977857,100.134254 108.872389,99.7048681 108.872389,99.2182237 C108.872389,98.7458924 108.979708,98.2968266 109.194349,97.8710127 C109.40899,97.4451988 109.717995,97.0712755 110.121373,96.7492314 C110.52475,96.4271873 111.013237,96.171345 111.586847,95.9816968 C112.160457,95.7920486 112.802521,95.697226 113.513058,95.697226 C114.260602,95.697226 114.932271,95.7920486 115.528086,95.9816968 C116.1239,96.171345 116.62904,96.4325546 117.043519,96.7653335 C117.457999,97.0981124 117.774405,97.4899268 117.992747,97.9407886 C118.211089,98.3916503 118.320259,98.8782874 118.320259,99.4007145 L115.622453,99.4007145 C115.622453,99.1788619 115.578045,98.9623799 115.489228,98.7512621 C115.400411,98.5401444 115.267188,98.3522881 115.089553,98.1876878 C114.911919,98.0230875 114.69173,97.8924827 114.42898,97.7958695 C114.166229,97.6992562 113.860925,97.6509503 113.513058,97.6509503 C113.172593,97.6509503 112.87654,97.6920998 112.624892,97.7744 C112.373243,97.8567001 112.164156,97.9640465 111.997624,98.0964424 C111.831092,98.2288383 111.70712,98.3827015 111.625704,98.5580367 C111.544289,98.7333718 111.503582,98.9176498 111.503582,99.1108762 C111.503582,99.3041027 111.540588,99.475857 111.614602,99.6261442 C111.688617,99.7764315 111.81999,99.9124036 112.008726,100.034065 C112.197462,100.155726 112.450957,100.26844 112.769219,100.372209 C113.08748,100.475979 113.487151,100.577958 113.968243,100.67815 C114.663977,100.82128 115.287538,100.989456 115.838944,101.182683 C116.39035,101.375909 116.856633,101.612071 117.237806,101.891176 C117.618979,102.170281 117.909481,102.499477 118.109319,102.878773 C118.309158,103.25807 118.409075,103.708925 118.409075,104.231352 C118.409075,104.746622 118.294355,105.218946 118.064911,105.648339 C117.835467,106.077731 117.507959,106.448076 117.082377,106.759385 C116.656795,107.070694 116.144254,107.312224 115.544739,107.483981 C114.945223,107.655738 114.279105,107.741615 113.546364,107.741615 C112.724806,107.741615 111.997627,107.628901 111.364806,107.40347 C110.731984,107.178039 110.20094,106.882837 109.771657,106.517853 C109.342374,106.15287 109.018567,105.739586 108.800225,105.27799 C108.581883,104.816393 108.472714,104.345858 108.472714,103.86637 L111.092805,103.86637 C111.115009,104.224197 111.200124,104.524767 111.348152,104.768089 C111.496181,105.011411 111.684914,105.208213 111.914358,105.3585 C112.143803,105.508788 112.402849,105.617923 112.691504,105.68591 C112.98016,105.753897 113.276212,105.78789 113.57967,105.78789 C114.290207,105.78789 114.830503,105.657286 115.200574,105.396072 C115.570645,105.134858 115.755678,104.793139 115.755678,104.370903 Z" id="Combined-Shape-Copy-4" fill="#616161"></path>
            </g>
        </g>
    </g>
</svg>