<?xml version="1.0" encoding="UTF-8"?>
<svg width="64px" height="64px" viewBox="0 0 64 64" version="1.1" xmlns="http://www.w3.org/2000/svg" xmlns:xlink="http://www.w3.org/1999/xlink">
    <!-- Generator: Sketch 42 (36781) - http://www.bohemiancoding.com/sketch -->
    <title>Page 1</title>
    <desc>Created with Sketch.</desc>
    <defs></defs>
    <g id="Page-1" stroke="none" stroke-width="1" fill="none" fill-rule="evenodd">
        <g id="b2b_landing_cor" transform="translate(-608.000000, -2946.000000)">
            <g id="Page-1" transform="translate(608.000000, 2946.000000)">
                <path d="M40,44 C40,55.045 31.046,64 20,64 C8.954,64 0,55.045 0,44 C0,32.954 8.954,24 20,24 C31.046,24 40,32.954 40,44 L40,44 Z" id="Fill-1" fill="#B0DAF1"></path>
                <path d="M40.707,31.707 L39.293,30.293 L45.586,24 L61,24 C61.552,24 62,23.551 62,23 L62,3 C62,2.449 61.552,2 61,2 L29,2 C28.448,2 28,2.449 28,3 L28,12 L26,12 L26,3 C26,1.346 27.346,0 29,0 L61,0 C62.654,0 64,1.346 64,3 L64,23 C64,24.654 62.654,26 61,26 L46.414,26 L40.707,31.707 Z" id="Fill-3" fill="#2E3C3E"></path>
                <polygon id="Fill-5" fill="#2E3C3E" points="40 14 42 14 42 12 40 12"></polygon>
                <polygon id="Fill-7" fill="#2E3C3E" points="44 14 46 14 46 12 44 12"></polygon>
                <polygon id="Fill-8" fill="#2E3C3E" points="48 14 50 14 50 12 48 12"></polygon>
                <path d="M6,64 L4,64 L4,57 C4,48.99 8.445,47.3 13.152,45.511 C14.894,44.85 16.696,44.165 18.504,43.132 L19.496,44.868 C17.553,45.979 15.593,46.724 13.863,47.381 C9.128,49.181 6,50.369 6,57 L6,64 Z" id="Fill-9" fill="#2E3C3E"></path>
                <path d="M50,64 L48,64 L48,57 C48,50.369 44.872,49.181 40.137,47.381 C38.407,46.724 36.447,45.979 34.504,44.868 L35.496,43.132 C37.304,44.165 39.105,44.85 40.848,45.511 C45.555,47.3 50,48.99 50,57 L50,64 Z" id="Fill-10" fill="#2E3C3E"></path>
                <path d="M27,44.8818 L30.803,46.7828 L33.713,43.8728 L32.526,42.0928 L27,43.0138 L21.474,42.0928 L20.287,43.8728 L23.197,46.7828 L27,44.8818 Z M31.197,49.2168 L27,47.1178 L22.803,49.2168 L17.713,44.1278 L20.526,39.9068 L27,40.9858 L33.474,39.9068 L36.287,44.1278 L31.197,49.2168 Z" id="Fill-11" fill="#2E3C3E"></path>
                <polygon id="Fill-12" fill="#2E3C3E" points="31 41 33 41 33 37 31 37"></polygon>
                <polygon id="Fill-13" fill="#2E3C3E" points="21 41 23 41 23 37 21 37"></polygon>
                <polygon id="Fill-14" fill="#2E3C3E" points="26 56 28 56 28 54 26 54"></polygon>
                <polygon id="Fill-15" fill="#2E3C3E" points="26 52 28 52 28 50 26 50"></polygon>
                <path d="M22.5186,36.1406 C24.2706,36.9806 26.9416,36.9996 26.9996,36.9996 C27.0586,36.9996 29.7286,36.9806 31.4796,36.1416 C31.7916,35.8916 34.1396,33.8376 34.9996,27.9286 L34.9996,23.9996 C34.9996,18.4676 32.5326,15.9996 26.9996,15.9996 C21.4676,15.9996 18.9996,18.4676 18.9996,23.9996 L18.9996,27.9286 C19.8616,33.8456 22.2006,35.8886 22.5186,36.1406 M26.9996,38.9996 C26.8686,38.9996 23.7396,38.9876 21.5526,37.8946 L21.4456,37.8316 C21.3076,37.7406 18.0616,35.4996 17.0096,28.1416 L16.9996,27.9996 L16.9996,23.9996 C16.9996,17.3646 20.3646,13.9996 26.9996,13.9996 C33.6356,13.9996 36.9996,17.3646 36.9996,23.9996 L36.9906,28.1416 C35.9386,35.4996 32.6926,37.7406 32.5546,37.8316 L32.4476,37.8946 C30.2606,38.9876 27.1316,38.9996 26.9996,38.9996" id="Fill-16" fill="#2E3C3E"></path>
                <polygon id="Fill-17" fill="#2E3C3E" points="32.0459 27.0952 22.0459 23.0952 18.4469 24.8942 17.5529 23.1052 21.9539 20.9052 31.9539 24.9052 35.5529 23.1052 36.4469 24.8942"></polygon>
                <polygon id="Fill-18" fill="#2E3C3E" points="12 64 14 64 14 58 12 58"></polygon>
                <polygon id="Fill-19" fill="#2E3C3E" points="40 64 42 64 42 58 40 58"></polygon>
            </g>
        </g>
    </g>
</svg>