<svg id="SvgjsSvg1029" xmlns="http://www.w3.org/2000/svg" version="1.1" xmlns:xlink="http://www.w3.org/1999/xlink" xmlns:svgjs="http://svgjs.com/svgjs" width="40" height="42"><defs id="SvgjsDefs1030"></defs><path id="SvgjsPath1031" d="M776.27 319.78C776.27 324.11999999999995 778.47 327.96999999999997 781.78 330.28C774.3199999999999 333.21 769 340.51 769 349L772.64 349C772.64 340.97 778.4399999999999 334.26 786.05 332.85L787.18 336.22L790.8199999999999 336.22L791.9499999999999 332.85C799.56 334.26000000000005 805.3599999999999 340.97 805.3599999999999 349L808.9999999999999 349C808.9999999999999 340.51 803.6799999999998 333.21 796.2199999999999 330.28C799.5299999999999 327.96999999999997 801.7299999999999 324.11999999999995 801.7299999999999 319.78C801.7299999999999 312.73999999999995 796.0099999999999 307 788.9999999999999 307C781.9899999999999 307 776.2699999999999 312.74 776.2699999999999 319.78ZM798.09 319.78C798.09 324.84999999999997 794.0400000000001 328.90999999999997 789 328.90999999999997C783.96 328.90999999999997 779.91 324.84999999999997 779.91 319.78C779.91 314.71999999999997 783.9599999999999 310.65 789 310.65C794.04 310.65 798.09 314.71999999999997 798.09 319.78ZM787.18 338.04L790.8199999999999 338.04L792.64 349L785.36 349Z " fill="#f5f5f5" fill-opacity="1" transform="matrix(1,0,0,1,-769,-307)"></path></svg>