<?xml version="1.0" encoding="UTF-8"?>
<svg width="50px" height="50px" viewBox="0 0 50 50" version="1.1" xmlns="http://www.w3.org/2000/svg" xmlns:xlink="http://www.w3.org/1999/xlink">
    <!-- Generator: Sketch 42 (36781) - http://www.bohemiancoding.com/sketch -->
    <title>Group 9</title>
    <desc>Created with Sketch.</desc>
    <defs></defs>
    <g id="Page-1" stroke="none" stroke-width="1" fill="none" fill-rule="evenodd">
        <g id="b2b_landing_com" transform="translate(-1030.000000, -1166.000000)">
            <g id="Group-20" transform="translate(950.000000, 1166.000000)">
                <g id="Group-9" transform="translate(80.000000, 0.000000)">
                    <path d="M32.8125,33.59375 C32.8125,42.6546875 25.4679688,50 16.40625,50 C7.34453125,50 0,42.6546875 0,33.59375 C0,24.5320312 7.34453125,17.1875 16.40625,17.1875 C25.4679688,17.1875 32.8125,24.5320312 32.8125,33.59375 L32.8125,33.59375 Z" id="Fill-1" fill="#BFE0F3"></path>
                    <polygon id="Fill-3" fill="#2E3C3E" points="46.875 23.4375 17.1875 23.4375 17.1875 21.875 45.3125 21.875 45.3125 7.8125 17.1875 7.8125 17.1875 6.25 46.875 6.25"></polygon>
                    <path d="M9.375,1.5625 C7.6515625,1.5625 6.25,2.9640625 6.25,4.6875 C6.25,6.4109375 7.6515625,7.8125 9.375,7.8125 C11.0984375,7.8125 12.5,6.4109375 12.5,4.6875 C12.5,2.9640625 11.0984375,1.5625 9.375,1.5625 M9.375,9.375 C6.78984375,9.375 4.6875,7.27265625 4.6875,4.6875 C4.6875,2.10234375 6.78984375,0 9.375,0 C11.9601563,0 14.0625,2.10234375 14.0625,4.6875 C14.0625,7.27265625 11.9601563,9.375 9.375,9.375" id="Fill-5" fill="#2E3C3E"></path>
                    <path d="M50,29.6875 L14.0625,29.6875 L14.0625,15.625 L26.5625,15.625 L26.5625,12.5 L6.25,12.5 C3.66484375,12.5 1.5625,14.6023438 1.5625,17.1875 L1.5625,28.125 L4.6875,28.125 L4.6875,21.875 L6.25,21.875 L6.25,29.6875 L0,29.6875 L0,17.1875 C0,13.7414062 2.80390625,10.9375 6.25,10.9375 L28.125,10.9375 L28.125,17.1875 L15.625,17.1875 L15.625,28.125 L48.4375,28.125 L48.4375,4.6875 L15.625,4.6875 L15.625,3.125 L50,3.125 L50,29.6875 Z" id="Fill-7" fill="#2E3C3E"></path>
                    <polygon id="Fill-9" fill="#2E3C3E" points="17.1875 26.5625 46.875 26.5625 46.875 25 17.1875 25"></polygon>
                    <path d="M47.65625,50 L2.34375,50 C1.0734375,50 0,48.5695313 0,46.875 L0,44.859375 L5.8625,41.509375 L6.6375,42.865625 L1.5625,45.765625 L1.5625,46.875 C1.5625,47.83125 2.11171875,48.4375 2.34375,48.4375 L47.65625,48.4375 C47.8882812,48.4375 48.4375,47.83125 48.4375,46.875 L48.4375,45.765625 L43.3625,42.865625 L44.1375,41.509375 L50,44.859375 L50,46.875 C50,48.5695313 48.9265625,50 47.65625,50" id="Fill-11" fill="#2E3C3E"></path>
                    <polygon id="Fill-12" fill="#2E3C3E" points="33.6182031 46.1982812 26.9939844 42.8865625 27.6932031 41.4889062 33.5697656 44.4264062 38.6752344 41.5092187 39.4502344 42.8654687"></polygon>
                    <polygon id="Fill-13" fill="#2E3C3E" points="16.381875 46.1982812 10.5498438 42.8654687 11.3248438 41.5092187 16.4303125 44.4264062 22.306875 41.4889062 23.0060938 42.8865625"></polygon>
                    <path d="M8.59375,34.375 C6.228125,34.375 5.46875,35.2289063 5.46875,37.890625 C5.46875,39.9742187 6.5640625,42.1875 8.59375,42.1875 C10.6234375,42.1875 11.71875,39.9742187 11.71875,37.890625 C11.71875,35.2289063 10.959375,34.375 8.59375,34.375 M8.59375,43.75 C5.921875,43.75 3.90625,41.23125 3.90625,37.890625 C3.90625,35.5265625 4.4390625,32.8125 8.59375,32.8125 C12.7484375,32.8125 13.28125,35.5265625 13.28125,37.890625 C13.28125,41.23125 11.265625,43.75 8.59375,43.75" id="Fill-14" fill="#2E3C3E"></path>
                    <path d="M25,34.375 C22.634375,34.375 21.875,35.2289063 21.875,37.890625 C21.875,39.9742187 22.9703125,42.1875 25,42.1875 C27.0296875,42.1875 28.125,39.9742187 28.125,37.890625 C28.125,35.2289063 27.365625,34.375 25,34.375 M25,43.75 C22.328125,43.75 20.3125,41.23125 20.3125,37.890625 C20.3125,35.5265625 20.8453125,32.8125 25,32.8125 C29.1546875,32.8125 29.6875,35.5265625 29.6875,37.890625 C29.6875,41.23125 27.671875,43.75 25,43.75" id="Fill-15" fill="#2E3C3E"></path>
                    <path d="M41.40625,34.375 C39.040625,34.375 38.28125,35.2289063 38.28125,37.890625 C38.28125,39.9742187 39.3765625,42.1875 41.40625,42.1875 C43.4359375,42.1875 44.53125,39.9742187 44.53125,37.890625 C44.53125,35.2289063 43.771875,34.375 41.40625,34.375 M41.40625,43.75 C38.734375,43.75 36.71875,41.23125 36.71875,37.890625 C36.71875,35.5265625 37.2515625,32.8125 41.40625,32.8125 C45.5609375,32.8125 46.09375,35.5265625 46.09375,37.890625 C46.09375,41.23125 44.078125,43.75 41.40625,43.75" id="Fill-16" fill="#2E3C3E"></path>
                    <polygon id="Fill-17" fill="#2E3C3E" points="15.625 47.65625 17.1875 47.65625 17.1875 45.3125 15.625 45.3125"></polygon>
                    <polygon id="Fill-18" fill="#2E3C3E" points="32.8125 47.65625 34.375 47.65625 34.375 45.3125 32.8125 45.3125"></polygon>
                    <polygon id="Fill-19" fill="#2E3C3E" points="8.59375 15.625 10.15625 15.625 10.15625 14.0625 8.59375 14.0625"></polygon>
                    <polygon id="Fill-20" fill="#2E3C3E" points="8.59375 18.75 10.15625 18.75 10.15625 17.1875 8.59375 17.1875"></polygon>
                </g>
            </g>
        </g>
    </g>
</svg>