<?xml version="1.0" encoding="UTF-8"?>
<svg width="50px" height="50px" viewBox="0 0 50 50" version="1.1" xmlns="http://www.w3.org/2000/svg" xmlns:xlink="http://www.w3.org/1999/xlink">
    <!-- Generator: Sketch 42 (36781) - http://www.bohemiancoding.com/sketch -->
    <title>Page 1</title>
    <desc>Created with Sketch.</desc>
    <defs></defs>
    <g id="Page-1" stroke="none" stroke-width="1" fill="none" fill-rule="evenodd">
        <g id="b2b_landing_com" transform="translate(-238.000000, -1166.000000)">
            <g id="Group-17" transform="translate(158.000000, 1166.000000)">
                <g id="Page-1" transform="translate(80.000000, 0.000000)">
                    <path d="M50,16.40625 C50,25.4671875 42.6554688,32.8125 33.59375,32.8125 C24.5320312,32.8125 17.1875,25.4671875 17.1875,16.40625 C17.1875,7.34453125 24.5320312,0 33.59375,0 C42.6554688,0 50,7.34453125 50,16.40625 L50,16.40625 Z" id="Fill-1" fill="#BFE0F3"></path>
                    <path d="M17.1875,32.8125 C15.4640625,32.8125 14.0625,31.4109375 14.0625,29.6875 L15.625,29.6875 C15.625,30.5492188 16.3257812,31.25 17.1875,31.25 C18.0492188,31.25 18.75,30.5492188 18.75,29.6875 C18.75,29.1804687 17.6375,28.4015625 16.8679688,28.0570313 C16.4,27.846875 14.0625,26.7132812 14.0625,25 C14.0625,23.2765625 15.4640625,21.875 17.1875,21.875 C18.9109375,21.875 20.3125,23.2765625 20.3125,25 L18.75,25 C18.75,24.1382812 18.0492188,23.4375 17.1875,23.4375 C16.3257812,23.4375 15.625,24.1382812 15.625,25 C15.625,25.5070313 16.7375,26.2859375 17.5070312,26.6304687 C17.975,26.840625 20.3125,27.9742187 20.3125,29.6875 C20.3125,31.4109375 18.9109375,32.8125 17.1875,32.8125" id="Fill-3" fill="#2E3C3E"></path>
                    <polygon id="Fill-5" fill="#2E3C3E" points="16.40625 22.65625 17.96875 22.65625 17.96875 20.3125 16.40625 20.3125"></polygon>
                    <polygon id="Fill-7" fill="#2E3C3E" points="16.40625 34.375 17.96875 34.375 17.96875 32.03125 16.40625 32.03125"></polygon>
                    <polygon id="Fill-8" fill="#2E3C3E" points="21.875 28.125 23.4375 28.125 23.4375 26.5625 21.875 26.5625"></polygon>
                    <polygon id="Fill-9" fill="#2E3C3E" points="10.9375 28.125 12.5 28.125 12.5 26.5625 10.9375 26.5625"></polygon>
                    <path d="M20.3125,50 L5.46875,50 C2.453125,50 0,47.546875 0,44.53125 L0,32.03125 C0,18.2507812 6.0328125,15.0304687 10.025,12.9 C11.1421875,12.3039062 12.10625,11.7890625 12.7289062,11.1664062 L13.8335938,12.2710937 C13.046875,13.0578125 11.9875,13.6234375 10.7609375,14.278125 C6.87890625,16.35 1.5625,19.1882812 1.5625,32.03125 L1.5625,44.53125 C1.5625,46.6851562 3.31484375,48.4375 5.46875,48.4375 L20.3125,48.4375 L20.3125,50 Z" id="Fill-10" fill="#2E3C3E"></path>
                    <path d="M34.375,31.25 L32.8125,31.25 C32.8125,18.5953125 27.6,16.0921875 23.79375,14.2640625 C22.546875,13.665625 21.3703125,13.1 20.5414062,12.2710937 L21.6460937,11.1664062 C22.2867187,11.8070312 23.2984375,12.2929687 24.4695312,12.8554687 C28.4140625,14.7492187 34.375,17.6125 34.375,31.25" id="Fill-11" fill="#2E3C3E"></path>
                    <path d="M13.28125,9.375 L13.28125,10.9375 L21.0945312,10.9375 L21.09375,9.375 L13.28125,9.375 Z M21.09375,12.5 L13.28125,12.5 C12.4195313,12.5 11.71875,11.7992188 11.71875,10.9375 L11.71875,9.375 C11.71875,8.51328125 12.4195313,7.8125 13.28125,7.8125 L21.09375,7.8125 C21.9554688,7.8125 22.65625,8.51328125 22.65625,9.375 L22.65625,10.9375 C22.65625,11.7992188 21.9554688,12.5 21.09375,12.5 L21.09375,12.5 Z" id="Fill-12" fill="#2E3C3E"></path>
                    <path d="M14.5454687,7.8125 L19.8298437,7.8125 L22.3892187,2.69296875 L20.3126562,1.6546875 L17.536875,3.04296875 C17.3173437,3.15234375 17.0579687,3.15234375 16.8384375,3.04296875 L14.0626562,1.6546875 L11.9860937,2.69296875 L14.5454687,7.8125 Z M20.3126562,9.375 L14.0626562,9.375 C13.7665625,9.375 13.49625,9.2078125 13.3634375,8.94296875 L10.2384375,2.69296875 C10.0454687,2.30703125 10.2017187,1.8375 10.5884375,1.64453125 L13.7134375,0.08203125 C13.9329687,-0.02734375 14.1923437,-0.02734375 14.411875,0.08203125 L17.1876562,1.4703125 L19.9634375,0.08203125 C20.1829687,-0.02734375 20.4423437,-0.02734375 20.661875,0.08203125 L23.786875,1.64453125 C24.1728125,1.8375 24.3290625,2.30703125 24.1360937,2.69296875 L21.0110937,8.94296875 C20.8790625,9.2078125 20.60875,9.375 20.3126562,9.375 L20.3126562,9.375 Z" id="Fill-13" fill="#2E3C3E"></path>
                    <path d="M21.875,10.9375 L21.875,9.375 C23.1671875,9.375 24.21875,8.3234375 24.21875,7.03125 L25.78125,7.03125 C25.78125,9.18515625 24.0289063,10.9375 21.875,10.9375" id="Fill-14" fill="#2E3C3E"></path>
                    <path d="M12.5,10.9375 C10.3460937,10.9375 8.59375,9.18515625 8.59375,7.03125 L10.15625,7.03125 C10.15625,8.3234375 11.2078125,9.375 12.5,9.375 L12.5,10.9375 Z" id="Fill-15" fill="#2E3C3E"></path>
                    <path d="M17.1875,18.75 C12.4492187,18.75 8.59375,22.6054688 8.59375,27.34375 C8.59375,32.0820312 12.4492187,35.9375 17.1875,35.9375 C21.9257812,35.9375 25.78125,32.0820312 25.78125,27.34375 C25.78125,22.6054688 21.9257812,18.75 17.1875,18.75 M17.1875,37.5 C11.5867187,37.5 7.03125,32.9445312 7.03125,27.34375 C7.03125,21.7429688 11.5867187,17.1875 17.1875,17.1875 C22.7882813,17.1875 27.34375,21.7429688 27.34375,27.34375 C27.34375,32.9445312 22.7882813,37.5 17.1875,37.5" id="Fill-16" fill="#2E3C3E"></path>
                    <path d="M23.4375,46.875 L23.4375,48.4375 L29.6882812,48.4375 L29.6875,46.875 L23.4375,46.875 Z M29.6875,50 L23.4375,50 C22.5757812,50 21.875,49.2992188 21.875,48.4375 L21.875,46.875 C21.875,46.0132812 22.5757812,45.3125 23.4375,45.3125 L29.6875,45.3125 C30.5492188,45.3125 31.25,46.0132812 31.25,46.875 L31.25,48.4375 C31.25,49.2992188 30.5492188,50 29.6875,50 L29.6875,50 Z" id="Fill-17" fill="#2E3C3E"></path>
                    <path d="M23.4375,43.75 L23.4375,45.3125 L29.6882812,45.3125 L29.6875,43.75 L23.4375,43.75 Z M29.6875,46.875 L23.4375,46.875 C22.5757812,46.875 21.875,46.1742188 21.875,45.3125 L21.875,43.75 C21.875,42.8882812 22.5757812,42.1875 23.4375,42.1875 L29.6875,42.1875 C30.5492188,42.1875 31.25,42.8882812 31.25,43.75 L31.25,45.3125 C31.25,46.1742188 30.5492188,46.875 29.6875,46.875 L29.6875,46.875 Z" id="Fill-18" fill="#2E3C3E"></path>
                    <path d="M23.4375,40.625 L23.4375,42.1875 L29.6882812,42.1875 L29.6875,40.625 L23.4375,40.625 Z M29.6875,43.75 L23.4375,43.75 C22.5757812,43.75 21.875,43.0492188 21.875,42.1875 L21.875,40.625 C21.875,39.7632812 22.5757812,39.0625 23.4375,39.0625 L29.6875,39.0625 C30.5492188,39.0625 31.25,39.7632812 31.25,40.625 L31.25,42.1875 C31.25,43.0492188 30.5492188,43.75 29.6875,43.75 L29.6875,43.75 Z" id="Fill-19" fill="#2E3C3E"></path>
                    <path d="M31.25,46.875 L31.25,48.4375 L37.5007813,48.4375 L37.5,46.875 L31.25,46.875 Z M37.5,50 L31.25,50 C30.3882812,50 29.6875,49.2992188 29.6875,48.4375 L29.6875,46.875 C29.6875,46.0132812 30.3882812,45.3125 31.25,45.3125 L37.5,45.3125 C38.3617188,45.3125 39.0625,46.0132812 39.0625,46.875 L39.0625,48.4375 C39.0625,49.2992188 38.3617188,50 37.5,50 L37.5,50 Z" id="Fill-20" fill="#2E3C3E"></path>
                    <path d="M31.25,43.75 L31.25,45.3125 L37.5007813,45.3125 L37.5,43.75 L31.25,43.75 Z M37.5,46.875 L31.25,46.875 C30.3882812,46.875 29.6875,46.1742188 29.6875,45.3125 L29.6875,43.75 C29.6875,42.8882812 30.3882812,42.1875 31.25,42.1875 L37.5,42.1875 C38.3617188,42.1875 39.0625,42.8882812 39.0625,43.75 L39.0625,45.3125 C39.0625,46.1742188 38.3617188,46.875 37.5,46.875 L37.5,46.875 Z" id="Fill-21" fill="#2E3C3E"></path>
                    <path d="M31.25,40.625 L31.25,42.1875 L37.5007813,42.1875 L37.5,40.625 L31.25,40.625 Z M37.5,43.75 L31.25,43.75 C30.3882812,43.75 29.6875,43.0492188 29.6875,42.1875 L29.6875,40.625 C29.6875,39.7632812 30.3882812,39.0625 31.25,39.0625 L37.5,39.0625 C38.3617188,39.0625 39.0625,39.7632812 39.0625,40.625 L39.0625,42.1875 C39.0625,43.0492188 38.3617188,43.75 37.5,43.75 L37.5,43.75 Z" id="Fill-22" fill="#2E3C3E"></path>
                    <path d="M31.25,37.5 L31.25,39.0625 L37.5007813,39.0625 L37.5,37.5 L31.25,37.5 Z M37.5,40.625 L31.25,40.625 C30.3882812,40.625 29.6875,39.9242188 29.6875,39.0625 L29.6875,37.5 C29.6875,36.6382812 30.3882812,35.9375 31.25,35.9375 L37.5,35.9375 C38.3617188,35.9375 39.0625,36.6382812 39.0625,37.5 L39.0625,39.0625 C39.0625,39.9242188 38.3617188,40.625 37.5,40.625 L37.5,40.625 Z" id="Fill-23" fill="#2E3C3E"></path>
                    <path d="M31.25,34.375 L31.25,35.9375 L37.5007813,35.9375 L37.5,34.375 L31.25,34.375 Z M37.5,37.5 L31.25,37.5 C30.3882812,37.5 29.6875,36.7992188 29.6875,35.9375 L29.6875,34.375 C29.6875,33.5132812 30.3882812,32.8125 31.25,32.8125 L37.5,32.8125 C38.3617188,32.8125 39.0625,33.5132812 39.0625,34.375 L39.0625,35.9375 C39.0625,36.7992188 38.3617188,37.5 37.5,37.5 L37.5,37.5 Z" id="Fill-24" fill="#2E3C3E"></path>
                    <path d="M39.0625,46.875 L39.0625,48.4375 L45.3132813,48.4375 L45.3125,46.875 L39.0625,46.875 Z M45.3125,50 L39.0625,50 C38.2007812,50 37.5,49.2992188 37.5,48.4375 L37.5,46.875 C37.5,46.0132812 38.2007812,45.3125 39.0625,45.3125 L45.3125,45.3125 C46.1742188,45.3125 46.875,46.0132812 46.875,46.875 L46.875,48.4375 C46.875,49.2992188 46.1742188,50 45.3125,50 L45.3125,50 Z" id="Fill-25" fill="#2E3C3E"></path>
                    <path d="M39.0625,43.75 L39.0625,45.3125 L45.3132813,45.3125 L45.3125,43.75 L39.0625,43.75 Z M45.3125,46.875 L39.0625,46.875 C38.2007812,46.875 37.5,46.1742188 37.5,45.3125 L37.5,43.75 C37.5,42.8882812 38.2007812,42.1875 39.0625,42.1875 L45.3125,42.1875 C46.1742188,42.1875 46.875,42.8882812 46.875,43.75 L46.875,45.3125 C46.875,46.1742188 46.1742188,46.875 45.3125,46.875 L45.3125,46.875 Z" id="Fill-26" fill="#2E3C3E"></path>
                    <path d="M39.0625,40.625 L39.0625,42.1875 L45.3132813,42.1875 L45.3125,40.625 L39.0625,40.625 Z M45.3125,43.75 L39.0625,43.75 C38.2007812,43.75 37.5,43.0492188 37.5,42.1875 L37.5,40.625 C37.5,39.7632812 38.2007812,39.0625 39.0625,39.0625 L45.3125,39.0625 C46.1742188,39.0625 46.875,39.7632812 46.875,40.625 L46.875,42.1875 C46.875,43.0492188 46.1742188,43.75 45.3125,43.75 L45.3125,43.75 Z" id="Fill-27" fill="#2E3C3E"></path>
                    <path d="M39.0625,37.5 L39.0625,39.0625 L45.3132813,39.0625 L45.3125,37.5 L39.0625,37.5 Z M45.3125,40.625 L39.0625,40.625 C38.2007812,40.625 37.5,39.9242188 37.5,39.0625 L37.5,37.5 C37.5,36.6382812 38.2007812,35.9375 39.0625,35.9375 L45.3125,35.9375 C46.1742188,35.9375 46.875,36.6382812 46.875,37.5 L46.875,39.0625 C46.875,39.9242188 46.1742188,40.625 45.3125,40.625 L45.3125,40.625 Z" id="Fill-28" fill="#2E3C3E"></path>
                    <path d="M39.0625,34.375 L39.0625,35.9375 L45.3132813,35.9375 L45.3125,34.375 L39.0625,34.375 Z M45.3125,37.5 L39.0625,37.5 C38.2007812,37.5 37.5,36.7992188 37.5,35.9375 L37.5,34.375 C37.5,33.5132812 38.2007812,32.8125 39.0625,32.8125 L45.3125,32.8125 C46.1742188,32.8125 46.875,33.5132812 46.875,34.375 L46.875,35.9375 C46.875,36.7992188 46.1742188,37.5 45.3125,37.5 L45.3125,37.5 Z" id="Fill-29" fill="#2E3C3E"></path>
                    <path d="M39.0625,31.25 L39.0625,32.8125 L45.3132813,32.8125 L45.3125,31.25 L39.0625,31.25 Z M45.3125,34.375 L39.0625,34.375 C38.2007812,34.375 37.5,33.6742188 37.5,32.8125 L37.5,31.25 C37.5,30.3882812 38.2007812,29.6875 39.0625,29.6875 L45.3125,29.6875 C46.1742188,29.6875 46.875,30.3882812 46.875,31.25 L46.875,32.8125 C46.875,33.6742188 46.1742188,34.375 45.3125,34.375 L45.3125,34.375 Z" id="Fill-30" fill="#2E3C3E"></path>
                    <path d="M39.0625,28.125 L39.0625,29.6875 L45.3132813,29.6875 L45.3125,28.125 L39.0625,28.125 Z M45.3125,31.25 L39.0625,31.25 C38.2007812,31.25 37.5,30.5492188 37.5,29.6875 L37.5,28.125 C37.5,27.2632812 38.2007812,26.5625 39.0625,26.5625 L45.3125,26.5625 C46.1742188,26.5625 46.875,27.2632812 46.875,28.125 L46.875,29.6875 C46.875,30.5492188 46.1742188,31.25 45.3125,31.25 L45.3125,31.25 Z" id="Fill-31" fill="#2E3C3E"></path>
                    <path d="M39.0625,20.3125 L39.0625,21.875 L45.3132813,21.875 L45.3125,20.3125 L39.0625,20.3125 Z M45.3125,23.4375 L39.0625,23.4375 C38.2007812,23.4375 37.5,22.7367188 37.5,21.875 L37.5,20.3125 C37.5,19.4507812 38.2007812,18.75 39.0625,18.75 L45.3125,18.75 C46.1742188,18.75 46.875,19.4507812 46.875,20.3125 L46.875,21.875 C46.875,22.7367188 46.1742188,23.4375 45.3125,23.4375 L45.3125,23.4375 Z" id="Fill-32" fill="#2E3C3E"></path>
                    <polygon id="Fill-33" fill="#2E3C3E" points="39.84375 17.1875 41.40625 17.1875 41.40625 10.9375 39.84375 10.9375"></polygon>
                    <polygon id="Fill-34" fill="#2E3C3E" points="42.96875 12.5 44.53125 12.5 44.53125 6.25 42.96875 6.25"></polygon>
                    <polygon id="Fill-35" fill="#2E3C3E" points="39.84375 9.375 41.40625 9.375 41.40625 7.8125 39.84375 7.8125"></polygon>
                    <polygon id="Fill-36" fill="#2E3C3E" points="42.96875 15.625 44.53125 15.625 44.53125 14.0625 42.96875 14.0625"></polygon>
                </g>
            </g>
        </g>
    </g>
</svg>