<?xml version="1.0" encoding="UTF-8"?>
<svg width="60px" height="64px" viewBox="0 0 60 64" version="1.1" xmlns="http://www.w3.org/2000/svg" xmlns:xlink="http://www.w3.org/1999/xlink">
    <!-- Generator: Sketch 42 (36781) - http://www.bohemiancoding.com/sketch -->
    <title>Page 1</title>
    <desc>Created with Sketch.</desc>
    <defs></defs>
    <g id="Page-1" stroke="none" stroke-width="1" fill="none" fill-rule="evenodd">
        <g id="b2b_landing_cor" transform="translate(-611.000000, -600.000000)">
            <g id="Group-20" transform="translate(501.000000, 600.000000)">
                <g id="Group-18">
                    <g id="Page-1" transform="translate(110.000000, 0.000000)">
                        <path d="M40,44 C40,55.046 31.046,64 20,64 C8.954,64 0,55.046 0,44 C0,32.949 8.954,24 20,24 C31.046,24 40,32.949 40,44 L40,44 Z" id="Fill-1" fill="#B0DAF1"></path>
                        <path d="M30,2.0005 C27.794,2.0005 26,3.7945 26,6.0005 C26,8.2065 27.794,10.0005 30,10.0005 C32.206,10.0005 34,8.2065 34,6.0005 C34,3.7945 32.206,2.0005 30,2.0005 M30,12.0005 C26.691,12.0005 24,9.3095 24,6.0005 C24,2.6915 26.691,0.0005 30,0.0005 C33.309,0.0005 36,2.6915 36,6.0005 C36,9.3095 33.309,12.0005 30,12.0005" id="Fill-3" fill="#192324"></path>
                        <polygon id="Fill-5" fill="#192324" points="29 64 31 64 31 46 29 46"></polygon>
                        <polygon id="Fill-7" fill="#192324" points="29 20 31 20 31 18 29 18"></polygon>
                        <polygon id="Fill-8" fill="#192324" points="29 24 31 24 31 22 29 22"></polygon>
                        <polygon id="Fill-9" fill="#192324" points="23 44 34 44 34 42 23 42"></polygon>
                        <polygon id="Fill-10" fill="#192324" points="21 40 39 40 39 38 21 38"></polygon>
                        <path d="M43.707,38.7075 L42.293,37.2935 L47.586,32.0005 L42.293,26.7075 L43.707,25.2935 L49.707,31.2935 C50.098,31.6845 50.098,32.3165 49.707,32.7075 L43.707,38.7075 Z" id="Fill-11" fill="#192324"></path>
                        <path d="M38,64 L36,64 L36,42 L38,42 L38,24.001 C38,21.794 39.794,20 42,20 L45.586,20 L58,7.586 L58,4 L60,4 L60,8.415 L46.414,22 L42,22 C40.897,22 40,22.897 40,24.001 L40,44 L38,44 L38,64 Z" id="Fill-12" fill="#192324"></path>
                        <polygon id="Fill-13" fill="#192324" points="46.4141 44 42.0001 44 42.0001 42 45.5861 42 55.0001 32.586 55.0001 31.415 45.2931 21.707 46.7071 20.293 57.0001 30.586 57.0001 33.415"></polygon>
                        <polygon id="Fill-14" fill="#192324" points="44.4141 16 15.5861 16 5.2931 5.707 6.7071 4.293 16.4141 14 43.5861 14 53.2931 4.293 54.7071 5.707"></polygon>
                        <path d="M16.293,38.7075 L10.293,32.7075 C9.902,32.3165 9.902,31.6845 10.293,31.2935 L16.293,25.2935 L17.707,26.7075 L12.414,32.0005 L17.707,37.2935 L16.293,38.7075 Z" id="Fill-15" fill="#192324"></path>
                        <path d="M24,64 L22,64 L22,44 L20,44 L20,24.001 C20,22.897 19.103,22 18,22 L13.586,22 L0,8.415 L0,4 L2,4 L2,7.586 L14.414,20 L18,20 C20.206,20 22,21.794 22,24.001 L22,42 L24,42 L24,64 Z" id="Fill-16" fill="#192324"></path>
                        <polygon id="Fill-17" fill="#192324" points="18 44 13.586 44 3 33.415 3 30.586 13.293 20.293 14.707 21.707 5 31.415 5 32.586 14.414 42 18 42"></polygon>
                        <polygon id="Fill-18" fill="#192324" points="0 2 2 2 2 0 0 0"></polygon>
                        <polygon id="Fill-19" fill="#192324" points="58 2 60 2 60 0 58 0"></polygon>
                    </g>
                </g>
            </g>
        </g>
    </g>
</svg>
