<?xml version="1.0" encoding="UTF-8"?>
<svg width="66px" height="65px" viewBox="0 0 66 65" version="1.1" xmlns="http://www.w3.org/2000/svg" xmlns:xlink="http://www.w3.org/1999/xlink">
    <!-- Generator: Sketch 42 (36781) - http://www.bohemiancoding.com/sketch -->
    <title>ott-logo</title>
    <desc>Created with Sketch.</desc>
    <defs></defs>
    <g id="Page-1" stroke="none" stroke-width="1" fill="none" fill-rule="evenodd">
        <g id="ott-logo" fill-rule="nonzero">
            <path d="M46.86,13.73 C46.76,6.14 40.56,0 32.95,0 C25.34,0 19.14,6.14 19.04,13.73 L5.9,13.73 C2.66,13.73 0,16.38 0,19.63 L0,58.77 C0,62.01 2.66,64.67 5.9,64.67 L59.52,64.67 C62.76,64.67 65.42,62.01 65.42,58.77 L65.42,19.63 C65.42,16.38 62.76,13.73 59.52,13.73 L46.86,13.73 Z M38.87,13.73 L27.03,13.73 C27.13,10.54 29.74,7.98 32.95,7.98 C36.16,7.98 38.77,10.54 38.87,13.73 Z" id="SvgjsPath1010" fill="#FFFFFF"></path>
            <polyline id="SvgjsPath1011" fill="#1D1C1A" points="11.39 38.67 11.39 60.86 7.32 60.86 7.32 38.67 3 38.67 3 35 15.75 35 15.75 38.67 11.39 38.67"></polyline>
            <path d="M24.36,50.25 L22.07,50.25 L22.07,60.86 L18,60.86 L18,35 L24.54,35 C29.26,35 31.15,37.29 31.15,42.63 C31.15,45.82 30.49,48.11 28.13,49.38 L31.98,60.86 L27.73,60.86 L24.36,50.25 Z M22.07,38.67 L22.07,46.59 L24.57,46.59 C26.75,46.59 27.08,44.77 27.08,42.63 C27.08,40.48 26.75,38.67 24.57,38.67 L22.07,38.67 Z" id="SvgjsPath1012" fill="#1D1C1A"></path>
            <polygon id="SvgjsPath1013" fill="#1D1C1A" points="35 35 39.07 35 39.07 60.86 35 60.86"></polygon>
            <path d="M46.07,50.76 L46.07,60.86 L42,60.86 L42,35 L48.5,35 C53.19,35 55.15,37.43 55.15,42.85 C55.15,48.08 53.4,50.76 48.5,50.76 L46.07,50.76 Z M46.07,38.67 L46.07,47.09 L48.57,47.09 C50.75,47.09 51.08,45.17 51.08,42.88 C51.08,40.59 50.75,38.67 48.57,38.67 L46.07,38.67 Z" id="SvgjsPath1014" fill="#1D1C1A"></path>
            <path d="M57,58.46 C57,57.05 58.13,55.88 59.54,55.88 C60.96,55.88 62.09,57.05 62.09,58.46 C62.09,59.88 60.96,61.01 59.54,61.01 C58.13,61.01 57,59.88 57,58.46 Z M57.62,53.6 L61.47,53.6 L61.47,35 L57.62,35 L57.62,53.6 Z" id="SvgjsPath1015" fill="#1D1C1A"></path>
            <path d="M7.62,30.87 C6.32,30.87 5.56,30.38 4.99,29.73 C3.98,28.58 4,26.6 4,23.94 C4,21.27 3.98,19.29 4.99,18.14 C5.56,17.5 6.32,17 7.62,17 C8.92,17 9.68,17.5 10.25,18.14 C11.26,19.29 11.24,21.27 11.24,23.94 C11.24,26.6 11.26,28.58 10.25,29.73 C9.68,30.38 8.92,30.87 7.62,30.87 Z M7.62,18.92 C7.11,18.92 6.8,19.13 6.61,19.44 C6.21,20.09 6.13,21.46 6.13,23.94 C6.13,26.41 6.21,27.78 6.61,28.43 C6.8,28.74 7.11,28.95 7.62,28.95 C8.13,28.95 8.46,28.74 8.65,28.43 C9.05,27.78 9.11,26.41 9.11,23.94 C9.11,21.46 9.05,20.09 8.65,19.44 C8.46,19.13 8.13,18.92 7.62,18.92 Z" id="SvgjsPath1016" fill="#1D1C1A"></path>
            <polyline id="SvgjsPath1017" fill="#1D1C1A" points="18.34 31.57 15.13 23.51 15.13 31.57 13 31.57 13 18 14.9 18 18.09 26.06 18.09 18 20.22 18 20.22 31.57 18.34 31.57"></polyline>
            <polyline id="SvgjsPath1018" fill="#1D1C1A" points="22 31.57 22 18 27.7 18 27.7 19.92 24.13 19.92 24.13 23.77 27.2 23.77 27.2 25.7 24.13 25.7 24.13 29.64 27.7 29.64 27.7 31.57 22 31.57"></polyline>
            <polyline id="SvgjsPath1019" fill="#1D1C1A" points="37.4 19.92 37.4 31.57 35.27 31.57 35.27 19.92 33 19.92 33 18 39.69 18 39.69 19.92 37.4 19.92"></polyline>
            <polyline id="SvgjsPath1020" fill="#1D1C1A" points="50.9 31.57 48.67 31.57 46.73 21.26 44.8 31.57 42.57 31.57 40 18 42.34 18 43.68 28.29 45.54 18 47.91 18 49.79 28.29 51.11 18 53.45 18 50.9 31.57"></polyline>
            <path d="M57.62,30.87 C56.32,30.87 55.56,30.38 54.99,29.73 C53.98,28.58 54,26.6 54,23.94 C54,21.27 53.98,19.29 54.99,18.14 C55.56,17.5 56.32,17 57.62,17 C58.92,17 59.68,17.5 60.25,18.14 C61.26,19.29 61.24,21.27 61.24,23.94 C61.24,26.6 61.26,28.58 60.25,29.73 C59.68,30.38 58.92,30.87 57.62,30.87 Z M57.62,18.92 C57.11,18.92 56.8,19.13 56.61,19.44 C56.21,20.09 56.13,21.46 56.13,23.94 C56.13,26.41 56.21,27.78 56.61,28.43 C56.8,28.74 57.11,28.95 57.62,28.95 C58.13,28.95 58.46,28.74 58.65,28.43 C59.05,27.78 59.11,26.41 59.11,23.94 C59.11,21.46 59.05,20.09 58.65,19.44 C58.46,19.13 58.13,18.92 57.62,18.92 Z" id="SvgjsPath1021" fill="#1D1C1A"></path>
            <path d="M43.16,10.33 C42.47,8.33 41.21,6.59 39.58,5.31 C37.74,3.86 35.4,3 32.88,3 C29.88,3 27.15,4.22 25.19,6.19 C23.22,8.15 22,10.88 22,13.88 C22,14.4 22.43,14.83 22.95,14.83 C23.48,14.83 23.91,14.4 23.91,13.88 L23.91,13.88 C23.91,11.4 24.91,9.16 26.54,7.54 C28.16,5.91 30.4,4.91 32.88,4.91 C34.97,4.91 36.88,5.62 38.4,6.81 C39.71,7.84 40.73,9.22 41.31,10.81 L39.52,11.28 L43.53,15.34 L45.05,9.84 L43.16,10.33" id="SvgjsPath1022" fill="#1D1C1A"></path>
        </g>
    </g>
</svg>