<svg id="SvgjsSvg1008" xmlns="http://www.w3.org/2000/svg" version="1.1" xmlns:xlink="http://www.w3.org/1999/xlink" xmlns:svgjs="http://svgjs.com/svgjs" width="66" height="65"><defs id="SvgjsDefs1009"></defs><path id="SvgjsPath1010" d="M525.86 100.73C525.76 93.14 519.5600000000001 87 511.95 87C504.34 87 498.14 93.14 498.03999999999996 100.73L484.9 100.73C481.65999999999997 100.73 479 103.38000000000001 479 106.63000000000001L479 145.77C479 149.01000000000002 481.66 151.67000000000002 484.9 151.67000000000002L538.52 151.67000000000002C541.76 151.67000000000002 544.42 149.01000000000002 544.42 145.77L544.42 106.63000000000001C544.42 103.38000000000001 541.76 100.73 538.52 100.73ZM517.87 100.73L506.03000000000003 100.73C506.13000000000005 97.54 508.74 94.98 511.95000000000005 94.98C515.1600000000001 94.98 517.7700000000001 97.54 517.87 100.73Z " fill="#ffffff" fill-opacity="1" transform="matrix(1,0,0,1,-479,-87)"></path><path id="SvgjsPath1011" d="M490.39 125.67L490.39 147.86L486.32 147.86L486.32 125.67000000000002L482 125.67000000000002L482 122.00000000000001L494.75 122.00000000000001L494.75 125.67000000000002L490.39 125.67000000000002 " fill="#1d1c1a" fill-opacity="1" transform="matrix(1,0,0,1,-479,-87)"></path><path id="SvgjsPath1012" d="M503.36 137.25L501.07 137.25L501.07 147.86L497 147.86L497 122.00000000000001L503.54 122.00000000000001C508.26000000000005 122.00000000000001 510.15000000000003 124.29000000000002 510.15000000000003 129.63000000000002C510.15000000000003 132.82000000000002 509.49 135.11 507.13000000000005 136.38000000000002L510.9800000000001 147.86L506.7300000000001 147.86ZM501.07 125.67L501.07 133.59L503.57 133.59C505.75 133.59 506.08 131.77 506.08 129.63C506.08 127.47999999999999 505.75 125.67 503.57 125.67Z " fill="#1d1c1a" fill-opacity="1" transform="matrix(1,0,0,1,-479,-87)"></path><path id="SvgjsPath1013" d="M514 122L518.07 122L518.07 147.86L514 147.86Z " fill="#1d1c1a" fill-opacity="1" transform="matrix(1,0,0,1,-479,-87)"></path><path id="SvgjsPath1014" d="M525.07 137.76L525.07 147.85999999999999L521 147.85999999999999L521 121.99999999999999L527.5 121.99999999999999C532.19 121.99999999999999 534.15 124.42999999999999 534.15 129.85C534.15 135.07999999999998 532.4 137.76 527.5 137.76ZM525.07 125.67L525.07 134.09L527.57 134.09C529.75 134.09 530.08 132.17000000000002 530.08 129.88C530.08 127.58999999999999 529.75 125.67 527.57 125.67Z " fill="#1d1c1a" fill-opacity="1" transform="matrix(1,0,0,1,-479,-87)"></path><path id="SvgjsPath1015" d="M536 145.46C536 144.05 537.13 142.88 538.54 142.88C539.9599999999999 142.88 541.0899999999999 144.04999999999998 541.0899999999999 145.46C541.0899999999999 146.88 539.9599999999999 148.01000000000002 538.54 148.01000000000002C537.13 148.01000000000002 536 146.88000000000002 536 145.46ZM536.62 140.6L540.47 140.6L540.47 122L536.62 122Z " fill="#1d1c1a" fill-opacity="1" transform="matrix(1,0,0,1,-479,-87)"></path><path id="SvgjsPath1016" d="M486.62 117.87C485.32 117.87 484.56 117.38000000000001 483.99 116.73C482.98 115.58 483 113.60000000000001 483 110.94C483 108.27 482.98 106.28999999999999 483.99 105.14C484.56 104.5 485.32 104 486.62 104C487.92 104 488.68 104.5 489.25 105.14C490.26 106.29 490.24 108.27 490.24 110.94C490.24 113.6 490.26 115.58 489.25 116.73C488.68 117.38000000000001 487.92 117.87 486.62 117.87ZM486.62 105.92C486.11 105.92 485.8 106.13 485.61 106.44C485.21000000000004 107.09 485.13 108.46 485.13 110.94C485.13 113.41 485.21 114.78 485.61 115.42999999999999C485.8 115.74 486.11 115.94999999999999 486.62 115.94999999999999C487.13 115.94999999999999 487.46 115.74 487.65 115.42999999999999C488.04999999999995 114.77999999999999 488.10999999999996 113.41 488.10999999999996 110.94C488.10999999999996 108.46 488.04999999999995 107.09 487.65 106.44C487.46 106.13 487.13 105.92 486.62 105.92Z " fill="#1d1c1a" fill-opacity="1" transform="matrix(1,0,0,1,-479,-87)"></path><path id="SvgjsPath1017" d="M497.34 118.57L494.13 110.50999999999999L494.13 118.57L492 118.57L492 105L493.9 105L497.09 113.06L497.09 105L499.21999999999997 105L499.21999999999997 118.57L497.34 118.57 " fill="#1d1c1a" fill-opacity="1" transform="matrix(1,0,0,1,-479,-87)"></path><path id="SvgjsPath1018" d="M501 118.57L501 105L506.7 105L506.7 106.92L503.13 106.92L503.13 110.77L506.2 110.77L506.2 112.7L503.13 112.7L503.13 116.64L506.7 116.64L506.7 118.57000000000001L501 118.57000000000001 " fill="#1d1c1a" fill-opacity="1" transform="matrix(1,0,0,1,-479,-87)"></path><path id="SvgjsPath1019" d="M516.4 106.92L516.4 118.57000000000001L514.27 118.57000000000001L514.27 106.92L512 106.92L512 105L518.69 105L518.69 106.92L516.4000000000001 106.92 " fill="#1d1c1a" fill-opacity="1" transform="matrix(1,0,0,1,-479,-87)"></path><path id="SvgjsPath1020" d="M529.9 118.57L527.67 118.57L525.7299999999999 108.25999999999999L523.8 118.57L521.5699999999999 118.57L518.9999999999999 105L521.3399999999999 105L522.68 115.28999999999999L524.54 105L526.91 105L528.79 115.28999999999999L530.11 105L532.45 105L529.9000000000001 118.57 " fill="#1d1c1a" fill-opacity="1" transform="matrix(1,0,0,1,-479,-87)"></path><path id="SvgjsPath1021" d="M536.62 117.87C535.32 117.87 534.5600000000001 117.38000000000001 533.99 116.73C532.98 115.58 533 113.60000000000001 533 110.94C533 108.27 532.98 106.28999999999999 533.99 105.14C534.5600000000001 104.5 535.32 104 536.62 104C537.92 104 538.68 104.5 539.25 105.14C540.26 106.29 540.24 108.27 540.24 110.94C540.24 113.6 540.26 115.58 539.25 116.73C538.68 117.38000000000001 537.92 117.87 536.62 117.87ZM536.62 105.92C536.11 105.92 535.8 106.13 535.61 106.44C535.21 107.09 535.13 108.46 535.13 110.94C535.13 113.41 535.21 114.78 535.61 115.42999999999999C535.8000000000001 115.74 536.11 115.94999999999999 536.62 115.94999999999999C537.13 115.94999999999999 537.46 115.74 537.65 115.42999999999999C538.05 114.77999999999999 538.11 113.41 538.11 110.94C538.11 108.46 538.0500000000001 107.09 537.65 106.44C537.4599999999999 106.13 537.13 105.92 536.62 105.92Z " fill="#1d1c1a" fill-opacity="1" transform="matrix(1,0,0,1,-479,-87)"></path><path id="SvgjsPath1022" d="M522.16 97.33C521.4699999999999 95.33 520.2099999999999 93.59 518.5799999999999 92.31C516.7399999999999 90.86 514.4 90 511.87999999999994 90C508.87999999999994 90 506.1499999999999 91.22 504.18999999999994 93.19C502.2199999999999 95.14999999999999 500.99999999999994 97.88 500.99999999999994 100.88C500.99999999999994 101.39999999999999 501.42999999999995 101.83 501.94999999999993 101.83C502.4799999999999 101.83 502.9099999999999 101.39999999999999 502.9099999999999 100.88L502.9099999999999 100.88C502.9099999999999 98.39999999999999 503.9099999999999 96.16 505.5399999999999 94.53999999999999C507.1599999999999 92.91 509.3999999999999 91.91 511.8799999999999 91.91C513.9699999999999 91.91 515.8799999999999 92.61999999999999 517.3999999999999 93.81C518.7099999999998 94.84 519.7299999999999 96.22 520.3099999999998 97.81L518.5199999999999 98.28L522.5299999999999 102.34L524.0499999999998 96.84L522.1599999999999 97.33 " fill="#1d1c1a" fill-opacity="1" transform="matrix(1,0,0,1,-479,-87)"></path></svg>