<?xml version="1.0" encoding="UTF-8"?>
<svg width="64px" height="64px" viewBox="0 0 64 64" version="1.1" xmlns="http://www.w3.org/2000/svg" xmlns:xlink="http://www.w3.org/1999/xlink">
    <!-- Generator: Sketch 42 (36781) - http://www.bohemiancoding.com/sketch -->
    <title>Page 1</title>
    <desc>Created with Sketch.</desc>
    <defs></defs>
    <g id="Page-1" stroke="none" stroke-width="1" fill="none" fill-rule="evenodd">
        <g id="b2b_landing_cor" transform="translate(-239.000000, -1731.000000)">
            <g id="Group-24" transform="translate(130.000000, 1731.000000)">
                <g id="Page-1" transform="translate(109.000000, 0.000000)">
                    <path d="M64,21 C64,32.597 54.599,42 43,42 C31.401,42 22,32.597 22,21 C22,9.396 31.401,0 43,0 C54.599,0 64,9.396 64,21 L64,21 Z" id="Fill-1" fill="#B0DAF1"></path>
                    <path d="M55,37 L42,37 L42,35 L55,35 C57.921,35 60.936,33.185 62,32.477 L62,31.523 C60.936,30.815 57.921,29 55,29 L12,29 C11.735,29 11.48,28.895 11.293,28.707 L6.586,24 L5.257,24 L7.795,35 L19,35 L19,37 L7,37 C6.534,37 6.13,36.679 6.025,36.225 L3.025,23.225 C2.957,22.928 3.028,22.616 3.217,22.377 C3.407,22.139 3.695,22 4,22 L7,22 C7.265,22 7.52,22.105 7.707,22.293 L12.414,27 L55,27 C59.284,27 63.426,30.069 63.6,30.2 C63.852,30.389 64,30.685 64,31 L64,33 C64,33.315 63.852,33.611 63.6,33.8 C63.426,33.931 59.284,37 55,37" id="Fill-3" fill="#2E3C3E"></path>
                    <path d="M27.4141,27 L39.1411,27 L24.7411,19 L19.4141,19 L27.4141,27 Z M43.0001,29 L27.0001,29 C26.7351,29 26.4801,28.895 26.2931,28.707 L16.2931,18.707 C16.0071,18.421 15.9211,17.991 16.0761,17.617 C16.2311,17.244 16.5961,17 17.0001,17 L25.0001,17 C25.1701,17 25.3371,17.044 25.4861,17.126 L43.4851,27.126 C43.8841,27.347 44.0821,27.81 43.9681,28.251 C43.8531,28.692 43.4561,29 43.0001,29 L43.0001,29 Z" id="Fill-5" fill="#2E3C3E"></path>
                    <path d="M19.4141,41 L24.7411,41 L39.1411,33 L27.4141,33 L19.4141,41 Z M25.0001,43 L17.0001,43 C16.5961,43 16.2311,42.756 16.0761,42.383 C15.9211,42.009 16.0071,41.579 16.2931,41.293 L26.2931,31.293 C26.4801,31.105 26.7351,31 27.0001,31 L43.0001,31 C43.4561,31 43.8531,31.308 43.9681,31.749 C44.0821,32.19 43.8841,32.653 43.4851,32.874 L25.4861,42.874 C25.3371,42.956 25.1701,43 25.0001,43 L25.0001,43 Z" id="Fill-7" fill="#2E3C3E"></path>
                    <polygon id="Fill-9" fill="#2E3C3E" points="50 33 52 33 52 31 50 31"></polygon>
                    <polygon id="Fill-11" fill="#2E3C3E" points="46 33 48 33 48 31 46 31"></polygon>
                    <polygon id="Fill-12" fill="#2E3C3E" points="20 33 22 33 22 31 20 31"></polygon>
                    <polygon id="Fill-13" fill="#2E3C3E" points="16 33 18 33 18 31 16 31"></polygon>
                    <polygon id="Fill-14" fill="#2E3C3E" points="12 33 14 33 14 31 12 31"></polygon>
                    <polygon id="Fill-15" fill="#2E3C3E" points="6 43 14 43 14 41 6 41"></polygon>
                    <polygon id="Fill-16" fill="#2E3C3E" points="0 43 4 43 4 41 0 41"></polygon>
                    <polygon id="Fill-17" fill="#2E3C3E" points="10 19 14 19 14 17 10 17"></polygon>
                    <polygon id="Fill-18" fill="#2E3C3E" points="0 19 8 19 8 17 0 17"></polygon>
                    <path d="M57,23 L55,23 L55,22 C55,17.589 51.411,14 47,14 L43.998,14 L45.2,12.399 C45.724,11.703 46,10.874 46,10 C46,7.794 44.206,6 42,6 C41.126,6 40.296,6.276 39.601,6.799 L38.821,7.386 L38.216,6.62 C35.791,3.555 32.691,2 29,2 C22.935,2 18,6.935 18,13 L16,13 C16,5.831 21.831,0 29,0 C32.983,0 36.494,1.617 39.206,4.688 C40.061,4.236 41.012,4 42,4 C45.309,4 48,6.691 48,10 C48,10.699 47.882,11.379 47.652,12.021 C52.863,12.358 57,16.705 57,22 L57,23 Z" id="Fill-19" fill="#2E3C3E"></path>
                    <path d="M32.9409,48.3389 L31.0589,47.6609 C31.7799,45.6579 34.2899,40.9999 41.9999,40.9999 C46.0639,40.9999 49.8679,42.5989 52.7129,45.5019 L51.2849,46.9009 C48.8189,44.3849 45.5219,42.9999 41.9999,42.9999 C35.7899,42.9999 33.6589,46.3449 32.9409,48.3389" id="Fill-20" fill="#2E3C3E"></path>
                    <path d="M19,60 L17,60 C17,54.486 21.486,50 27,50 C29.465,50 31.833,50.905 33.669,52.548 L32.335,54.038 C30.867,52.724 28.972,52 27,52 C22.589,52 19,55.589 19,60" id="Fill-21" fill="#2E3C3E"></path>
                    <path d="M56,60 L56,58 C59.309,58 62,55.309 62,52 C62,48.691 59.309,46 56,46 C52.691,46 50,48.691 50,52 L48,52 C48,47.589 51.589,44 56,44 C60.411,44 64,47.589 64,52 C64,56.411 60.411,60 56,60" id="Fill-22" fill="#2E3C3E"></path>
                    <polygon id="Fill-23" fill="#2E3C3E" points="42 60 56 60 56 58 42 58"></polygon>
                    <polygon id="Fill-24" fill="#2E3C3E" points="36 60 40 60 40 58 36 58"></polygon>
                    <polygon id="Fill-25" fill="#2E3C3E" points="6 64 10 64 10 62 6 62"></polygon>
                    <path d="M6,64 C2.691,64 0,61.309 0,58 C0,54.929 2.318,52.39 5.297,52.041 C6.653,48.914 9.921,47 14,47 C18.432,47 22,50.282 22,53 L20,53 C20,51.595 17.526,49 14,49 C10.538,49 7.836,50.654 6.949,53.316 L6.721,54 L6,54 C3.794,54 2,55.794 2,58 C2,60.206 3.794,62 6,62 L6,64 Z" id="Fill-26" fill="#2E3C3E"></path>
                </g>
            </g>
        </g>
    </g>
</svg>