<?xml version="1.0" encoding="UTF-8"?>
<svg width="64px" height="64px" viewBox="0 0 64 64" version="1.1" xmlns="http://www.w3.org/2000/svg" xmlns:xlink="http://www.w3.org/1999/xlink">
    <!-- Generator: Sketch 42 (36781) - http://www.bohemiancoding.com/sketch -->
    <title>Page 1</title>
    <desc>Created with Sketch.</desc>
    <defs>
        <polygon id="path-1" points="0 64 64 64 64 0 0 0"></polygon>
    </defs>
    <g id="Page-1" stroke="none" stroke-width="1" fill="none" fill-rule="evenodd">
        <g id="b2b_landing_cor" transform="translate(-695.000000, -1393.000000)">
            <g id="Group-16" transform="translate(695.000000, 1393.000000)">
                <g id="Page-1">
                    <path d="M64,35 C64,46.598 54.599,56 43,56 C31.401,56 22,46.598 22,35 C22,23.401 31.401,14 43,14 C54.599,14 64,23.401 64,35 L64,35 Z" id="Fill-1" fill="#B0DAF1"></path>
                    <mask id="mask-2" fill="white">
                        <use xlink:href="#path-1"></use>
                    </mask>
                    <g id="Clip-4"></g>
                    <polygon id="Fill-3" fill="#2E3C3E" mask="url(#mask-2)" points="31 64 33 64 33 41 31 41"></polygon>
                    <path d="M32,2 C29.794,2 28,3.794 28,6 C28,8.206 29.794,10 32,10 C34.206,10 36,8.206 36,6 C36,3.794 34.206,2 32,2 M32,12 C28.691,12 26,9.309 26,6 C26,2.691 28.691,0 32,0 C35.309,0 38,2.691 38,6 C38,9.309 35.309,12 32,12" id="Fill-5" fill="#2E3C3E" mask="url(#mask-2)"></path>
                    <polygon id="Fill-6" fill="#2E3C3E" mask="url(#mask-2)" points="38 64 40 64 40 38 38 38"></polygon>
                    <path d="M43,33 C42.448,33 42,32.553 42,32 L42,22 C42,18.691 39.309,16 36,16 L28,16 C26.04,16 24.199,16.962 23.075,18.572 C22.76,19.024 22.137,19.136 21.683,18.82 C21.23,18.504 21.119,17.881 21.435,17.428 C22.933,15.281 25.387,14 28,14 L36,14 C40.411,14 44,17.589 44,22 L44,32 C44,32.553 43.552,33 43,33" id="Fill-7" fill="#2E3C3E" mask="url(#mask-2)"></path>
                    <polygon id="Fill-8" fill="#2E3C3E" mask="url(#mask-2)" points="24 64 26 64 26 45 24 45"></polygon>
                    <path d="M13.7134,40.7012 C12.6404,41.7972 12.0004,43.4032 12.0004,45.0002 C12.0004,48.3082 14.6914,51.0002 18.0004,51.0002 C21.3084,51.0002 24.0004,48.3082 24.0004,45.0002 L24.0004,42.0002 C24.0004,39.2432 26.2434,37.0002 29.0004,37.0002 L62.0004,37.0002 L62.0004,33.0002 L29.0004,33.0002 C26.2434,33.0002 24.0004,30.7572 24.0004,28.0002 L24.0004,25.0002 C24.0004,21.6912 21.3084,19.0002 18.0004,19.0002 C14.6914,19.0002 12.0004,21.6912 12.0004,25.0002 C12.0004,26.5962 12.6404,28.2042 13.7134,29.2992 L13.7144,29.3002 L12.2854,30.7002 C11.2124,29.6032 9.6904,29.0002 8.0004,29.0002 C4.6914,29.0002 2.0004,31.6912 2.0004,35.0002 C2.0004,38.3082 4.6914,41.0002 8.0004,41.0002 C9.6904,41.0002 11.2124,40.3962 12.2854,39.3002 L13.7144,40.7002 C13.7144,40.7002 13.7134,40.7002 13.7134,40.7012 M18.0004,53.0002 C13.5894,53.0002 10.0004,49.4112 10.0004,45.0002 C10.0004,44.2112 10.1134,43.4302 10.3294,42.6852 C9.5914,42.8922 8.8094,43.0002 8.0004,43.0002 C3.5894,43.0002 0.0004,39.4112 0.0004,35.0002 C0.0004,30.5892 3.5894,27.0002 8.0004,27.0002 C8.8094,27.0002 9.5914,27.1072 10.3294,27.3142 C10.1134,26.5692 10.0004,25.7892 10.0004,25.0002 C10.0004,20.5892 13.5894,17.0002 18.0004,17.0002 C22.4114,17.0002 26.0004,20.5892 26.0004,25.0002 L26.0004,28.0002 C26.0004,29.6542 27.3454,31.0002 29.0004,31.0002 L64.0004,31.0002 L64.0004,39.0002 L29.0004,39.0002 C27.3454,39.0002 26.0004,40.3462 26.0004,42.0002 L26.0004,45.0002 C26.0004,49.4112 22.4114,53.0002 18.0004,53.0002" id="Fill-9" fill="#2E3C3E" mask="url(#mask-2)"></path>
                    <path d="M18,23 C16.897,23 16,23.897 16,25 C16,26.102 16.897,27 18,27 C19.103,27 20,26.102 20,25 C20,23.897 19.103,23 18,23 M18,29 C15.794,29 14,27.206 14,25 C14,22.794 15.794,21 18,21 C20.206,21 22,22.794 22,25 C22,27.206 20.206,29 18,29" id="Fill-10" fill="#2E3C3E" mask="url(#mask-2)"></path>
                    <path d="M18,43 C16.897,43 16,43.897 16,45 C16,46.102 16.897,47 18,47 C19.103,47 20,46.102 20,45 C20,43.897 19.103,43 18,43 M18,49 C15.794,49 14,47.206 14,45 C14,42.794 15.794,41 18,41 C20.206,41 22,42.794 22,45 C22,47.206 20.206,49 18,49" id="Fill-11" fill="#2E3C3E" mask="url(#mask-2)"></path>
                    <path d="M8,33 C6.897,33 6,33.897 6,35 C6,36.102 6.897,37 8,37 C9.103,37 10,36.102 10,35 C10,33.897 9.103,33 8,33 M8,39 C5.794,39 4,37.206 4,35 C4,32.794 5.794,31 8,31 C10.206,31 12,32.794 12,35 C12,37.206 10.206,39 8,39" id="Fill-12" fill="#2E3C3E" mask="url(#mask-2)"></path>
                    <polygon id="Fill-13" fill="#2E3C3E" mask="url(#mask-2)" points="17 36 19 36 19 34 17 34"></polygon>
                    <polygon id="Fill-14" fill="#2E3C3E" mask="url(#mask-2)" points="21 36 23 36 23 34 21 34"></polygon>
                    <polygon id="Fill-15" fill="#2E3C3E" mask="url(#mask-2)" points="62 47 58 47 58 45 60 45 60 39 54 39 54 45 56 45 56 47 52 47 52 37 62 37"></polygon>
                    <polygon id="Fill-16" fill="#2E3C3E" mask="url(#mask-2)" points="56 45 58 45 58 41 56 41"></polygon>
                    <polygon id="Fill-17" fill="#2E3C3E" mask="url(#mask-2)" points="31 20 33 20 33 18 31 18"></polygon>
                    <polygon id="Fill-18" fill="#2E3C3E" mask="url(#mask-2)" points="31 24 33 24 33 22 31 22"></polygon>
                </g>
            </g>
        </g>
    </g>
</svg>