<?xml version="1.0" encoding="UTF-8"?>
<svg width="50px" height="50px" viewBox="0 0 50 50" version="1.1" xmlns="http://www.w3.org/2000/svg" xmlns:xlink="http://www.w3.org/1999/xlink">
    <!-- Generator: Sketch 42 (36781) - http://www.bohemiancoding.com/sketch -->
    <title>Page 1</title>
    <desc>Created with Sketch.</desc>
    <defs></defs>
    <g id="Page-1" stroke="none" stroke-width="1" fill="none" fill-rule="evenodd">
        <g id="b2b_landing_com" transform="translate(-501.000000, -1166.000000)">
            <g id="Group-18" transform="translate(422.000000, 1166.000000)">
                <g id="Page-1" transform="translate(79.000000, 0.000000)">
                    <path d="M50.0001563,33.5936719 C50.0001563,42.6546094 42.655625,49.9999219 33.5939063,49.9999219 C24.5321875,49.9999219 17.1876563,42.6546094 17.1876563,33.5936719 C17.1876563,24.5319531 24.5321875,17.1874219 33.5939063,17.1874219 C42.655625,17.1874219 50.0001563,24.5319531 50.0001563,33.5936719" id="Fill-1" fill="#BFE0F3"></path>
                    <path d="M35.9376563,12.4999219 C35.0759375,12.4999219 34.3751563,13.2007031 34.3751563,14.0624219 C34.3751563,14.9241406 35.0759375,15.6249219 35.9376563,15.6249219 C36.799375,15.6249219 37.5001563,14.9241406 37.5001563,14.0624219 C37.5001563,13.2007031 36.799375,12.4999219 35.9376563,12.4999219 M35.9376563,17.1874219 C34.2142188,17.1874219 32.8126563,15.7858594 32.8126563,14.0624219 C32.8126563,12.3389844 34.2142188,10.9374219 35.9376563,10.9374219 C37.6610938,10.9374219 39.0626563,12.3389844 39.0626563,14.0624219 C39.0626563,15.7858594 37.6610938,17.1874219 35.9376563,17.1874219" id="Fill-4" fill="#2E3C3E"></path>
                    <path d="M4.68765625,26.5624219 L3.12515625,26.5624219 L3.12515625,5.46867187 C3.12515625,4.17648437 4.17671875,3.12492187 5.46890625,3.12492187 L26.5626563,3.12492187 L26.5626563,4.68742187 L5.46890625,4.68742187 C5.0384375,4.68742187 4.68765625,5.03820312 4.68765625,5.46867187 L4.68765625,26.5624219 Z" id="Fill-6" fill="#2E3C3E"></path>
                    <path d="M44.5314063,46.8749219 L23.4376563,46.8749219 L23.4376563,45.3124219 L44.5314063,45.3124219 C44.961875,45.3124219 45.3126563,44.9624219 45.3126563,44.5311719 L45.3126563,23.4374219 L46.8751563,23.4374219 L46.8751563,44.5311719 C46.8751563,45.8233594 45.8235938,46.8749219 44.5314063,46.8749219" id="Fill-8" fill="#2E3C3E"></path>
                    <polygon id="Fill-10" fill="#2E3C3E" points="6.25 7.81242187 17.1875 7.81242187 17.1875 6.24992187 6.25 6.24992187"></polygon>
                    <polygon id="Fill-12" fill="#2E3C3E" points="6.25 10.9374219 7.8125 10.9374219 7.8125 9.37492187 6.25 9.37492187"></polygon>
                    <polygon id="Fill-13" fill="#2E3C3E" points="9.375 10.9374219 10.9375 10.9374219 10.9375 9.37492187 9.375 9.37492187"></polygon>
                    <polygon id="Fill-14" fill="#2E3C3E" points="12.5 10.9374219 14.0625 10.9374219 14.0625 9.37492187 12.5 9.37492187"></polygon>
                    <polygon id="Fill-15" fill="#2E3C3E" points="24.21875 25.7811719 25.78125 25.7811719 25.78125 24.2186719 24.21875 24.2186719"></polygon>
                    <polygon id="Fill-16" fill="#2E3C3E" points="32.8125 43.7499219 43.75 43.7499219 43.75 42.1874219 32.8125 42.1874219"></polygon>
                    <polygon id="Fill-17" fill="#2E3C3E" points="42.1875 40.6249219 43.75 40.6249219 43.75 39.0624219 42.1875 39.0624219"></polygon>
                    <polygon id="Fill-18" fill="#2E3C3E" points="39.0625 40.6249219 40.625 40.6249219 40.625 39.0624219 39.0625 39.0624219"></polygon>
                    <polygon id="Fill-19" fill="#2E3C3E" points="35.9375 40.6249219 37.5 40.6249219 37.5 39.0624219 35.9375 39.0624219"></polygon>
                    <path d="M14.0626563,41.4061719 C12.3392188,41.4061719 10.9376563,40.0046094 10.9376563,38.2811719 L12.5001563,38.2811719 C12.5001563,39.1428906 13.2009375,39.8436719 14.0626563,39.8436719 C14.924375,39.8436719 15.6251563,39.1428906 15.6251563,38.2811719 C15.6251563,37.7741406 14.5126563,36.9952344 13.743125,36.6507031 C13.2751563,36.4405469 10.9376563,35.3069531 10.9376563,33.5936719 C10.9376563,31.8702344 12.3392188,30.4686719 14.0626563,30.4686719 C15.7860938,30.4686719 17.1876563,31.8702344 17.1876563,33.5936719 L15.6251563,33.5936719 C15.6251563,32.7319531 14.924375,32.0311719 14.0626563,32.0311719 C13.2009375,32.0311719 12.5001563,32.7319531 12.5001563,33.5936719 C12.5001563,34.1007031 13.6126563,34.8796094 14.3821875,35.2241406 C14.8501563,35.4342969 17.1876563,36.5678906 17.1876563,38.2811719 C17.1876563,40.0046094 15.7860938,41.4061719 14.0626563,41.4061719" id="Fill-20" fill="#2E3C3E"></path>
                    <polygon id="Fill-21" fill="#2E3C3E" points="13.28125 31.2499219 14.84375 31.2499219 14.84375 28.9061719 13.28125 28.9061719"></polygon>
                    <polygon id="Fill-22" fill="#2E3C3E" points="13.28125 42.9686719 14.84375 42.9686719 14.84375 40.6249219 13.28125 40.6249219"></polygon>
                    <polygon id="Fill-23" fill="#2E3C3E" points="18.75 36.7186719 20.3125 36.7186719 20.3125 35.1561719 18.75 35.1561719"></polygon>
                    <polygon id="Fill-24" fill="#2E3C3E" points="7.8125 36.7186719 9.375 36.7186719 9.375 35.1561719 7.8125 35.1561719"></polygon>
                    <path d="M35.9376563,22.6561719 C36.1751563,22.6561719 36.399375,22.7639844 36.5478125,22.9499219 L39.3103125,26.4030469 L42.1876563,25.2522656 L42.1876563,21.0936719 C42.1876563,20.6624219 42.5376563,20.3124219 42.9689063,20.3124219 L47.1275,20.3124219 L48.2782813,17.4350781 L44.8251563,14.6725781 C44.6392188,14.5241406 44.5314063,14.2999219 44.5314063,14.0624219 C44.5314063,13.8249219 44.6392188,13.6007031 44.8251563,13.4522656 L48.2782813,10.6897656 L47.1275,7.81242187 L42.9689063,7.81242187 C42.5376563,7.81242187 42.1876563,7.46242187 42.1876563,7.03117187 L42.1876563,2.87257812 L39.3103125,1.72179687 L36.5478125,5.17492187 C36.2517188,5.54601562 35.6235938,5.54601562 35.3275,5.17492187 L32.565,1.72179687 L29.6876563,2.87257812 L29.6876563,7.03117187 C29.6876563,7.46242187 29.3376563,7.81242187 28.9064063,7.81242187 L24.7478125,7.81242187 L23.5970313,10.6897656 L27.0501563,13.4522656 C27.2360938,13.6007031 27.3439063,13.8249219 27.3439063,14.0624219 C27.3439063,14.2999219 27.2360938,14.5241406 27.0501563,14.6725781 L23.5970313,17.4350781 L24.7478125,20.3124219 L28.9064063,20.3124219 C29.3376563,20.3124219 29.6876563,20.6624219 29.6876563,21.0936719 L29.6876563,25.2522656 L32.565,26.4030469 L35.3275,22.9499219 C35.4759375,22.7639844 35.7001563,22.6561719 35.9376563,22.6561719 M39.0634375,28.1249219 C38.830625,28.1249219 38.6040625,28.0210156 38.4525,27.8311719 L35.9376563,24.6882031 L33.4228125,27.8311719 C33.2079688,28.0999219 32.8423438,28.1952344 32.5220313,28.0694531 L28.6157813,26.5069531 C28.3196875,26.3874219 28.1251563,26.1007031 28.1251563,25.7811719 L28.1251563,21.8749219 L24.2189063,21.8749219 C23.899375,21.8749219 23.6126563,21.6803906 23.493125,21.3842969 L21.930625,17.4780469 C21.8032813,17.1577344 21.899375,16.7921094 22.1689063,16.5772656 L25.311875,14.0624219 L22.1689063,11.5475781 C21.899375,11.3327344 21.8032813,10.9671094 21.930625,10.6467969 L23.493125,6.74054687 C23.6126563,6.44445312 23.899375,6.24992187 24.2189063,6.24992187 L28.1251563,6.24992187 L28.1251563,2.34367187 C28.1251563,2.02414062 28.3196875,1.73742187 28.6157813,1.61789062 L32.5220313,0.055390625 C32.8423438,-0.071171875 33.2079688,0.024140625 33.4228125,0.293671875 L35.9376563,3.43664062 L38.4525,0.293671875 C38.668125,0.024140625 39.0321875,-0.071171875 39.3532813,0.055390625 L43.2595313,1.61789062 C43.555625,1.73742187 43.7501563,2.02414062 43.7501563,2.34367187 L43.7501563,6.24992187 L47.6564063,6.24992187 C47.9759375,6.24992187 48.2626563,6.44445312 48.3821875,6.74054687 L49.9446875,10.6467969 C50.0720313,10.9671094 49.9759375,11.3327344 49.7064063,11.5475781 L46.5634375,14.0624219 L49.7064063,16.5772656 C49.9759375,16.7921094 50.0720313,17.1577344 49.9446875,17.4780469 L48.3821875,21.3842969 C48.2626563,21.6803906 47.9759375,21.8749219 47.6564063,21.8749219 L43.7501563,21.8749219 L43.7501563,25.7811719 C43.7501563,26.1007031 43.555625,26.3874219 43.2595313,26.5069531 L39.3532813,28.0694531 C39.25875,28.1069531 39.1603125,28.1249219 39.0634375,28.1249219" id="Fill-25" fill="#2E3C3E"></path>
                    <path d="M35.9376563,8.59367187 C32.9220313,8.59367187 30.4689063,11.0467969 30.4689063,14.0624219 C30.4689063,17.0780469 32.9220313,19.5311719 35.9376563,19.5311719 C38.9532813,19.5311719 41.4064063,17.0780469 41.4064063,14.0624219 C41.4064063,11.0467969 38.9532813,8.59367187 35.9376563,8.59367187 M35.9376563,21.0936719 C32.0610938,21.0936719 28.9064063,17.9389844 28.9064063,14.0624219 C28.9064063,10.1858594 32.0610938,7.03117187 35.9376563,7.03117187 C39.8142188,7.03117187 42.9689063,10.1858594 42.9689063,14.0624219 C42.9689063,17.9389844 39.8142188,21.0936719 35.9376563,21.0936719" id="Fill-26" fill="#2E3C3E"></path>
                    <path d="M14.0626563,44.5311719 C14.3001563,44.5311719 14.524375,44.6389844 14.6728125,44.8241406 L17.4353125,48.2780469 L20.3126563,47.1272656 L20.3126563,42.9686719 C20.3126563,42.5366406 20.6626563,42.1874219 21.0939063,42.1874219 L25.2525,42.1874219 L26.4032813,39.3100781 L22.9501563,36.5475781 C22.7642188,36.3991406 22.6564063,36.1749219 22.6564063,35.9374219 C22.6564063,35.6999219 22.7642188,35.4757031 22.9501563,35.3272656 L26.4032813,32.5647656 L25.2525,29.6874219 L21.0939063,29.6874219 C20.6626563,29.6874219 20.3126563,29.3374219 20.3126563,28.9061719 L20.3126563,24.7475781 L17.4353125,23.5967969 L14.6728125,27.0499219 C14.3767188,27.4210156 13.7485938,27.4210156 13.4525,27.0499219 L10.69,23.5967969 L7.81265625,24.7475781 L7.81265625,28.9061719 C7.81265625,29.3374219 7.46265625,29.6874219 7.03140625,29.6874219 L2.8728125,29.6874219 L1.72203125,32.5647656 L5.17515625,35.3272656 C5.36109375,35.4757031 5.46890625,35.6999219 5.46890625,35.9374219 C5.46890625,36.1749219 5.36109375,36.3991406 5.17515625,36.5475781 L1.72203125,39.3100781 L2.8728125,42.1874219 L7.03140625,42.1874219 C7.46265625,42.1874219 7.81265625,42.5366406 7.81265625,42.9686719 L7.81265625,47.1272656 L10.69,48.2780469 L13.4525,44.8241406 C13.6009375,44.6389844 13.8251563,44.5311719 14.0626563,44.5311719 M17.1884375,49.9999219 C16.955625,49.9999219 16.7290625,49.8960156 16.5775,49.7069531 L14.0626563,46.5632031 L11.5478125,49.7069531 C11.3329688,49.9757031 10.968125,50.0717969 10.6470313,49.9444531 L6.74078125,48.3819531 C6.4446875,48.2624219 6.25015625,47.9757031 6.25015625,47.6561719 L6.25015625,43.7499219 L2.34390625,43.7499219 C2.024375,43.7499219 1.73765625,43.5553906 1.618125,43.2585156 L0.055625,39.3530469 C-0.07171875,39.0327344 0.024375,38.6671094 0.29390625,38.4522656 L3.436875,35.9374219 L0.29390625,33.4225781 C0.024375,33.2077344 -0.07171875,32.8421094 0.055625,32.5217969 L1.618125,28.6155469 C1.73765625,28.3194531 2.024375,28.1249219 2.34390625,28.1249219 L6.25015625,28.1249219 L6.25015625,24.2186719 C6.25015625,23.8991406 6.4446875,23.6124219 6.74078125,23.4928906 L10.6470313,21.9303906 C10.968125,21.8038281 11.3329688,21.8991406 11.5478125,22.1686719 L14.0626563,25.3116406 L16.5775,22.1686719 C16.7923438,21.8991406 17.1579688,21.8038281 17.4782813,21.9303906 L21.3845313,23.4928906 C21.680625,23.6124219 21.8751563,23.8991406 21.8751563,24.2186719 L21.8751563,28.1249219 L25.7814063,28.1249219 C26.1009375,28.1249219 26.3876563,28.3194531 26.5071875,28.6155469 L28.0696875,32.5217969 C28.1970313,32.8421094 28.1009375,33.2077344 27.8314063,33.4225781 L24.6884375,35.9374219 L27.8314063,38.4522656 C28.1009375,38.6671094 28.1970313,39.0327344 28.0696875,39.3530469 L26.5071875,43.2585156 C26.3876563,43.5553906 26.1009375,43.7499219 25.7814063,43.7499219 L21.8751563,43.7499219 L21.8751563,47.6561719 C21.8751563,47.9757031 21.680625,48.2624219 21.3845313,48.3819531 L17.4782813,49.9444531 C17.38375,49.9819531 17.2853125,49.9999219 17.1884375,49.9999219" id="Fill-27" fill="#2E3C3E"></path>
                </g>
            </g>
        </g>
    </g>
</svg>