<svg id="SvgjsSvg1032" xmlns="http://www.w3.org/2000/svg" version="1.1" xmlns:xlink="http://www.w3.org/1999/xlink" xmlns:svgjs="http://svgjs.com/svgjs" width="24" height="26"><defs id="SvgjsDefs1033"></defs><path id="SvgjsPath1034" d="M328 743L322 743L322 748C319.79 748 318 749.79 318 752C318 754.21 319.79 756 322 756L322 761L328 761C328 763.21 329.79 765 332 765C334.21 765 336 763.21 336 761L342 761L342 754L340 754C338.81 754 338 753.19 338 752C338 750.81 338.81 750 340 750L342 750L342 743L336 743C336 740.79 334.21 739 332 739C329.79 739 328 740.79 328 743ZM334 743L334 745L340 745L340 748C337.79 748 336 749.79 336 752C336 754.21 337.79 756 340 756L340 759L334 759L334 761C334 762.19 333.19 763 332 763C330.81 763 330 762.19 330 761L330 759L324 759L324 754L322 754C320.81 754 320 753.19 320 752C320 750.81 320.81 750 322 750L324 750L324 745L330 745L330 743C330 741.81 330.81 741 332 741C333.19 741 334 741.81 334 743Z " fill="#616161" fill-opacity="1" transform="matrix(1,0,0,1,-318,-739)"></path></svg>