<svg id="SvgjsSvg1023" xmlns="http://www.w3.org/2000/svg" version="1.1" xmlns:xlink="http://www.w3.org/1999/xlink"
	 xmlns:svgjs="http://svgjs.com/svgjs">
	<defs id="SvgjsDefs1024"></defs>
	<path id="SvgjsPath1025"
		  d="M210.09 317.91C210.09 321.43 211.8 324.55 214.41 326.55C211.48 327.83 209.06 329.99 207.31 332.68C205.76 333.21 204.6 334.72 204.86 336.49L204.81 336.49L205.26 339.90000000000003C202.85 340.46000000000004 201 342.61 201 345.18C201 348.17 203.46 350.64 206.45 350.64L235.54999999999998 350.64C238.54 350.64 240.99999999999997 348.16999999999996 240.99999999999997 345.18C240.99999999999997 342.53000000000003 239.03999999999996 340.31 236.50999999999996 339.84000000000003L236.96999999999997 336.55C236.96999999999997 336.53000000000003 236.95999999999998 336.51 236.96999999999997 336.49C237.20999999999998 334.82 236.20999999999998 333.40000000000003 234.80999999999997 332.8C233.04999999999998 330.12 230.56999999999996 327.93 227.58999999999997 326.6C230.20999999999998 324.61 231.90999999999997 321.44 231.90999999999997 317.91C231.90999999999997 311.91 226.99999999999997 307 220.99999999999997 307C214.99999999999997 307 210.08999999999997 311.91 210.08999999999997 317.91ZM233.39 336.09L231.91 346.94L231.91 347L209.92 347C209.94 347 209.92 346.95 209.92 346.94L208.44 336.09ZM228.27 317.91C228.27 321.95000000000005 225.04000000000002 325.18 221 325.18C216.96 325.18 213.73 321.95 213.73 317.91C213.73 313.87 216.95999999999998 310.64000000000004 221 310.64000000000004C225.04 310.64000000000004 228.27 313.87000000000006 228.27 317.91ZM229.86 332.45L212.02 332.45C214.33 330.15999999999997 217.48000000000002 328.82 221 328.82C224.43 328.82 227.56 330.24 229.86 332.45ZM228.27 339.73C228.27 340.73 229.09 341.55 230.09 341.55C231.1 341.55 231.91 340.73 231.91 339.73C231.91 338.72 231.1 337.91 230.09 337.91C229.09 337.91 228.27 338.72 228.27 339.73ZM237.36 345.18C237.36 346.19 236.55 347 235.55 347L236.06 343.48C236.8 343.71000000000004 237.36 344.36 237.36 345.18ZM206.23 346.94C205.34 346.82 204.64 346.11 204.64 345.18C204.64 344.43 205.11999999999998 343.81 205.76999999999998 343.53000000000003Z "
		  fill="#f5f5f5" fill-opacity="1" transform="matrix(1,0,0,1,-201,-307)"></path>
</svg>