<svg id="SvgjsSvg1041" xmlns="http://www.w3.org/2000/svg" version="1.1" xmlns:xlink="http://www.w3.org/1999/xlink" xmlns:svgjs="http://svgjs.com/svgjs" width="23" height="24"><defs id="SvgjsDefs1042"></defs><path id="SvgjsPath1043" d="M683 896.63L684.84 897.38C686.3000000000001 893.64 689.84 891 694.13 891C697.37 891 700.26 892.59 702.06 895L698.13 895L698.13 897L705.13 897L705.13 890L703.13 890L703.13 893.09C700.9399999999999 890.58 697.7 889 694.13 889C689.01 889 684.74 892.16 683 896.63ZM703.41 904.63L705.25 905.38C703.51 909.84 699.24 913 694.13 913C690.52 913 687.31 911.39 685.13 908.91L685.13 912L683.13 912L683.13 905L690.13 905L690.13 907L686.16 907C687.9699999999999 909.39 690.85 911 694.13 911C698.41 911 701.95 908.36 703.41 904.63Z " fill="#616161" fill-opacity="1" transform="matrix(1,0,0,1,-683,-889)"></path></svg>