<?xml version="1.0" encoding="UTF-8"?>
<svg width="44px" height="43px" viewBox="0 0 44 43" version="1.1" xmlns="http://www.w3.org/2000/svg" xmlns:xlink="http://www.w3.org/1999/xlink">
    <!-- Generator: Sketch 42 (36781) - http://www.bohemiancoding.com/sketch -->
    <title>Group 11</title>
    <desc>Created with Sketch.</desc>
    <defs></defs>
    <g id="Page-1" stroke="none" stroke-width="1" fill="none" fill-rule="evenodd">
        <g id="b2b_landing_cor" transform="translate(-549.000000, -2237.000000)">
            <g id="Group-10" transform="translate(274.000000, 2231.000000)">
                <g id="Group-11" transform="translate(275.000000, 6.000000)">
                    <circle id="Oval-Copy" fill="#B0DAF1" cx="20" cy="23" r="20"></circle>
                    <path d="M43.125,34.59375 L21.75,34.59375 L21.75,32.4375 L32.9296875,19.7578125 C33.9765677,18.5703066 34.8632776,17.5000048 35.5898438,16.546875 C36.3164099,15.5937452 36.9023415,14.7070354 37.3476562,13.8867188 C37.792971,13.0664021 38.1132803,12.2929724 38.3085938,11.5664062 C38.5039072,10.8398401 38.6015625,10.1171911 38.6015625,9.3984375 C38.6015625,8.36718234 38.4492203,7.42578551 38.1445312,6.57421875 C37.8398422,5.72265199 37.3867218,4.98437812 36.7851562,4.359375 C36.1835907,3.73437188 35.4375045,3.25000172 34.546875,2.90625 C33.6562455,2.56249828 32.6328183,2.390625 31.4765625,2.390625 C30.2890566,2.390625 29.222661,2.58984176 28.2773438,2.98828125 C27.3320265,3.38672074 26.5273471,3.93749648 25.8632812,4.640625 C25.1992154,5.34375352 24.6875018,6.17968266 24.328125,7.1484375 C23.9687482,8.11719234 23.7890625,9.1718693 23.7890625,10.3125 L21,10.3125 C21,8.90624297 21.2382789,7.57813125 21.7148438,6.328125 C22.1914086,5.07811875 22.882808,3.98437969 23.7890625,3.046875 C24.695317,2.10937031 25.7929623,1.36719023 27.0820312,0.8203125 C28.3711002,0.273434766 29.8359293,0 31.4765625,0 C33.0078202,0 34.3906188,0.20702918 35.625,0.62109375 C36.8593812,1.03515832 37.9062457,1.6367148 38.765625,2.42578125 C39.6250043,3.2148477 40.2851539,4.17577559 40.7460938,5.30859375 C41.2070336,6.44141191 41.4375,7.72655531 41.4375,9.1640625 C41.4375,10.1953177 41.2500019,11.2343698 40.875,12.28125 C40.4999981,13.3281302 40.0000031,14.3671823 39.375,15.3984375 C38.7499969,16.4296927 38.0312541,17.4531199 37.21875,18.46875 C36.4062459,19.4843801 35.5703168,20.4843701 34.7109375,21.46875 L25.1953125,32.2265625 L43.125,32.2265625 L43.125,34.59375 Z" id="2" fill="#212121"></path>
                </g>
            </g>
        </g>
    </g>
</svg>