<?xml version="1.0" encoding="UTF-8"?>
<svg width="43px" height="43px" viewBox="0 0 43 43" version="1.1" xmlns="http://www.w3.org/2000/svg" xmlns:xlink="http://www.w3.org/1999/xlink">
    <!-- Generator: Sketch 42 (36781) - http://www.bohemiancoding.com/sketch -->
    <title>Group 29</title>
    <desc>Created with Sketch.</desc>
    <defs></defs>
    <g id="Page-1" stroke="none" stroke-width="1" fill="none" fill-rule="evenodd">
        <g id="b2b_landing_cor" transform="translate(-814.000000, -2237.000000)">
            <g id="Group-10" transform="translate(274.000000, 2231.000000)">
                <g id="Group-29" transform="translate(540.000000, 6.000000)">
                    <circle id="Oval-Copy-2" fill="#B0DAF1" cx="20" cy="23" r="20"></circle>
                    <path d="M28.1484375,16.0078125 L31.0078125,16.0078125 C32.3203191,16.0078125 33.4726513,15.832033 34.4648438,15.4804687 C35.4570362,15.1289045 36.2890591,14.6523468 36.9609375,14.0507812 C37.6328159,13.4492157 38.1367171,12.7460978 38.4726562,11.9414062 C38.8085954,11.1367147 38.9765625,10.2812545 38.9765625,9.375 C38.9765625,8.34374484 38.8320327,7.40234801 38.5429688,6.55078125 C38.2539048,5.69921449 37.8164092,4.96484684 37.2304688,4.34765625 C36.6445283,3.73046566 35.9023482,3.25000172 35.0039062,2.90625 C34.1054643,2.56249828 33.0390687,2.390625 31.8046875,2.390625 C30.7265571,2.390625 29.7343795,2.55468586 28.828125,2.8828125 C27.9218705,3.21093914 27.1328159,3.67968445 26.4609375,4.2890625 C25.7890591,4.89844055 25.2656269,5.63671441 24.890625,6.50390625 C24.5156231,7.37109809 24.328125,8.34374461 24.328125,9.421875 L21.515625,9.421875 C21.515625,8.04686813 21.7773411,6.78125578 22.3007812,5.625 C22.8242214,4.46874422 23.5429642,3.47266043 24.4570312,2.63671875 C25.3710983,1.80077707 26.457025,1.15234605 27.7148438,0.69140625 C28.9726625,0.230466445 30.3359302,0 31.8046875,0 C33.304695,0 34.6718688,0.210935391 35.90625,0.6328125 C37.1406312,1.05468961 38.1914019,1.66796473 39.0585938,2.47265625 C39.9257856,3.27734777 40.5976539,4.26561914 41.0742188,5.4375 C41.5507836,6.60938086 41.7890625,7.95311742 41.7890625,9.46875 C41.7890625,10.2343788 41.6640637,10.99609 41.4140625,11.7539062 C41.1640613,12.5117225 40.7968774,13.2265591 40.3125,13.8984375 C39.8281226,14.5703159 39.2187537,15.183591 38.484375,15.7382812 C37.7499963,16.2929715 36.9062548,16.7499982 35.953125,17.109375 C37.0781306,17.4218766 38.0468709,17.8476536 38.859375,18.3867187 C39.6718791,18.9257839 40.3398411,19.5546839 40.8632812,20.2734375 C41.3867214,20.9921911 41.7773425,21.7812457 42.0351562,22.640625 C42.29297,23.5000043 42.421875,24.3984328 42.421875,25.3359375 C42.421875,26.8828202 42.1562527,28.2578065 41.625,29.4609375 C41.0937473,30.6640685 40.3593797,31.6835896 39.421875,32.5195312 C38.4843703,33.3554729 37.3750064,33.9882791 36.09375,34.4179687 C34.8124936,34.8476584 33.4218825,35.0625 31.921875,35.0625 C30.531243,35.0625 29.1836003,34.859377 27.8789062,34.453125 C26.5742122,34.046873 25.4101614,33.4414103 24.3867188,32.6367187 C23.3632761,31.8320272 22.5429718,30.8203186 21.9257812,29.6015625 C21.3085907,28.3828064 21,26.9609456 21,25.3359375 L23.8125,25.3359375 C23.8125,26.4140679 24.0117168,27.4062455 24.4101562,28.3125 C24.8085957,29.2187545 25.3671839,29.9960905 26.0859375,30.6445312 C26.8046911,31.292972 27.6601513,31.7968732 28.6523438,32.15625 C29.6445362,32.5156268 30.7343691,32.6953125 31.921875,32.6953125 C34.3437621,32.6953125 36.230462,32.074225 37.5820312,30.8320312 C38.9336005,29.5898375 39.609375,27.7890743 39.609375,25.4296875 C39.609375,24.1953063 39.4023458,23.132817 38.9882812,22.2421875 C38.5742167,21.351558 37.988285,20.6210966 37.2304688,20.0507812 C36.4726525,19.4804659 35.5664115,19.0625013 34.5117188,18.796875 C33.457026,18.5312487 32.2890689,18.3984375 31.0078125,18.3984375 L28.1484375,18.3984375 L28.1484375,16.0078125 Z" id="3" fill="#212121"></path>
                </g>
            </g>
        </g>
    </g>
</svg>