<?xml version="1.0" encoding="UTF-8"?>
<svg width="64px" height="64px" viewBox="0 0 64 64" version="1.1" xmlns="http://www.w3.org/2000/svg" xmlns:xlink="http://www.w3.org/1999/xlink">
    <!-- Generator: Sketch 42 (36781) - http://www.bohemiancoding.com/sketch -->
    <title>Page 1</title>
    <desc>Created with Sketch.</desc>
    <defs>
        <polygon id="path-1" points="0 64 64 64 64 0 0 0"></polygon>
    </defs>
    <g id="Page-1" stroke="none" stroke-width="1" fill="none" fill-rule="evenodd">
        <g id="b2b_landing_cor" transform="translate(-978.000000, -600.000000)">
            <g id="Group-22" transform="translate(870.000000, 600.000000)">
                <g id="Group-19">
                    <g id="Page-1" transform="translate(108.000000, 0.000000)">
                        <path d="M42,43 C42,54.597 32.599,64 21,64 C9.401,64 0,54.597 0,43 C0,31.401 9.401,22 21,22 C32.599,22 42,31.401 42,43 L42,43 Z" id="Fill-1" fill="#B0DAF1"></path>
                        <path d="M35,10 C20.663,10 9,21.663 9,36 C9,50.337 20.663,62 35,62 C49.337,62 61,50.337 61,36 C61,21.663 49.337,10 35,10 M35,64 C19.56,64 7,51.439 7,36 C7,20.561 19.56,8 35,8 C50.439,8 63,20.561 63,36 C63,51.439 50.439,64 35,64" id="Fill-3" fill="#2E3C3E"></path>
                        <path d="M35,2 C33.346,2 32,3.346 32,5 C32,6.654 33.346,8 35,8 C36.654,8 38,6.654 38,5 C38,3.346 36.654,2 35,2 M35,10 C32.243,10 30,7.757 30,5 C30,2.243 32.243,0 35,0 C37.757,0 40,2.243 40,5 C40,7.757 37.757,10 35,10" id="Fill-5" fill="#2E3C3E"></path>
                        <mask id="mask-2" fill="white">
                            <use xlink:href="#path-1"></use>
                        </mask>
                        <g id="Clip-8"></g>
                        <polygon id="Fill-7" fill="#2E3C3E" mask="url(#mask-2)" points="34 14 36 14 36 12 34 12"></polygon>
                        <polygon id="Fill-9" fill="#2E3C3E" mask="url(#mask-2)" points="21.707 50.707 20.293 49.293 32.293 37.293 33.707 38.707"></polygon>
                        <polygon id="Fill-10" fill="#2E3C3E" mask="url(#mask-2)" points="15.2949 17.709 12.2929 14.707 13.7069 13.293 16.7089 16.295"></polygon>
                        <polygon id="Fill-11" fill="#2E3C3E" mask="url(#mask-2)" points="11 37 13 37 13 35 11 35"></polygon>
                        <polygon id="Fill-12" fill="#2E3C3E" mask="url(#mask-2)" points="57 37 59 37 59 35 57 35"></polygon>
                        <polygon id="Fill-13" fill="#2E3C3E" mask="url(#mask-2)" points="34 60 36 60 36 58 34 58"></polygon>
                        <path d="M35,34 C33.897,34 33,34.897 33,36 C33,37.102 33.897,38 35,38 C36.102,38 37,37.102 37,36 C37,34.897 36.102,34 35,34 M35,40 C32.794,40 31,38.206 31,36 C31,33.794 32.794,32 35,32 C37.206,32 39,33.794 39,36 C39,38.206 37.206,40 35,40" id="Fill-14" fill="#2E3C3E" mask="url(#mask-2)"></path>
                        <path d="M8.4141,14 L10.0001,15.586 L14.5861,11 L13.0001,9.414 L8.4141,14 Z M10.0001,18 C9.7441,18 9.4881,17.902 9.2931,17.707 L6.2931,14.707 C5.9021,14.316 5.9021,13.684 6.2931,13.293 L12.2931,7.293 C12.6841,6.902 13.3161,6.902 13.7071,7.293 L16.7071,10.293 C17.0981,10.684 17.0981,11.316 16.7071,11.707 L10.7071,17.707 C10.5121,17.902 10.2561,18 10.0001,18 L10.0001,18 Z" id="Fill-15" fill="#2E3C3E" mask="url(#mask-2)"></path>
                        <polygon id="Fill-16" fill="#2E3C3E" mask="url(#mask-2)" points="54.707 17.709 53.293 16.295 56.295 13.293 57.709 14.707"></polygon>
                        <path d="M55.4141,11 L60.0001,15.586 L61.5861,14 L57.0001,9.414 L55.4141,11 Z M60.0001,18 C59.7441,18 59.4881,17.902 59.2931,17.707 L53.2931,11.707 C52.9021,11.316 52.9021,10.684 53.2931,10.293 L56.2931,7.293 C56.6841,6.902 57.3161,6.902 57.7071,7.293 L63.7071,13.293 C64.0981,13.684 64.0981,14.316 63.7071,14.707 L60.7071,17.707 C60.5121,17.902 60.2561,18 60.0001,18 L60.0001,18 Z" id="Fill-17" fill="#2E3C3E" mask="url(#mask-2)"></path>
                        <path d="M35,56 C29.659,56 24.638,53.921 20.86,50.145 L22.274,48.73 C25.674,52.129 30.193,54 35,54 C44.925,54 53,45.925 53,36 C53,26.075 44.925,18 35,18 L35,16 C46.028,16 55,24.972 55,36 C55,47.028 46.028,56 35,56" id="Fill-18" fill="#2E3C3E" mask="url(#mask-2)"></path>
                        <path d="M35,50 C31.263,50 27.747,48.544 25.102,45.9 L26.516,44.486 C28.783,46.752 31.797,48 35,48 C41.617,48 47,42.617 47,36 C47,29.383 41.617,24 35,24 L35,22 C42.72,22 49,28.28 49,36 C49,43.72 42.72,50 35,50" id="Fill-19" fill="#2E3C3E" mask="url(#mask-2)"></path>
                        <polygon id="Fill-20" fill="#2E3C3E" mask="url(#mask-2)" points="15 37 17 37 17 35 15 35"></polygon>
                        <polygon id="Fill-21" fill="#2E3C3E" mask="url(#mask-2)" points="19 37 21 37 21 35 19 35"></polygon>
                        <polygon id="Fill-22" fill="#2E3C3E" mask="url(#mask-2)" points="23 37 25 37 25 35 23 35"></polygon>
                        <polygon id="Fill-23" fill="#2E3C3E" mask="url(#mask-2)" points="27 37 29 37 29 35 27 35"></polygon>
                        <polygon id="Fill-24" fill="#2E3C3E" mask="url(#mask-2)" points="34 9 36 9 36 5 34 5"></polygon>
                    </g>
                </g>
            </g>
        </g>
    </g>
</svg>