<?xml version="1.0" encoding="UTF-8"?>
<svg width="64px" height="60px" viewBox="0 0 64 60" version="1.1" xmlns="http://www.w3.org/2000/svg" xmlns:xlink="http://www.w3.org/1999/xlink">
    <!-- Generator: Sketch 42 (36781) - http://www.bohemiancoding.com/sketch -->
    <title>Page 1</title>
    <desc>Created with Sketch.</desc>
    <defs></defs>
    <g id="Page-1" stroke="none" stroke-width="1" fill="none" fill-rule="evenodd">
        <g id="b2b_landing_cor" transform="translate(-978.000000, -1731.000000)">
            <g id="Group-23" transform="translate(870.000000, 1731.000000)">
                <g id="Page-1" transform="translate(108.000000, 0.000000)">
                    <path d="M64,21 C64,32.597 54.599,42 43,42 C31.401,42 22,32.597 22,21 C22,9.396 31.401,0 43,0 C54.599,0 64,9.396 64,21 L64,21 Z" id="Fill-1" fill="#B0DAF1"></path>
                    <polygon id="Fill-3" fill="#2E3C3E" points="0 58 64 58 64 56 0 56"></polygon>
                    <path d="M4,54 L2,54 L2,20 C2,15.589 5.589,12 10,12 C14.411,12 18,15.589 18,20 L18,25 L16,25 L16,20 C16,16.691 13.309,14 10,14 C6.691,14 4,16.691 4,20 L4,54 Z" id="Fill-5" fill="#2E3C3E"></path>
                    <path d="M36,53 L34,53 C34,51.346 32.654,50 31,50 L6,50 L6,48 L31,48 C33.757,48 36,50.243 36,53" id="Fill-6" fill="#2E3C3E"></path>
                    <path d="M8,37 L6,37 L6,35 L8,35 L8,33 L6,33 L6,31 L8,31 C9.102,31 10,31.897 10,33 L10,35 C10,36.102 9.102,37 8,37" id="Fill-7" fill="#2E3C3E"></path>
                    <path d="M14,33 L14,35 L22.002,35 L22,33 L14,33 Z M22,37 L14,37 C12.897,37 12,36.102 12,35 L12,33 C12,31.897 12.897,31 14,31 L22,31 C23.102,31 24,31.897 24,33 L24,35 C24,36.102 23.102,37 22,37 L22,37 Z" id="Fill-8" fill="#2E3C3E"></path>
                    <polygon id="Fill-9" fill="#2E3C3E" points="2 60 4 60 4 57 2 57"></polygon>
                    <polygon id="Fill-10" fill="#2E3C3E" points="6 60 8 60 8 57 6 57"></polygon>
                    <polygon id="Fill-11" fill="#2E3C3E" points="10 60 12 60 12 57 10 57"></polygon>
                    <polygon id="Fill-12" fill="#2E3C3E" points="14 60 16 60 16 57 14 57"></polygon>
                    <polygon id="Fill-13" fill="#2E3C3E" points="18 60 20 60 20 57 18 57"></polygon>
                    <polygon id="Fill-14" fill="#2E3C3E" points="22 60 24 60 24 57 22 57"></polygon>
                    <polygon id="Fill-15" fill="#2E3C3E" points="26 60 28 60 28 57 26 57"></polygon>
                    <polygon id="Fill-16" fill="#2E3C3E" points="30 60 32 60 32 57 30 57"></polygon>
                    <polygon id="Fill-17" fill="#2E3C3E" points="34 60 36 60 36 57 34 57"></polygon>
                    <polygon id="Fill-18" fill="#2E3C3E" points="38 60 40 60 40 57 38 57"></polygon>
                    <polygon id="Fill-19" fill="#2E3C3E" points="42 60 44 60 44 57 42 57"></polygon>
                    <polygon id="Fill-20" fill="#2E3C3E" points="46 60 48 60 48 57 46 57"></polygon>
                    <polygon id="Fill-21" fill="#2E3C3E" points="50 60 52 60 52 57 50 57"></polygon>
                    <polygon id="Fill-22" fill="#2E3C3E" points="54 60 56 60 56 57 54 57"></polygon>
                    <polygon id="Fill-23" fill="#2E3C3E" points="58 60 60 60 60 57 58 57"></polygon>
                    <polygon id="Fill-24" fill="#2E3C3E" points="62 60 64 60 64 57 62 57"></polygon>
                    <path d="M56,54 L6,54 L6,52 L56,52 C58.206,52 60,50.206 60,48 L60,46 C60,43.523 48.364,29 35,29 L6,29 L6,27 L35,27 C49.543,27 62,42.392 62,46 L62,48 C62,51.309 59.309,54 56,54" id="Fill-25" fill="#2E3C3E"></path>
                    <path d="M60,44 L47,44 C39.589,44 34,38.411 34,31 L34,28 L36,28 L36,31 C36,37.271 40.728,42 47,42 L60,42 L60,44 Z" id="Fill-26" fill="#2E3C3E"></path>
                    <polygon id="Fill-27" fill="#2E3C3E" points="56 48 61 48 61 46 56 46"></polygon>
                    <polygon id="Fill-28" fill="#2E3C3E" points="52 48 54 48 54 46 52 46"></polygon>
                    <polygon id="Fill-29" fill="#2E3C3E" points="30 33 32 33 32 31 30 31"></polygon>
                    <polygon id="Fill-30" fill="#2E3C3E" points="26 33 28 33 28 31 26 31"></polygon>
                    <polygon id="Fill-31" fill="#2E3C3E" points="6 43 24 43 24 41 6 41"></polygon>
                    <path d="M64,35 L62,35 L62,34 C62,29.589 58.411,26 54,26 L50.998,26 L52.2,24.399 C52.724,23.703 53,22.873 53,22 C53,19.794 51.206,18 49,18 C48.126,18 47.296,18.276 46.601,18.799 L45.821,19.386 L45.216,18.62 C42.791,15.555 39.69,14 36,14 C29.935,14 25,18.935 25,25 L23,25 C23,17.832 28.832,12 36,12 C39.983,12 43.494,13.617 46.206,16.688 C47.061,16.235 48.012,16 49,16 C52.309,16 55,18.691 55,22 C55,22.699 54.882,23.38 54.652,24.021 C59.863,24.358 64,28.705 64,34 L64,35 Z" id="Fill-32" fill="#2E3C3E"></path>
                </g>
            </g>
        </g>
    </g>
</svg>