<?xml version="1.0" encoding="UTF-8"?>
<svg width="60px" height="64px" viewBox="0 0 60 64" version="1.1" xmlns="http://www.w3.org/2000/svg" xmlns:xlink="http://www.w3.org/1999/xlink">
    <!-- Generator: Sketch 42 (36781) - http://www.bohemiancoding.com/sketch -->
    <title>Page 1</title>
    <desc>Created with Sketch.</desc>
    <defs>
        <polygon id="path-1" points="60 56.2788 60 0.0008 0.0004 0.0008 0.0004 56.2788 60 56.2788"></polygon>
        <polygon id="path-3" points="0 64 60 64 60 0 0 0"></polygon>
    </defs>
    <g id="Page-1" stroke="none" stroke-width="1" fill="none" fill-rule="evenodd">
        <g id="b2b_landing_com" transform="translate(-245.000000, -1585.000000)">
            <g id="Group-21" transform="translate(131.000000, 1585.000000)">
                <g id="Page-1" transform="translate(114.000000, 0.000000)">
                    <path d="M50,20 C50,31.046 41.046,40 30,40 C18.954,40 10,31.046 10,20 C10,8.949 18.954,0 30,0 C41.046,0 50,8.949 50,20 L50,20 Z" id="Fill-1" fill="#B0DAF1"></path>
                    <path d="M30,34.0005 C28.346,34.0005 27,35.3465 27,37.0005 C27,38.6545 28.346,40.0005 30,40.0005 C31.654,40.0005 33,38.6545 33,37.0005 C33,35.3465 31.654,34.0005 30,34.0005 M30,42.0005 C27.243,42.0005 25,39.7575 25,37.0005 C25,34.2435 27.243,32.0005 30,32.0005 C32.757,32.0005 35,34.2435 35,37.0005 C35,39.7575 32.757,42.0005 30,42.0005" id="Fill-3" fill="#192324"></path>
                    <path d="M37,50 L32,50 C31.665,50 31.354,49.833 31.168,49.555 L30,47.803 L28.832,49.555 C28.646,49.833 28.335,50 28,50 L23,50 L23,48 L27.465,48 L29.168,45.445 C29.539,44.889 30.461,44.889 30.832,45.445 L32.535,48 L37,48 L37,50 Z" id="Fill-5" fill="#192324"></path>
                    <path d="M31,64 L20,64 C17.794,64 16,62.206 16,60 C16,59.735 16.105,59.48 16.293,59.293 L23.293,52.293 L24.707,53.707 L18.036,60.378 C18.213,61.301 19.026,62 20,62 L31,62 C31.551,62 32,61.551 32,61 C32,60.449 31.551,60 31,60 L23,60 L23,58 L31,58 C32.654,58 34,59.346 34,61 C34,62.654 32.654,64 31,64" id="Fill-7" fill="#192324"></path>
                    <path d="M40,64 L36,64 L36,62 L40,62 C40.973,62 41.787,61.301 41.964,60.379 L35.293,53.707 L36.707,52.293 L43.7,59.287 C43.89,59.474 44,59.73 44,60 C44,62.206 42.206,64 40,64" id="Fill-9" fill="#192324"></path>
                    <path d="M20.0142,50.2402 C20.1332,51.2302 20.9782,52.0002 22.0002,52.0002 L38.0002,52.0002 C39.0212,52.0002 39.8672,51.2302 39.9862,50.2402 L36.3342,43.8502 L30.0002,42.0402 L23.6662,43.8502 L20.0142,50.2402 Z M38.0002,54.0002 L22.0002,54.0002 C19.7942,54.0002 18.0002,52.2052 18.0002,50.0002 C18.0002,49.8262 18.0452,49.6552 18.1322,49.5042 L22.1322,42.5042 C22.2612,42.2782 22.4742,42.1112 22.7252,42.0392 L29.7252,40.0392 C29.9052,39.9872 30.0952,39.9872 30.2752,40.0392 L37.2752,42.0392 C37.5262,42.1112 37.7392,42.2782 37.8682,42.5042 L41.8682,49.5042 C41.9542,49.6552 42.0002,49.8262 42.0002,50.0002 C42.0002,52.2052 40.2052,54.0002 38.0002,54.0002 L38.0002,54.0002 Z" id="Fill-11" fill="#192324"></path>
                    <g id="Group-15">
                        <mask id="mask-2" fill="white">
                            <use xlink:href="#path-1"></use>
                        </mask>
                        <g id="Clip-14"></g>
                        <path d="M44.4834,56.2788 L43.5164,54.5278 C52.4504,49.5928 58.0004,40.1948 58.0004,30.0008 C58.0004,14.5608 45.4394,2.0008 30.0004,2.0008 C14.5604,2.0008 2.0004,14.5608 2.0004,30.0008 C2.0004,40.1948 7.5494,49.5928 16.4834,54.5278 L15.5164,56.2788 C5.9454,50.9918 0.0004,40.9228 0.0004,30.0008 C0.0004,13.4588 13.4584,0.0008 30.0004,0.0008 C46.5424,0.0008 60.0004,13.4588 60.0004,30.0008 C60.0004,40.9228 54.0544,50.9918 44.4834,56.2788" id="Fill-13" fill="#192324" mask="url(#mask-2)"></path>
                    </g>
                    <mask id="mask-4" fill="white">
                        <use xlink:href="#path-3"></use>
                    </mask>
                    <g id="Clip-17"></g>
                    <polygon id="Fill-16" fill="#192324" mask="url(#mask-4)" points="29 30 31 30 31 28 29 28"></polygon>
                    <polygon id="Fill-18" fill="#192324" mask="url(#mask-4)" points="29 26 31 26 31 24 29 24"></polygon>
                    <polygon id="Fill-19" fill="#192324" mask="url(#mask-4)" points="29 22 31 22 31 20 29 20"></polygon>
                </g>
            </g>
        </g>
    </g>
</svg>