<?xml version="1.0" encoding="UTF-8"?>
<svg width="50px" height="47px" viewBox="0 0 50 47" version="1.1" xmlns="http://www.w3.org/2000/svg" xmlns:xlink="http://www.w3.org/1999/xlink">
    <!-- Generator: Sketch 42 (36781) - http://www.bohemiancoding.com/sketch -->
    <title>Page 1</title>
    <desc>Created with Sketch.</desc>
    <defs>
        <polygon id="path-1" points="0 46.875 50 46.875 50 0 0 0"></polygon>
    </defs>
    <g id="Page-1" stroke="none" stroke-width="1" fill="none" fill-rule="evenodd">
        <g id="b2b_landing_com" transform="translate(-766.000000, -1169.000000)">
            <g id="Group-19" transform="translate(686.000000, 1169.000000)">
                <g id="Page-1" transform="translate(80.000000, 0.000000)">
                    <path d="M33.59375,30.46875 C33.59375,39.5296875 26.2492188,46.875 17.1875,46.875 C8.12578125,46.875 0.78125,39.5296875 0.78125,30.46875 C0.78125,21.4070312 8.12578125,14.0625 17.1875,14.0625 C26.2492188,14.0625 33.59375,21.4070312 33.59375,30.46875 L33.59375,30.46875 Z" id="Fill-1" fill="#BFE0F3"></path>
                    <path d="M41.40625,11.71875 C39.040625,11.71875 38.28125,12.5734375 38.28125,15.234375 C38.28125,17.3171875 39.3765625,19.53125 41.40625,19.53125 C43.4359375,19.53125 44.53125,17.3171875 44.53125,15.234375 C44.53125,12.5734375 43.771875,11.71875 41.40625,11.71875 M41.40625,21.09375 C38.734375,21.09375 36.71875,18.5742188 36.71875,15.234375 C36.71875,12.8703125 37.2515625,10.15625 41.40625,10.15625 C45.5609375,10.15625 46.09375,12.8703125 46.09375,15.234375 C46.09375,18.5742188 44.078125,21.09375 41.40625,21.09375" id="Fill-3" fill="#2E3C3E"></path>
                    <polygon id="Fill-5" fill="#2E3C3E" points="35.5582812 22.5448437 34.754375 21.205 38.660625 18.86125 39.4645312 20.2010937"></polygon>
                    <path d="M47.65625,27.34375 L42.96875,27.34375 L42.96875,25.78125 L47.65625,25.78125 C47.8882812,25.78125 48.4375,25.175 48.4375,24.21875 L48.4375,23.109375 L43.3625,20.209375 L44.1375,18.853125 L50,22.203125 L50,24.21875 C50,25.9125 48.9265625,27.34375 47.65625,27.34375" id="Fill-7" fill="#2E3C3E"></path>
                    <path d="M8.59375,11.71875 C6.228125,11.71875 5.46875,12.5734375 5.46875,15.234375 C5.46875,17.3171875 6.5640625,19.53125 8.59375,19.53125 C10.6234375,19.53125 11.71875,17.3171875 11.71875,15.234375 C11.71875,12.5734375 10.959375,11.71875 8.59375,11.71875 M8.59375,21.09375 C5.921875,21.09375 3.90625,18.5742188 3.90625,15.234375 C3.90625,12.8703125 4.4390625,10.15625 8.59375,10.15625 C12.7484375,10.15625 13.28125,12.8703125 13.28125,15.234375 C13.28125,18.5742188 11.265625,21.09375 8.59375,21.09375" id="Fill-9" fill="#2E3C3E"></path>
                    <polygon id="Fill-11" fill="#2E3C3E" points="14.4417187 22.5448437 10.5354687 20.2010937 11.339375 18.86125 15.245625 21.205"></polygon>
                    <path d="M7.03125,27.34375 L2.34375,27.34375 C1.0734375,27.34375 0,25.9125 0,24.21875 L0,22.203125 L5.8625,18.853125 L6.6375,20.209375 L1.5625,23.109375 L1.5625,24.21875 C1.5625,25.175 2.11171875,25.78125 2.34375,25.78125 L7.03125,25.78125 L7.03125,27.34375 Z" id="Fill-13" fill="#2E3C3E"></path>
                    <path d="M8.59375,40.625 L7.03125,40.625 L7.03125,33.59375 C7.03125,27.3359375 10.5046875,26.015625 14.18125,24.61875 C15.5429688,24.1015625 16.95,23.5664063 18.3625,22.759375 L19.1375,24.115625 C17.6195313,24.9835938 16.0875,25.565625 14.7367187,26.0789063 C11.0375,27.4851563 8.59375,28.4132813 8.59375,33.59375 L8.59375,40.625 Z" id="Fill-15" fill="#2E3C3E"></path>
                    <path d="M42.96875,40.625 L41.40625,40.625 L41.40625,33.59375 C41.40625,28.4132813 38.9625,27.4851563 35.2632813,26.0789063 C33.9125,25.565625 32.3804688,24.9835938 30.8625,24.115625 L31.6375,22.759375 C33.05,23.5664063 34.4570313,24.1015625 35.81875,24.61875 C39.4953125,26.015625 42.96875,27.3359375 42.96875,33.59375 L42.96875,40.625 Z" id="Fill-17" fill="#2E3C3E"></path>
                    <path d="M25,24.1264062 L27.9710937,25.6115625 L30.2445312,23.338125 L29.3171875,21.9475 L25,22.6670312 L20.6828125,21.9475 L19.7554687,23.338125 L22.0289062,25.6115625 L25,24.1264062 Z M28.2789062,27.513125 L25,25.8732812 L21.7210937,27.513125 L17.7445312,23.5365625 L19.9421875,20.2396875 L25,21.0826562 L30.0578125,20.2396875 L32.2554687,23.5365625 L28.2789062,27.513125 Z" id="Fill-19" fill="#2E3C3E"></path>
                    <mask id="mask-2" fill="white">
                        <use xlink:href="#path-1"></use>
                    </mask>
                    <g id="Clip-22"></g>
                    <polygon id="Fill-21" fill="#2E3C3E" mask="url(#mask-2)" points="28.125 21.09375 29.6875 21.09375 29.6875 17.96875 28.125 17.96875"></polygon>
                    <polygon id="Fill-23" fill="#2E3C3E" mask="url(#mask-2)" points="20.3125 21.09375 21.875 21.09375 21.875 17.96875 20.3125 17.96875"></polygon>
                    <polygon id="Fill-24" fill="#2E3C3E" mask="url(#mask-2)" points="24.21875 32.8125 25.78125 32.8125 25.78125 31.25 24.21875 31.25"></polygon>
                    <polygon id="Fill-25" fill="#2E3C3E" mask="url(#mask-2)" points="24.21875 29.6875 25.78125 29.6875 25.78125 28.125 24.21875 28.125"></polygon>
                    <path d="M21.4992188,17.2973437 C22.8671875,17.9535937 24.9539063,17.9684375 25,17.9684375 C25.0460938,17.9684375 27.13125,17.9535937 28.4992187,17.298125 C28.74375,17.1028125 30.578125,15.4973437 31.25,10.8817187 L31.25,7.8121875 C31.25,3.4903125 29.3226563,1.5621875 25,1.5621875 C20.6773438,1.5621875 18.75,3.4903125 18.75,7.8121875 L18.75,10.8817187 C19.4226562,15.504375 21.2507812,17.1004687 21.4992188,17.2973437 M25,19.5309375 C24.896875,19.5309375 22.4523438,19.5215625 20.7445313,18.6676562 L20.6601562,18.6184375 C20.553125,18.5473437 18.0164062,16.7957812 17.1953125,11.048125 L17.1875,10.9371875 L17.1875,7.8121875 C17.1875,2.62859375 19.815625,-0.0003125 25,-0.0003125 C30.184375,-0.0003125 32.8125,2.62859375 32.8125,7.8121875 L32.8046875,11.048125 C31.9835937,16.7957812 29.446875,18.5473437 29.3398438,18.6184375 L29.2554688,18.6676562 C27.5476563,19.5215625 25.103125,19.5309375 25,19.5309375" id="Fill-26" fill="#2E3C3E" mask="url(#mask-2)"></path>
                    <polygon id="Fill-27" fill="#2E3C3E" mask="url(#mask-2)" points="28.9417187 10.2310156 21.1292187 7.10601563 18.3182812 8.51148438 17.6190625 7.11382813 21.058125 5.39429688 28.870625 8.51929688 31.6815625 7.11382813 32.3807812 8.51148438"></polygon>
                    <polygon id="Fill-28" fill="#2E3C3E" mask="url(#mask-2)" points="13.28125 40.625 14.84375 40.625 14.84375 34.375 13.28125 34.375"></polygon>
                    <polygon id="Fill-29" fill="#2E3C3E" mask="url(#mask-2)" points="35.15625 40.625 36.71875 40.625 36.71875 34.375 35.15625 34.375"></polygon>
                </g>
            </g>
        </g>
    </g>
</svg>