<svg class="g-svg-sprite" xmlns="http://www.w3.org/2000/svg"><defs><path id="automatic-a" d="M21 42h21V0H0v42z"> </path><path id="ui-a" d="M60 56.279V0H0v56.278h60z"> </path></defs><symbol id="icon-approval"><path d="M12 .5L9.19 2.75l-3.63-.16-.81-.06-.19.78-.9 3.47-3 1.97-.66.44.28.75 1.28 3.34-1.28 3.35-.28.75.66.43 3 1.97.9 3.47.19.78.81-.06 3.63-.16L12 26.06l.63.5.62-.5 2.81-2.25 3.63.16.81.06.19-.78.9-3.47 3-1.97.66-.43-.28-.75-1.28-3.35 1.28-3.34.28-.75-.66-.44-3-1.97-.9-3.47-.19-.78-.81.06-3.63.16L13.25.5l-.62-.5zm3.09 4.06l.32.25.37-.03 3.19-.15.78 3 .09.37.32.22 2.65 1.75-1.12 2.97-.13.34.13.35 1.12 2.96-2.65 1.75-.32.22-.09.38-.78 3-3.19-.16-.37-.03-.32.25-2.46 2-2.47-2-.32-.25-.37.03-3.19.16-.78-3-.09-.38-.32-.22-2.65-1.75 1.12-2.96.13-.35-.13-.34-1.12-2.97 2.65-1.75.32-.22.09-.37.78-3 3.19.15.37.03.32-.25 2.47-2zm2.82 5L19.34 11l-7 7-.71.69-.72-.69-4-4 1.43-1.44 3.29 3.28z" fill="#616161"></path></symbol><symbol viewBox="0 0 64 64" id="icon-automatic"><g fill="none" fill-rule="evenodd"><g transform="translate(22 22)"><mask id="automatic-b" fill="#fff"><use xlink:href="#automatic-a"></use></mask><path d="M42 21c0 11.598-9.4 21-21 21C9.401 42 0 32.598 0 21 0 9.401 9.401 0 21 0c11.6 0 21 9.401 21 21" fill="#B0DAF1" mask="url(#automatic-b)"></path></g><path d="M46 16c-1.103 0-2 .897-2 2s.897 2 2 2 2-.897 2-2-.897-2-2-2m0 6c-2.206 0-4-1.794-4-4s1.794-4 4-4 4 1.794 4 4-1.794 4-4 4M6 34H4V7c0-1.654 1.346-3 3-3h27v2H7c-.55 0-1 .449-1 1v27zM57 60H30v-2h27c.551 0 1-.448 1-1V30h2v27c0 1.654-1.346 3-3 3" fill="#2E3C3E"></path><path fill="#2E3C3E" d="M8 10h14V8H8zM8 14h2v-2H8zM12 14h2v-2h-2zM16 14h2v-2h-2zM31 33h2v-2h-2zM42 56h14v-2H42zM54 52h2v-2h-2zM50 52h2v-2h-2zM46 52h2v-2h-2zM18 53c-2.206 0-4-1.794-4-4h2c0 1.103.897 2 2 2s2-.897 2-2c0-.65-1.424-1.646-2.409-2.087-.599-.27-3.59-1.72-3.59-3.913 0-2.206 1.793-4 4-4 2.205 0 4 1.794 4 4h-2c0-1.103-.898-2-2-2-1.104 0-2 .897-2 2 0 .649 1.423 1.646 2.408 2.087.6.269 3.591 1.72 3.591 3.913 0 2.206-1.794 4-4 4"></path><path fill="#2E3C3E" d="M17 40h2v-3h-2zM17 55h2v-3h-2zM24 47h2v-2h-2zM10 47h2v-2h-2zM46 29c.304 0 .591.138.781.376l3.536 4.42L54 32.323V27a1 1 0 0 1 1-1h5.323l1.473-3.683-4.42-3.536a.999.999 0 0 1 0-1.562l4.42-3.536L60.323 10H55a1 1 0 0 1-1-1V3.677l-3.683-1.473-3.536 4.42c-.379.475-1.183.475-1.562 0l-3.536-4.42L38 3.677V9a1 1 0 0 1-1 1h-5.323l-1.473 3.683 4.42 3.536a.999.999 0 0 1 0 1.562l-4.42 3.536L31.677 26H37a1 1 0 0 1 1 1v5.323l3.683 1.473 3.536-4.42A.999.999 0 0 1 46 29m4.001 7a1 1 0 0 1-.782-.376L46 31.6l-3.219 4.023a1.005 1.005 0 0 1-1.153.305l-5-2a1.002 1.002 0 0 1-.628-.93v-5h-5c-.409 0-.776-.248-.929-.627l-2-5a1 1 0 0 1 .305-1.153l4.023-3.22-4.023-3.218a1 1 0 0 1-.305-1.153l2-5c.153-.38.52-.628.93-.628h5V3c0-.41.248-.776.627-.93l5-2c.41-.161.878-.04 1.153.306l3.22 4.023L49.218.376A1.002 1.002 0 0 1 50.372.07l5 2c.38.153.628.52.628.929v5h5c.41 0 .776.249.93.628l2 5a1 1 0 0 1-.306 1.153L59.601 18l4.023 3.219a1 1 0 0 1 .305 1.153l-2 5c-.153.379-.52.628-.929.628h-5v5c0 .409-.249.776-.628.929l-5 2a1.006 1.006 0 0 1-.37.07"></path><path d="M46 11c-3.86 0-7 3.14-7 7s3.14 7 7 7 7-3.14 7-7-3.14-7-7-7m0 16c-4.962 0-9-4.038-9-9s4.038-9 9-9 9 4.038 9 9-4.038 9-9 9M18 57a1 1 0 0 1 .781.375l3.536 4.42L26 60.324V55a1 1 0 0 1 1-1h5.323l1.473-3.683-4.42-3.536a.999.999 0 0 1 0-1.562l4.42-3.536L32.323 38H27a1 1 0 0 1-1-1v-5.323l-3.683-1.473-3.536 4.42c-.379.475-1.183.475-1.562 0l-3.536-4.42L10 31.677V37a1 1 0 0 1-1 1H3.677l-1.473 3.683 4.42 3.536a.999.999 0 0 1 0 1.562l-4.42 3.536L3.677 54H9a1 1 0 0 1 1 1v5.323l3.683 1.473 3.536-4.421A1 1 0 0 1 18 57m4.001 7c-.298 0-.588-.133-.782-.375L18 59.6l-3.219 4.024a1.001 1.001 0 0 1-1.153.304l-5-2a1.002 1.002 0 0 1-.628-.93v-5H3c-.409 0-.776-.248-.929-.628l-2-5a1 1 0 0 1 .305-1.152l4.023-3.22-4.023-3.218a1 1 0 0 1-.305-1.153l2-5c.153-.38.52-.628.93-.628h5v-5c0-.41.248-.776.627-.93l5-2c.411-.161.878-.04 1.153.306l3.22 4.023 3.218-4.023a1.002 1.002 0 0 1 1.153-.305l5 2c.38.153.628.52.628.929v5h5c.41 0 .776.249.93.628l2 5a1 1 0 0 1-.306 1.153L31.601 46l4.023 3.219a1 1 0 0 1 .305 1.153l-2 4.999c-.153.38-.52.629-.929.629h-5v5c0 .409-.249.776-.628.929l-5 2a1.006 1.006 0 0 1-.37.07" fill="#2E3C3E"></path></g></symbol><symbol viewBox="0 0 12 12" id="icon-check"><g fill="none" fill-rule="evenodd"><path d="M-1-1h14v14H-1z"></path><path d="M6 .167A5.835 5.835 0 0 0 .167 6 5.835 5.835 0 0 0 6 11.833 5.835 5.835 0 0 0 11.833 6 5.835 5.835 0 0 0 6 .167zm-1.167 8.75L1.917 6l.822-.822 2.094 2.088 4.428-4.428.822.829-5.25 5.25z" fill="#616161"></path></g></symbol><symbol viewBox="0 0 14 12" id="icon-checkbox-check"><path d="M1 6.419L5.4 11 13 1" stroke-width="1.5" stroke="#544E3B" fill="none" fill-rule="evenodd" stroke-linecap="round" stroke-linejoin="round"></path></symbol><symbol viewBox="0 0 14 14" id="icon-close-dialog"><path d="M14 1.41L12.59 0 7 5.59 1.41 0 0 1.41 5.59 7 0 12.59 1.41 14 7 8.41 12.59 14 14 12.59 8.41 7z" fill-rule="nonzero"></path></symbol><symbol viewBox="0 0 64 64" id="icon-control"><g fill="none" fill-rule="evenodd"><path d="M53 21c0 11.597-9.401 21-21 21s-21-9.403-21-21C11 9.396 20.401 0 32 0s21 9.396 21 21z" fill="#B0DAF1"></path><path d="M4 8c-1.103 0-2 .897-2 2v40c0 1.102.897 2 2 2h56c1.102 0 2-.898 2-2V10c0-1.103-.898-2-2-2H4zm56 46H4c-2.206 0-4-1.794-4-4V10c0-2.206 1.794-4 4-4h56c2.206 0 4 1.794 4 4v40c0 2.206-1.794 4-4 4z" fill="#192324"></path><path fill="#192324" d="M40.042 63.287l-3-10 1.916-.574 3 10zM23.958 63.287l-1.916-.574 3-10 1.916.574z"></path><path fill="#192324" d="M19 64h26v-2H19zM31 50h2v-2h-2zM6 44h52V12H6v32zm53 2H5a1 1 0 0 1-1-1V11a1 1 0 0 1 1-1h54a1 1 0 0 1 1 1v34a1 1 0 0 1-1 1z"></path><path d="M12.394 28C14.75 30.344 23.13 38 32 38c8.87 0 17.249-7.656 19.607-10C49.249 25.656 40.87 18 32 18c-8.87 0-17.25 7.656-19.606 10M32 40c-11.312 0-21.32-10.865-21.74-11.327a1.002 1.002 0 0 1 0-1.346C10.68 26.865 20.688 16 32 16c11.313 0 21.32 10.865 21.74 11.327.347.382.347.964 0 1.346C53.32 29.135 43.314 40 32 40" fill="#192324"></path><path d="M32 40c-6.617 0-12-5.383-12-12h2c0 5.514 4.486 10 10 10s10-4.486 10-10-4.486-10-10-10v-2c6.617 0 12 5.383 12 12s-5.383 12-12 12" fill="#192324"></path><path d="M26 28h-2c0-4.411 3.589-8 8-8v2c-3.309 0-6 2.691-6 6M32 36v-2c3.309 0 6-2.691 6-6h2c0 4.411-3.589 8-8 8M32 26c-1.103 0-2 .897-2 2 0 1.102.897 2 2 2 1.102 0 2-.898 2-2 0-1.103-.898-2-2-2m0 6c-2.206 0-4-1.794-4-4s1.794-4 4-4 4 1.794 4 4-1.794 4-4 4" fill="#192324"></path></g></symbol><symbol viewBox="0 0 64 64" id="icon-earth"><g fill="none" fill-rule="evenodd"><path d="M64 43c0 11.597-9.401 21-21 21s-21-9.403-21-21c0-11.604 9.401-21 21-21s21 9.396 21 21z" fill="#B0DAF1"></path><path d="M27 64C12.112 64 0 51.888 0 37s12.112-27 27-27v2C13.215 12 2 23.215 2 37s11.215 25 25 25 25-11.215 25-25c0-4.521-1.22-8.95-3.526-12.809l1.716-1.026A26.96 26.96 0 0 1 54 37c0 14.888-12.112 27-27 27" fill="#2E3C3E"></path><path fill="#2E3C3E" d="M26 63h2V14h-2z"></path><path fill="#2E3C3E" d="M1 38h52v-2H1z"></path><path d="M27 64c-7.851 0-14-11.86-14-27s6.149-27 14-27v2c-6.505 0-12 11.449-12 25s5.495 25 12 25 12-11.449 12-25h2c0 15.14-6.149 27-14 27" fill="#2E3C3E"></path><path fill="#2E3C3E" d="M6 23h23v-2H6zM6 53h42v-2H6z"></path><path d="M40 2c-6.617 0-12 5.383-12 12 0 6.456 9.258 18.129 12 21.446C42.742 32.128 52 20.452 52 14c0-6.617-5.383-12-12-12m0 36c-.29 0-.565-.126-.756-.345C38.703 37.031 26 22.278 26 14c0-7.72 6.28-14 14-14s14 6.28 14 14c0 8.278-12.703 23.031-13.244 23.655A1.003 1.003 0 0 1 40 38" fill="#2E3C3E"></path><path d="M40 7c-3.859 0-7 3.14-7 7s3.141 7 7 7 7-3.14 7-7-3.141-7-7-7m0 16c-4.963 0-9-4.038-9-9s4.037-9 9-9 9 4.038 9 9-4.037 9-9 9" fill="#2E3C3E"></path></g></symbol><symbol id="icon-hand-cursor"><path d="M9.91 5.02v19.77l-1.09-1.15-.42-.37a4.907 4.907 0 0 0-6.96 0c-1.92 1.93-1.92 5.08 0 7.01v.05l13.61 13.55.11.05.05.1c2.24 1.7 5.1 2.83 8.32 2.83h2.85c7.54 0 13.62-6.12 13.62-13.7V20.08c0-2.75-2.25-5.02-4.99-5.02-.71 0-1.36.2-1.97.47-.55-2.17-2.52-3.82-4.84-3.82-1.27 0-2.44.51-3.32 1.31-.89-.8-2.05-1.31-3.33-1.31-.59 0-1.14.13-1.66.32V5.02C19.89 2.27 17.64 0 14.9 0S9.91 2.27 9.91 5.02zm6.65 0v18.41h3.33v-6.7c0-.92.74-1.67 1.66-1.67.92 0 1.66.75 1.66 1.67v6.7h3.33v-6.7a1.664 1.664 0 1 1 3.33 0v6.7h3.48v-3.35c0-.93.74-1.67 1.66-1.67.92 0 1.66.74 1.66 1.67v13.08c0 5.8-4.52 10.35-10.29 10.35h-2.85c-2.44 0-4.55-.88-6.29-2.2L3.78 27.93c-.75-.75-.75-1.56 0-2.3.74-.75 1.54-.75 2.28 0l4.32 4.34 2.86 2.87V5.02c0-.93.74-1.67 1.66-1.67.92 0 1.66.74 1.66 1.67z" fill="#f5f5f5"></path></symbol><symbol viewBox="0 0 64 64" id="icon-hands"><g fill="none" fill-rule="evenodd"><path d="M52 44c0 11.045-8.954 20-20 20s-20-8.955-20-20c0-11.046 8.954-20 20-20s20 8.954 20 20z" fill="#B0DAF1"></path><path d="M32 2c-9.925 0-18 8.075-18 18s8.075 18 18 18 18-8.075 18-18S41.925 2 32 2m0 38c-11.028 0-20-8.972-20-20S20.972 0 32 0s20 8.972 20 20-8.972 20-20 20" fill="#2E3C3E"></path><path d="M32 29c-2.757 0-5-2.243-5-5h2c0 1.654 1.346 3 3 3s3-1.346 3-3c0-1.344-1.07-1.936-2.962-2.866l-.958-.474C29.167 19.72 27 18.655 27 16c0-2.757 2.243-5 5-5s5 2.243 5 5h-2c0-1.654-1.346-3-3-3s-3 1.346-3 3c0 1.344 1.07 1.936 2.962 2.866l.958.474C34.833 20.28 37 21.345 37 24c0 2.757-2.243 5-5 5" fill="#2E3C3E"></path><path fill="#2E3C3E" d="M31 12h2V9h-2zM31 31h2v-3h-2zM24 58H11v-3c-.002-.056-.056-1.642-1.707-3.293l-7-7C.026 42.44 0 40.099 0 40V24c0-2.206 1.794-4 4-4s4 1.794 4 4v8H6v-8c0-1.103-.897-2-2-2s-2 .897-2 2v16c.001.056.056 1.642 1.707 3.293l7 7C12.974 52.56 13 54.901 13 55v1h9v-7c0-.023-.036-2.622-1.707-4.293L10.586 35H10c-1.103 0-2 .897-2 2v.586l6.707 6.707-1.414 1.414L6 38.414V37c0-2.206 1.794-4 4-4h1.414l10.293 10.293C23.974 45.56 24 48.86 24 49v9zM53 58H40v-9c0-.14.026-3.44 2.293-5.707L52.586 33H54c2.206 0 4 1.794 4 4v1.414l-7.293 7.293-1.414-1.414L56 37.586V37c0-1.103-.897-2-2-2h-.586l-9.707 9.707C42.02 46.395 42 48.974 42 49v7h9v-1c0-.099.026-2.44 2.293-4.707l7-7c1.651-1.651 1.705-3.237 1.707-3.304V24c0-1.103-.897-2-2-2s-2 .897-2 2v8h-2v-8c0-2.206 1.794-4 4-4s4 1.794 4 4v16c0 .099-.026 2.44-2.293 4.707l-7 7c-1.651 1.651-1.706 3.237-1.707 3.304V58z"></path><path d="M55 64h-2v-6H40v6h-2v-6c0-1.102.897-2 2-2h13c1.103 0 2 .898 2 2v6zM26 64h-2v-6H11v6H9v-6c0-1.102.897-2 2-2h13c1.103 0 2 .898 2 2v6zM22 21h2v-2h-2zM40 21h2v-2h-2z" fill="#2E3C3E"></path><path d="M32 6c-7.72 0-14 6.28-14 14s6.28 14 14 14 14-6.28 14-14S39.72 6 32 6m0 30c-8.822 0-16-7.178-16-16S23.178 4 32 4s16 7.178 16 16-7.178 16-16 16" fill="#2E3C3E"></path></g></symbol><symbol viewBox="0 0 64 64" id="icon-help"><g fill="none" fill-rule="evenodd"><path d="M42 43c0 11.598-9.401 21-21 21S0 54.598 0 43c0-11.599 9.401-21 21-21s21 9.401 21 21z" fill="#B0DAF1"></path><path d="M8.895 51.447l-1.79-.895c.131-.262 3.281-6.449 8.698-7.533l6.85-1.96C23.776 40.537 25 39.58 25 39v-5h2v5c0 2.193-2.991 3.644-3.591 3.912a.894.894 0 0 1-.134.05l-7 2c-4.547.912-7.352 6.43-7.38 6.485M55.106 51.448c-.028-.056-2.851-5.578-7.302-6.468l-7.079-2.019a.982.982 0 0 1-.134-.049C39.992 42.644 37 41.193 37 39v-5h2v5c0 .635 1.365 1.605 2.346 2.06l6.929 1.978c5.338 1.065 8.488 7.252 8.619 7.515l-1.788.895z" fill="#2E3C3E"></path><path d="M27 15.618V17a1 1 0 0 1-1 1c-1.103 0-2 .897-2 2v3c0 6.261 2.503 13 8 13s8-6.739 8-13v-3c0-1.103-.897-2-2-2h-6a.99.99 0 0 1-.447-.106L27 15.618zM32 38c-6.871 0-10-7.776-10-15v-3a4.008 4.008 0 0 1 3-3.874V14a1.001 1.001 0 0 1 1.447-.895L32.236 16H38c2.206 0 4 1.794 4 4v3c0 7.224-3.129 15-10 15zM34 47h-4a.997.997 0 0 1-.707-.293L25.586 43H23v-2h3c.265 0 .52.105.707.293L30.414 45h3.172l3.707-3.707A.997.997 0 0 1 38 41h3v2h-2.586l-3.707 3.707A.997.997 0 0 1 34 47M31 56h2v-2h-2zM31 52h2v-2h-2zM31 60h2v-2h-2zM37 54h8v-2h-8z" fill="#2E3C3E"></path><path d="M46 18h-2v-1c0-4.624-3.506-8.446-8-8.945V9a1 1 0 0 1-1.316.949l-5.842-1.948C23.952 8.086 20 12.09 20 17v1h-2v-1c0-6.065 4.935-11 11-11a1 1 0 0 1 .316.051L34 7.613V7a1 1 0 0 1 1-1c6.065 0 11 4.935 11 11v1z" fill="#2E3C3E"></path><path d="M22 30c-3.86 0-7-3.14-7-7s3.14-7 7-7v2c-2.757 0-5 2.243-5 5s2.243 5 5 5v2zM42 30v-2c2.757 0 5-2.243 5-5s-2.243-5-5-5v-2c3.86 0 7 3.14 7 7s-3.14 7-7 7" fill="#2E3C3E"></path><path d="M44 34H33c-1.654 0-3-1.346-3-3h2c0 .551.449 1 1 1h11c.551 0 1-.449 1-1v-4h2v4c0 1.654-1.346 3-3 3" fill="#2E3C3E"></path><path d="M32 2C15.458 2 2 15.458 2 32s13.458 30 30 30 30-13.458 30-30S48.542 2 32 2m0 62C14.355 64 0 49.645 0 32S14.355 0 32 0s32 14.355 32 32-14.355 32-32 32" fill="#2E3C3E"></path></g></symbol><symbol id="icon-inspection"><path d="M8.41 2H0v25h22V2h-8.41C13.15.89 12.26 0 11 0 9.74 0 8.85.89 8.41 2zM5 4v4h12V4h3v21H2V4zm7-1v1h3v2H7V4h3V3c0-.55.45-1 1-1s1 .45 1 1zm4.28 8.28l1.44 1.44-7 7-.72.69-.72-.69-4-4 1.44-1.44L10 17.56z" fill="#616161"></path></symbol><symbol viewBox="0 0 12 12" id="icon-list-image"><g fill="none" fill-rule="evenodd"><path d="M-1-1h14v14H-1z"></path><path d="M6 .167A5.835 5.835 0 0 0 .167 6 5.835 5.835 0 0 0 6 11.833 5.835 5.835 0 0 0 11.833 6 5.835 5.835 0 0 0 6 .167zm-1.167 8.75L1.917 6l.822-.822 2.094 2.088 4.428-4.428.822.829-5.25 5.25z" fill="#616161"></path></g></symbol><symbol viewBox="0 0 75 94" id="icon-logo-black"><g fill="none" fill-rule="evenodd"><path fill="#2D2828" d="M2.286 92.96V87H1.201v-.908h1.085v-.724c0-.368.052-.695.156-.98a1.95 1.95 0 0 1 .447-.721c.195-.195.432-.342.711-.441.28-.1.595-.15.946-.15.27 0 .54.037.806.109l-.063.952a3.547 3.547 0 0 0-.635-.057c-.38 0-.675.11-.882.333-.208.222-.311.54-.311.955v.724h1.466V87H3.46v5.96H2.286zm3.625-3.498c0-.499.073-.961.219-1.387.146-.425.353-.794.622-1.107.269-.313.596-.559.98-.737a3.054 3.054 0 0 1 1.296-.266c.486 0 .923.089 1.31.266.388.178.717.424.987.737.271.313.479.682.622 1.107.144.426.216.888.216 1.387v.14c0 .5-.072.962-.216 1.387a3.243 3.243 0 0 1-.622 1.105c-.27.31-.598.554-.984.73a3.102 3.102 0 0 1-1.3.263c-.483 0-.917-.088-1.302-.263a2.862 2.862 0 0 1-.984-.73c-.27-.311-.48-.68-.625-1.105a4.246 4.246 0 0 1-.22-1.387v-.14zm1.18.14c0 .343.04.667.121.971.08.305.202.573.365.803.163.23.366.414.61.55.243.135.527.202.853.202a1.721 1.721 0 0 0 1.46-.752c.161-.23.283-.498.365-.803.083-.304.124-.628.124-.97v-.14c0-.34-.041-.662-.124-.969a2.516 2.516 0 0 0-.368-.806 1.724 1.724 0 0 0-1.47-.759c-.321 0-.603.07-.844.207a1.867 1.867 0 0 0-.606.552c-.163.23-.285.5-.365.806-.08.307-.12.63-.12.968v.14zm9.865-2.456a3.106 3.106 0 0 0-.578-.045c-.406 0-.737.089-.993.267a1.62 1.62 0 0 0-.575.717v4.875h-1.174v-6.868h1.142l.02.793c.177-.283.4-.508.666-.673.267-.165.59-.247.971-.247a1.736 1.736 0 0 1 .52.089v1.092zm10.112 2.456c0 .504-.06.968-.178 1.393a3.376 3.376 0 0 1-.52 1.105 2.438 2.438 0 0 1-.839.727c-.33.173-.706.26-1.13.26-.452 0-.844-.08-1.174-.238a2.311 2.311 0 0 1-.838-.682l-.057.793h-1.079v-9.75h1.174v3.637a2.33 2.33 0 0 1 .826-.654c.321-.152.7-.228 1.136-.228.431 0 .813.085 1.146.254.332.17.611.407.837.714.227.307.4.675.518 1.104.118.43.178.907.178 1.432v.133zm-1.175-.133c0-.343-.031-.666-.095-.968a2.454 2.454 0 0 0-.308-.797 1.586 1.586 0 0 0-.555-.543c-.229-.133-.508-.2-.838-.2-.216 0-.41.028-.584.083a1.68 1.68 0 0 0-.825.571 2.289 2.289 0 0 0-.26.426v2.97c.076.153.166.294.27.426a1.68 1.68 0 0 0 .828.571c.173.055.368.082.584.082.317 0 .588-.065.812-.196.224-.132.408-.31.552-.534.144-.224.25-.487.318-.79.067-.302.101-.625.101-.968v-.133zm6.894 2.812a2.188 2.188 0 0 1-.82.593c-.33.142-.727.213-1.192.213a2.8 2.8 0 0 1-.92-.143 1.791 1.791 0 0 1-.712-.45 2.052 2.052 0 0 1-.46-.794c-.108-.324-.162-.714-.162-1.171v-4.437h1.174v4.45c0 .308.036.563.108.764.072.201.168.36.286.477a.955.955 0 0 0 .406.24c.153.045.31.067.47.067.478 0 .862-.09 1.152-.273.29-.182.503-.425.638-.73v-4.995h1.174v6.868h-1.117l-.025-.68zm6.925-1.143c0-.127-.019-.246-.057-.358a.755.755 0 0 0-.225-.318 1.683 1.683 0 0 0-.48-.276 4.952 4.952 0 0 0-.818-.235 7.753 7.753 0 0 1-1.029-.285 3.145 3.145 0 0 1-.777-.397 1.635 1.635 0 0 1-.492-.55 1.54 1.54 0 0 1-.172-.742c0-.27.06-.528.181-.771a1.97 1.97 0 0 1 .511-.641c.22-.184.487-.33.8-.438a3.2 3.2 0 0 1 1.047-.162c.41 0 .778.056 1.102.168.323.112.598.266.825.46a1.97 1.97 0 0 1 .695 1.517h-1.18c0-.14-.032-.28-.096-.422a1.15 1.15 0 0 0-.28-.38 1.44 1.44 0 0 0-.45-.274 1.676 1.676 0 0 0-.616-.104c-.245 0-.454.028-.625.085a1.233 1.233 0 0 0-.422.229.878.878 0 0 0-.241.324.948.948 0 0 0-.013.714.65.65 0 0 0 .241.276c.119.082.28.159.486.228.205.07.47.141.797.213.418.097.782.207 1.091.33.31.123.565.266.768.429.204.163.355.35.454.561.1.212.15.457.15.737 0 .3-.063.575-.188.825a1.83 1.83 0 0 1-.536.641 2.632 2.632 0 0 1-.838.416c-.326.1-.688.149-1.086.149a3.53 3.53 0 0 1-1.209-.19 2.708 2.708 0 0 1-.879-.505 2.139 2.139 0 0 1-.54-.717 1.974 1.974 0 0 1-.184-.829h1.175c.012.241.07.444.174.606.104.163.234.296.39.397.157.102.329.174.515.216.186.042.372.063.558.063.242 0 .453-.025.635-.076.182-.05.336-.12.46-.21a.902.902 0 0 0 .283-.313.826.826 0 0 0 .095-.39zm3.98 1.822h-1.174v-6.868h1.174v6.868zm-1.27-8.69c0-.19.059-.351.175-.482.116-.132.289-.197.517-.197.229 0 .402.065.52.197a.694.694 0 0 1 .179.482c0 .19-.06.35-.178.476-.119.127-.292.19-.52.19-.23 0-.402-.063-.518-.19a.678.678 0 0 1-.174-.476zm4.26 1.822l.038.863a2.55 2.55 0 0 1 2.057-.99c.334 0 .636.045.907.136.271.091.502.237.692.438.19.201.338.46.441.775.104.315.156.697.156 1.146v4.5h-1.174v-4.513c0-.267-.03-.494-.09-.683a1.126 1.126 0 0 0-.263-.46 1.038 1.038 0 0 0-.431-.26 1.943 1.943 0 0 0-.594-.083c-.38 0-.715.102-1.003.305a2.07 2.07 0 0 0-.673.8v4.894h-1.174v-6.868h1.11zm8.912 6.995a3.28 3.28 0 0 1-1.298-.248 2.897 2.897 0 0 1-.994-.688 3.044 3.044 0 0 1-.634-1.05 3.865 3.865 0 0 1-.223-1.334v-.266c0-.56.084-1.058.251-1.499.167-.44.39-.81.67-1.11.28-.3.599-.53.958-.69a2.77 2.77 0 0 1 1.124-.237c.49 0 .914.086 1.27.257.355.171.648.407.879.708.23.3.4.656.51 1.066.11.41.166.857.166 1.34v.526H53.62c.008.318.06.614.155.889.096.275.231.514.407.717.175.203.387.364.634.483.248.118.528.177.841.177.415 0 .766-.084 1.054-.253.288-.17.54-.394.755-.673l.718.558c-.11.17-.244.334-.4.492a2.765 2.765 0 0 1-1.27.724c-.27.074-.577.111-.92.111zm-.146-6.157c-.237 0-.455.043-.654.13a1.627 1.627 0 0 0-.533.378c-.157.165-.287.37-.39.615a3.121 3.121 0 0 0-.213.844h3.44v-.088a3.25 3.25 0 0 0-.11-.68 1.844 1.844 0 0 0-.286-.603 1.472 1.472 0 0 0-.499-.431c-.203-.11-.455-.165-.755-.165zm8.182 4.208c0-.127-.019-.246-.057-.358a.755.755 0 0 0-.225-.318 1.683 1.683 0 0 0-.48-.276 4.952 4.952 0 0 0-.819-.235 7.753 7.753 0 0 1-1.028-.285 3.145 3.145 0 0 1-.777-.397 1.635 1.635 0 0 1-.492-.55 1.54 1.54 0 0 1-.172-.742c0-.27.06-.528.181-.771a1.97 1.97 0 0 1 .511-.641c.22-.184.487-.33.8-.438a3.2 3.2 0 0 1 1.047-.162c.41 0 .778.056 1.102.168.323.112.598.266.825.46a1.97 1.97 0 0 1 .695 1.517h-1.18c0-.14-.033-.28-.096-.422a1.15 1.15 0 0 0-.28-.38 1.44 1.44 0 0 0-.45-.274 1.676 1.676 0 0 0-.616-.104c-.245 0-.454.028-.625.085a1.233 1.233 0 0 0-.422.229.878.878 0 0 0-.241.324.948.948 0 0 0-.013.714.65.65 0 0 0 .241.276c.119.082.28.159.486.228.205.07.47.141.796.213.42.097.783.207 1.092.33.31.123.565.266.768.429.203.163.355.35.454.561.1.212.15.457.15.737 0 .3-.063.575-.188.825a1.83 1.83 0 0 1-.536.641 2.632 2.632 0 0 1-.838.416c-.326.1-.688.149-1.086.149a3.53 3.53 0 0 1-1.209-.19 2.708 2.708 0 0 1-.879-.505 2.139 2.139 0 0 1-.54-.717 1.974 1.974 0 0 1-.184-.829h1.175c.012.241.07.444.174.606.104.163.234.296.39.397.157.102.329.174.515.216.186.042.372.063.558.063.242 0 .453-.025.635-.076.182-.05.336-.12.46-.21a.902.902 0 0 0 .283-.313.826.826 0 0 0 .095-.39zm6.703 0c0-.127-.019-.246-.057-.358a.755.755 0 0 0-.225-.318 1.683 1.683 0 0 0-.48-.276 4.952 4.952 0 0 0-.818-.235 7.753 7.753 0 0 1-1.029-.285 3.145 3.145 0 0 1-.777-.397 1.635 1.635 0 0 1-.492-.55 1.54 1.54 0 0 1-.172-.742c0-.27.06-.528.181-.771a1.97 1.97 0 0 1 .511-.641c.22-.184.487-.33.8-.438a3.2 3.2 0 0 1 1.047-.162c.41 0 .778.056 1.102.168.323.112.599.266.825.46a1.97 1.97 0 0 1 .695 1.517h-1.18c0-.14-.032-.28-.096-.422a1.15 1.15 0 0 0-.28-.38 1.44 1.44 0 0 0-.45-.274 1.676 1.676 0 0 0-.616-.104 2 2 0 0 0-.625.085 1.233 1.233 0 0 0-.422.229.878.878 0 0 0-.241.324.948.948 0 0 0-.013.714.65.65 0 0 0 .241.276c.119.082.28.159.486.228.205.07.47.141.797.213.419.097.782.207 1.091.33.31.123.565.266.768.429.204.163.355.35.454.561.1.212.15.457.15.737 0 .3-.063.575-.188.825a1.83 1.83 0 0 1-.536.641 2.632 2.632 0 0 1-.838.416c-.326.1-.688.149-1.085.149a3.53 3.53 0 0 1-1.21-.19 2.708 2.708 0 0 1-.879-.505 2.139 2.139 0 0 1-.54-.717 1.974 1.974 0 0 1-.183-.829h1.174c.013.241.07.444.174.606.104.163.234.296.39.397.157.102.329.174.515.216.186.042.372.063.559.063.24 0 .452-.025.634-.076.182-.05.336-.12.46-.21a.902.902 0 0 0 .283-.313.826.826 0 0 0 .095-.39z"></path><g fill-rule="nonzero" transform="translate(0 -1)"><rect width="74.42" height="58.92" y="16.51" fill="#000" rx="6.2"></rect><path fill="#000" d="M37.21 25.81a7.89 7.89 0 1 0 0-15.78 7.89 7.89 0 0 0 0 15.78zm0 9c-9.34-.006-16.906-7.58-16.9-16.92C20.316 8.55 27.89.984 37.23.99c9.34.006 16.906 7.58 16.9 16.92a16.91 16.91 0 0 1-16.92 16.92v-.02z"></path><path fill="#FFF" d="M50.1 14.18A13.42 13.42 0 0 0 24 15.57a1.015 1.015 0 0 0 2 .35 11.39 11.39 0 0 1 22.43 0 1.016 1.016 0 1 0 2-.36 13.4 13.4 0 0 0-.33-1.38zM13.59 45.76v25.03H9V45.76H4.13v-4.13h14.38v4.13h-4.92M32 70.79l-3.81-12h-2.54v12h-4.59V41.62h7.37c5.32 0 7.45 2.58 7.45 8.6 0 3.6-.74 6.18-3.4 7.62l4.34 12.94-4.82.01zm-3.56-25h-2.79v8.93h2.83c2.46 0 2.83-2 2.83-4.46s-.37-4.46-2.83-4.46l-.04-.01zm11.19-4.16h4.59v29.16h-4.59zM55.32 59.4h-2.75v11.39H48V41.62h7.33c5.28 0 7.49 2.74 7.49 8.85 0 5.9-2 8.93-7.49 8.93h-.01zm.08-13.64h-2.83v9.5h2.83c2.46 0 2.83-2.17 2.83-4.75s-.37-4.75-2.83-4.75zm12.76 25.19a2.85 2.85 0 0 1-2.87-2.87 2.87 2.87 0 1 1 5.73 0 2.85 2.85 0 0 1-2.87 2.87h.01zM66 41.62h4.34v21H66v-21zm-55.19-5.79a3.65 3.65 0 0 1-3 1.29 3.65 3.65 0 0 1-3-1.29c-1.14-1.29-1.12-3.52-1.12-6.53 0-3.01 0-5.24 1.12-6.53a3.65 3.65 0 0 1 3-1.29 3.65 3.65 0 0 1 3 1.29c1.14 1.29 1.12 3.52 1.12 6.53 0 3.01 0 5.24-1.12 6.53zM9 24.23a1.27 1.27 0 0 0-1.16-.58 1.23 1.23 0 0 0-1.14.58c-.45.73-.54 2.28-.54 5.07 0 2.79.09 4.34.54 5.07a1.23 1.23 0 0 0 1.14.58A1.27 1.27 0 0 0 9 34.37c.45-.73.52-2.28.52-5.07 0-2.79-.06-4.3-.52-5.07zm11.32 12.72l-3.62-9.09v9.09h-2.4v-15.3h2.15l3.59 9.09v-9.09h2.4v15.3h-2.12m4.71 0v-15.3h6.43v2.17h-4.02v4.34h3.46v2.17h-3.46v4.45h4.02v2.17h-6.43m17.11-13.13v13.13h-2.41V23.82h-2.55v-2.17h7.54v2.17h-2.58M58.4 36.95h-2.52l-2.19-11.63-2.17 11.63h-2.51l-2.9-15.3h2.64l1.51 11.6 2.1-11.6h2.67l2.12 11.6 1.49-11.6h2.64l-2.88 15.3m11.16-1.12a4.05 4.05 0 0 1-5.93 0c-1.14-1.29-1.12-3.52-1.12-6.53 0-3.01 0-5.24 1.12-6.53a4.05 4.05 0 0 1 5.93 0c1.14 1.29 1.12 3.52 1.12 6.53 0 3.01 0 5.24-1.12 6.53zm-1.81-11.6a1.27 1.27 0 0 0-1.16-.58 1.23 1.23 0 0 0-1.14.58c-.45.73-.54 2.28-.54 5.07 0 2.79.09 4.34.54 5.07a1.23 1.23 0 0 0 1.14.58 1.27 1.27 0 0 0 1.16-.58c.45-.73.52-2.28.52-5.07 0-2.79-.06-4.34-.52-5.07z"></path><path fill="#FFF" d="M46.59 14.69l3.58 3.65 1.38-4.94z"></path></g></g></symbol><symbol viewBox="0 0 120 106" id="icon-logo-business"><g fill="none" fill-rule="evenodd"><path d="M13.304 26.265c-1.217 1.337-2.84 2.359-5.598 2.359-2.757 0-4.38-1.022-5.597-2.36C-.041 23.907 0 19.817 0 14.313 0 8.807-.04 4.718 2.11 2.359 3.326 1.022 4.949 0 7.706 0c2.759 0 4.38 1.022 5.598 2.359 2.15 2.36 2.109 6.448 2.109 11.953 0 5.504.04 9.594-2.109 11.953zM9.897 5.033C9.49 4.403 8.8 3.971 7.706 3.971c-1.095 0-1.743.433-2.15 1.062-.851 1.337-1.013 4.168-1.013 9.279 0 5.112.162 7.942 1.014 9.279.406.63 1.054 1.062 2.149 1.062s1.785-.432 2.19-1.062c.852-1.337.975-4.167.975-9.279 0-5.111-.123-7.942-.974-9.279zm20.205 22.99L23.27 11.67v16.352h-4.554V.5h4.066l6.792 16.351V.5h4.554v27.523h-4.026zm7.33 0V.5h12.11v3.904h-7.575v7.809h6.521v3.904h-6.521v8.002h7.574v3.904h-12.11zM68.318 4.404v23.619h-4.567V4.404H58.9V.5h14.312v3.904h-4.893zm29.735 23.619H93.31L89.175 7.11 85.08 28.023h-4.744L74.862.5h4.988l2.838 20.875L86.66.5h5.028l4.013 20.875L98.5.5h4.986l-5.432 27.523zm19.837-1.758c-1.217 1.337-2.84 2.359-5.598 2.359s-4.38-1.022-5.597-2.36c-2.15-2.358-2.109-6.447-2.109-11.952 0-5.504-.04-9.593 2.109-11.953C107.913 1.023 109.535 0 112.293 0c2.758 0 4.38 1.023 5.598 2.36C120.04 4.718 120 8.807 120 14.311c0 5.505.04 9.594-2.11 11.953zm-3.407-21.232c-.406-.63-1.095-1.061-2.19-1.061-1.096 0-1.745.432-2.15 1.061-.853 1.337-1.015 4.168-1.015 9.28 0 5.11.162 7.941 1.014 9.278.406.63 1.055 1.062 2.15 1.062 1.096 0 1.785-.433 2.19-1.062.852-1.337.974-4.168.974-9.279s-.122-7.942-.973-9.279z" fill="#616161"></path><path d="M20.567 98.17a6.194 6.194 0 0 0-.708-.073c-.505 0-.945.11-1.32.33a2.94 2.94 0 0 0-.962.934l-1.107 6.19h-1.507l1.565-8.71 1.457-.008-.224 1.014c.283-.36.607-.65.974-.87.366-.22.794-.324 1.282-.313.128 0 .25.012.366.036.117.024.234.052.35.084l-.166 1.385zM5.69 101.171c.05-.392.138-.777.263-1.155.124-.379.284-.736.478-1.071.195-.335.424-.644.687-.926a4.195 4.195 0 0 1 1.948-1.192c.386-.11.801-.16 1.245-.148.633.016 1.175.151 1.624.406.45.255.81.588 1.083.999.272.41.459.877.562 1.4.102.524.123 1.06.062 1.607l-.017.185a5.895 5.895 0 0 1-.487 1.695 5.127 5.127 0 0 1-.966 1.429c-.396.413-.863.739-1.398.978a4.086 4.086 0 0 1-1.786.334c-.628-.016-1.165-.149-1.612-.399a3.075 3.075 0 0 1-1.078-.986 3.866 3.866 0 0 1-.566-1.385 5.09 5.09 0 0 1-.067-1.594l.025-.177zm1.49.177c-.027.226-.04.46-.037.7.003.242.025.478.067.71.041.23.107.449.196.655.088.207.206.39.353.548.147.158.328.286.542.382a2 2 0 0 0 .753.161c.46.016.869-.07 1.224-.261.355-.19.66-.442.912-.753.253-.311.455-.662.608-1.05a5.21 5.21 0 0 0 .312-1.164l.025-.177c.028-.226.04-.46.037-.705a4.357 4.357 0 0 0-.066-.716 3.159 3.159 0 0 0-.196-.669 1.879 1.879 0 0 0-.358-.56 1.72 1.72 0 0 0-.55-.39c-.216-.099-.468-.154-.757-.165-.466-.016-.876.074-1.228.27a2.989 2.989 0 0 0-.904.769c-.25.317-.45.672-.6 1.067-.15.394-.252.785-.307 1.171l-.025.177zm-7.156 4.203l1.366-7.56H0l.208-1.151H1.59l.134-.918c.06-.44.177-.841.35-1.204a2.99 2.99 0 0 1 .678-.93c.28-.257.61-.455.987-.591A3.624 3.624 0 0 1 5.02 93c.183 0 .364.014.541.04.178.027.355.06.533.097l-.183 1.216a5.157 5.157 0 0 0-.808-.097c-.266 0-.505.04-.716.121-.21.08-.394.196-.55.346-.155.15-.284.328-.387.532a2.282 2.282 0 0 0-.212.668l-.142.918h1.866l-.209 1.151H2.89l-1.357 7.56H.025z" fill="gray"></path><path d="M1.111 35.5h25.422v6.935h-8.691v41.954H9.73V42.435H1.111V35.5zm48.391 48.889l-6.613-20.05h-4.48v20.05h-7.965V35.5h12.8c9.244 0 12.942 4.325 12.942 14.42 0 6.042-1.28 10.368-5.902 12.77l7.538 21.699h-8.32zm-6.187-41.954H38.41v14.969h4.906c4.267 0 4.907-3.433 4.907-7.484 0-4.052-.64-7.485-4.907-7.485zM63.69 84.389V35.5h7.822v48.889H63.69zM89.949 65.3h-4.706V84.39h-7.865V35.5h12.57c9.06 0 12.852 4.6 12.852 14.831 0 9.888-3.37 14.97-12.851 14.97zm.14-22.865h-4.846v15.93h4.846c4.213 0 4.846-3.64 4.846-7.965 0-4.326-.633-7.965-4.846-7.965zm19.765 28.025V35.5h7.403v34.96h-7.403zm3.702 13.929c-2.725 0-4.89-2.117-4.89-4.78 0-2.663 2.165-4.848 4.89-4.848 2.724 0 4.888 2.185 4.888 4.848s-2.164 4.78-4.888 4.78zM65.774 90.895c0-.4.131-.733.394-.998s.638-.397 1.127-.397c.488 0 .866.132 1.132.397.267.265.4.598.4.998 0 .394-.133.721-.4.983-.266.26-.644.392-1.132.392-.489 0-.864-.131-1.127-.392a1.328 1.328 0 0 1-.394-.983zm-39.107 14.632v-15.63h5.54c.873 0 1.658.084 2.353.252.696.169 1.284.424 1.765.768.482.343.85.782 1.105 1.315.255.533.383 1.165.383 1.895 0 .715-.2 1.36-.6 1.932-.399.572-.984 1.016-1.753 1.331a3.92 3.92 0 0 1 1.215.531 3.338 3.338 0 0 1 1.36 1.863c.111.38.167.773.167 1.18 0 .752-.128 1.412-.383 1.981a3.747 3.747 0 0 1-1.11 1.428c-.485.383-1.074.67-1.766.864-.692.193-1.474.29-2.348.29h-5.928zm2.808-7.053v4.885h3.12c.46 0 .864-.058 1.216-.172.351-.115.646-.278.882-.489.237-.21.415-.463.533-.756.119-.294.178-.62.178-.977 0-.773-.21-1.382-.633-1.825-.422-.444-1.106-.666-2.054-.666h-3.242zm0-1.996h2.754c.873 0 1.556-.192 2.048-.575.492-.383.738-.925.738-1.626 0-.773-.227-1.331-.682-1.675-.456-.343-1.164-.515-2.126-.515h-2.732v4.39zm18.769 7.911c-.378.43-.844.762-1.4.998-.554.237-1.213.355-1.975.355-.593 0-1.131-.08-1.616-.242a3.143 3.143 0 0 1-1.249-.762c-.348-.347-.618-.794-.81-1.342-.193-.547-.289-1.204-.289-1.97v-7.514h2.698v7.536c0 .422.052.77.155 1.046.104.276.243.498.417.666.174.168.375.286.605.354.23.068.47.102.721.102.696 0 1.259-.122 1.688-.365a2.36 2.36 0 0 0 .966-.998v-8.341h2.698v11.615H48.31l-.066-1.138zm12.306-2.018c0-.186-.031-.36-.094-.52-.063-.162-.187-.312-.372-.452s-.446-.27-.783-.391a9.347 9.347 0 0 0-1.315-.344c-.644-.129-1.23-.29-1.76-.483a5.486 5.486 0 0 1-1.36-.703 3.085 3.085 0 0 1-.883-.972c-.21-.372-.316-.801-.316-1.288 0-.472.107-.921.322-1.347.215-.426.524-.8.927-1.122a4.677 4.677 0 0 1 1.465-.767c.574-.19 1.216-.285 1.927-.285.747 0 1.419.095 2.015.285.596.19 1.1.45 1.515.783.415.333.731.725.95 1.176.218.45.327.937.327 1.46h-2.698a1.66 1.66 0 0 0-.133-.65 1.62 1.62 0 0 0-.4-.563 1.946 1.946 0 0 0-.66-.392 2.649 2.649 0 0 0-.916-.145c-.34 0-.637.041-.888.123-.252.083-.461.19-.628.322a1.273 1.273 0 0 0-.494 1.015c0 .193.037.365.111.515.074.15.206.286.394.408.19.122.443.234.76.338.32.104.719.206 1.2.306.696.143 1.32.311 1.87.505.552.193 1.018.43 1.4.708.38.28.671.608.871.988.2.38.3.83.3 1.352 0 .516-.115.988-.344 1.417-.23.43-.557.8-.983 1.111-.426.312-.938.553-1.538.725-.6.172-1.265.258-1.998.258-.822 0-1.549-.113-2.182-.339-.632-.225-1.163-.52-1.593-.885a3.705 3.705 0 0 1-.971-1.24 3.27 3.27 0 0 1-.328-1.412h2.62c.023.358.108.659.256.902.148.243.337.44.566.59.23.15.488.26.777.328.289.068.585.102.888.102.71 0 1.251-.13 1.621-.392.37-.261.555-.603.555-1.025zm8.088 3.156H65.94V93.912h2.698v11.615zm5.657-11.615l.078 1.342a4.383 4.383 0 0 1 1.52-1.149c.593-.272 1.251-.408 1.977-.408.577 0 1.1.077 1.57.231.47.154.872.403 1.205.746.333.344.59.79.772 1.342.181.551.272 1.22.272 2.007v7.504H78.99v-7.525c0-.4-.046-.739-.139-1.015a1.64 1.64 0 0 0-.405-.67 1.541 1.541 0 0 0-.66-.37 3.298 3.298 0 0 0-.905-.114c-.556 0-1.038.13-1.45.387-.41.258-.738.605-.982 1.041v8.266h-2.698V93.912h2.543zm15.648 11.83c-.888 0-1.687-.144-2.398-.43a5.292 5.292 0 0 1-1.81-1.18 5.144 5.144 0 0 1-1.143-1.783 6.092 6.092 0 0 1-.4-2.222v-.429c0-.916.141-1.744.422-2.485.281-.74.666-1.37 1.155-1.89a5.087 5.087 0 0 1 1.726-1.202 5.387 5.387 0 0 1 2.137-.424c.874 0 1.632.142 2.276.424a4.273 4.273 0 0 1 1.599 1.186c.422.509.736 1.113.944 1.815.207.701.31 1.47.31 2.308v1.116h-7.849c.037.45.135.866.295 1.245.159.38.375.707.649.982.274.276.598.492.971.65.374.157.798.236 1.272.236.666 0 1.245-.129 1.737-.386.492-.258.92-.612 1.282-1.063l1.455 1.342a4.813 4.813 0 0 1-1.715 1.508 5.865 5.865 0 0 1-1.294.494 6.441 6.441 0 0 1-1.62.188zm-.322-9.951c-.74 0-1.338.25-1.793.75-.455.502-.745 1.2-.871 2.094h5.14v-.193a4.616 4.616 0 0 0-.172-.993 2.498 2.498 0 0 0-.427-.848 2.054 2.054 0 0 0-.75-.59c-.307-.147-.683-.22-1.127-.22zm14.183 6.58c0-.186-.031-.36-.094-.52-.063-.162-.187-.312-.372-.452s-.446-.27-.783-.391a9.347 9.347 0 0 0-1.315-.344c-.644-.129-1.23-.29-1.76-.483a5.486 5.486 0 0 1-1.36-.703 3.085 3.085 0 0 1-.883-.972c-.21-.372-.316-.801-.316-1.288 0-.472.107-.921.322-1.347.215-.426.524-.8.927-1.122a4.677 4.677 0 0 1 1.465-.767c.574-.19 1.216-.285 1.927-.285.747 0 1.419.095 2.015.285.595.19 1.1.45 1.515.783.415.333.731.725.95 1.176.218.45.327.937.327 1.46h-2.698a1.66 1.66 0 0 0-.133-.65 1.62 1.62 0 0 0-.4-.563 1.946 1.946 0 0 0-.66-.392 2.649 2.649 0 0 0-.916-.145c-.34 0-.637.041-.889.123-.251.083-.46.19-.627.322a1.273 1.273 0 0 0-.494 1.015c0 .193.037.365.111.515.074.15.206.286.394.408.189.122.443.234.76.338.319.104.719.206 1.2.306.696.143 1.32.311 1.87.505.552.193 1.018.43 1.4.708.38.28.671.608.87.988.2.38.3.83.3 1.352 0 .516-.114.988-.344 1.417-.229.43-.556.8-.982 1.111-.426.312-.938.553-1.538.725-.6.172-1.265.258-1.998.258-.822 0-1.549-.113-2.182-.339-.632-.225-1.164-.52-1.593-.885a3.705 3.705 0 0 1-.971-1.24 3.27 3.27 0 0 1-.328-1.412h2.62c.023.358.108.659.256.902.148.243.336.44.566.59.23.15.488.26.777.328.289.068.585.102.888.102.71 0 1.251-.13 1.621-.392.37-.261.555-.603.555-1.025zm11.952 0c0-.186-.032-.36-.095-.52-.063-.162-.187-.312-.372-.452s-.446-.27-.782-.391a9.347 9.347 0 0 0-1.316-.344c-.644-.129-1.23-.29-1.76-.483a5.486 5.486 0 0 1-1.36-.703 3.085 3.085 0 0 1-.882-.972c-.211-.372-.317-.801-.317-1.288 0-.472.108-.921.322-1.347.215-.426.524-.8.927-1.122a4.677 4.677 0 0 1 1.466-.767c.573-.19 1.216-.285 1.926-.285.748 0 1.42.095 2.015.285.596.19 1.101.45 1.516.783.414.333.73.725.949 1.176.218.45.327.937.327 1.46h-2.698a1.66 1.66 0 0 0-.133-.65 1.62 1.62 0 0 0-.4-.563 1.946 1.946 0 0 0-.66-.392 2.649 2.649 0 0 0-.916-.145c-.34 0-.636.041-.888.123-.252.083-.46.19-.627.322a1.273 1.273 0 0 0-.494 1.015c0 .193.037.365.11.515.075.15.206.286.395.408.188.122.442.234.76.338.318.104.718.206 1.2.306.695.143 1.319.311 1.87.505.551.193 1.018.43 1.399.708.381.28.671.608.871.988.2.38.3.83.3 1.352 0 .516-.115.988-.344 1.417-.23.43-.557.8-.983 1.111-.425.312-.938.553-1.537.725-.6.172-1.266.258-1.999.258-.821 0-1.548-.113-2.181-.339-.633-.225-1.164-.52-1.593-.885a3.705 3.705 0 0 1-.972-1.24 3.27 3.27 0 0 1-.327-1.412h2.62c.022.358.107.659.255.902.148.243.337.44.566.59.23.15.489.26.778.328.288.068.584.102.888.102.71 0 1.25-.13 1.62-.392.37-.261.556-.603.556-1.025z" fill="#616161"></path></g></symbol><symbol viewBox="0 0 75 94" id="icon-logo"><g fill="none" fill-rule="evenodd"><path fill="#FFF" d="M2.286 92.96V87H1.201v-.908h1.085v-.724c0-.368.052-.695.156-.98a1.95 1.95 0 0 1 .447-.721c.195-.195.432-.342.711-.441.28-.1.595-.15.946-.15.27 0 .54.037.806.109l-.063.952a3.547 3.547 0 0 0-.635-.057c-.38 0-.675.11-.882.333-.208.222-.311.54-.311.955v.724h1.466V87H3.46v5.96H2.286zm3.625-3.498c0-.499.073-.961.219-1.387.146-.425.353-.794.622-1.107.269-.313.596-.559.98-.737a3.054 3.054 0 0 1 1.296-.266c.486 0 .923.089 1.31.266.388.178.717.424.987.737.271.313.479.682.622 1.107.144.426.216.888.216 1.387v.14c0 .5-.072.962-.216 1.387a3.243 3.243 0 0 1-.622 1.105c-.27.31-.598.554-.984.73a3.102 3.102 0 0 1-1.3.263c-.483 0-.917-.088-1.302-.263a2.862 2.862 0 0 1-.984-.73c-.27-.311-.48-.68-.625-1.105a4.246 4.246 0 0 1-.22-1.387v-.14zm1.18.14c0 .343.04.667.121.971.08.305.202.573.365.803.163.23.366.414.61.55.243.135.527.202.853.202a1.721 1.721 0 0 0 1.46-.752c.161-.23.283-.498.365-.803.083-.304.124-.628.124-.97v-.14c0-.34-.041-.662-.124-.969a2.516 2.516 0 0 0-.368-.806 1.724 1.724 0 0 0-1.47-.759c-.321 0-.603.07-.844.207a1.867 1.867 0 0 0-.606.552c-.163.23-.285.5-.365.806-.08.307-.12.63-.12.968v.14zm9.865-2.456a3.106 3.106 0 0 0-.578-.045c-.406 0-.737.089-.993.267a1.62 1.62 0 0 0-.575.717v4.875h-1.174v-6.868h1.142l.02.793c.177-.283.4-.508.666-.673.267-.165.59-.247.971-.247a1.736 1.736 0 0 1 .52.089v1.092zm10.112 2.456c0 .504-.06.968-.178 1.393a3.376 3.376 0 0 1-.52 1.105 2.438 2.438 0 0 1-.839.727c-.33.173-.706.26-1.13.26-.452 0-.844-.08-1.174-.238a2.311 2.311 0 0 1-.838-.682l-.057.793h-1.079v-9.75h1.174v3.637a2.33 2.33 0 0 1 .826-.654c.321-.152.7-.228 1.136-.228.431 0 .813.085 1.146.254.332.17.611.407.837.714.227.307.4.675.518 1.104.118.43.178.907.178 1.432v.133zm-1.175-.133c0-.343-.031-.666-.095-.968a2.454 2.454 0 0 0-.308-.797 1.586 1.586 0 0 0-.555-.543c-.229-.133-.508-.2-.838-.2-.216 0-.41.028-.584.083a1.68 1.68 0 0 0-.825.571 2.289 2.289 0 0 0-.26.426v2.97c.076.153.166.294.27.426a1.68 1.68 0 0 0 .828.571c.173.055.368.082.584.082.317 0 .588-.065.812-.196.224-.132.408-.31.552-.534.144-.224.25-.487.318-.79.067-.302.101-.625.101-.968v-.133zm6.894 2.812a2.188 2.188 0 0 1-.82.593c-.33.142-.727.213-1.192.213a2.8 2.8 0 0 1-.92-.143 1.791 1.791 0 0 1-.712-.45 2.052 2.052 0 0 1-.46-.794c-.108-.324-.162-.714-.162-1.171v-4.437h1.174v4.45c0 .308.036.563.108.764.072.201.168.36.286.477a.955.955 0 0 0 .406.24c.153.045.31.067.47.067.478 0 .862-.09 1.152-.273.29-.182.503-.425.638-.73v-4.995h1.174v6.868h-1.117l-.025-.68zm6.925-1.143c0-.127-.019-.246-.057-.358a.755.755 0 0 0-.225-.318 1.683 1.683 0 0 0-.48-.276 4.952 4.952 0 0 0-.818-.235 7.753 7.753 0 0 1-1.029-.285 3.145 3.145 0 0 1-.777-.397 1.635 1.635 0 0 1-.492-.55 1.54 1.54 0 0 1-.172-.742c0-.27.06-.528.181-.771a1.97 1.97 0 0 1 .511-.641c.22-.184.487-.33.8-.438a3.2 3.2 0 0 1 1.047-.162c.41 0 .778.056 1.102.168.323.112.598.266.825.46a1.97 1.97 0 0 1 .695 1.517h-1.18c0-.14-.032-.28-.096-.422a1.15 1.15 0 0 0-.28-.38 1.44 1.44 0 0 0-.45-.274 1.676 1.676 0 0 0-.616-.104c-.245 0-.454.028-.625.085a1.233 1.233 0 0 0-.422.229.878.878 0 0 0-.241.324.948.948 0 0 0-.013.714.65.65 0 0 0 .241.276c.119.082.28.159.486.228.205.07.47.141.797.213.418.097.782.207 1.091.33.31.123.565.266.768.429.204.163.355.35.454.561.1.212.15.457.15.737 0 .3-.063.575-.188.825a1.83 1.83 0 0 1-.536.641 2.632 2.632 0 0 1-.838.416c-.326.1-.688.149-1.086.149a3.53 3.53 0 0 1-1.209-.19 2.708 2.708 0 0 1-.879-.505 2.139 2.139 0 0 1-.54-.717 1.974 1.974 0 0 1-.184-.829h1.175c.012.241.07.444.174.606.104.163.234.296.39.397.157.102.329.174.515.216.186.042.372.063.558.063.242 0 .453-.025.635-.076.182-.05.336-.12.46-.21a.902.902 0 0 0 .283-.313.826.826 0 0 0 .095-.39zm3.98 1.822h-1.174v-6.868h1.174v6.868zm-1.27-8.69c0-.19.059-.351.175-.482.116-.132.289-.197.517-.197.229 0 .402.065.52.197a.694.694 0 0 1 .179.482c0 .19-.06.35-.178.476-.119.127-.292.19-.52.19-.23 0-.402-.063-.518-.19a.678.678 0 0 1-.174-.476zm4.26 1.822l.038.863a2.55 2.55 0 0 1 2.057-.99c.334 0 .636.045.907.136.271.091.502.237.692.438.19.201.338.46.441.775.104.315.156.697.156 1.146v4.5h-1.174v-4.513c0-.267-.03-.494-.09-.683a1.126 1.126 0 0 0-.263-.46 1.038 1.038 0 0 0-.431-.26 1.943 1.943 0 0 0-.594-.083c-.38 0-.715.102-1.003.305a2.07 2.07 0 0 0-.673.8v4.894h-1.174v-6.868h1.11zm8.912 6.995a3.28 3.28 0 0 1-1.298-.248 2.897 2.897 0 0 1-.994-.688 3.044 3.044 0 0 1-.634-1.05 3.865 3.865 0 0 1-.223-1.334v-.266c0-.56.084-1.058.251-1.499.167-.44.39-.81.67-1.11.28-.3.599-.53.958-.69a2.77 2.77 0 0 1 1.124-.237c.49 0 .914.086 1.27.257.355.171.648.407.879.708.23.3.4.656.51 1.066.11.41.166.857.166 1.34v.526H53.62c.008.318.06.614.155.889.096.275.231.514.407.717.175.203.387.364.634.483.248.118.528.177.841.177.415 0 .766-.084 1.054-.253.288-.17.54-.394.755-.673l.718.558c-.11.17-.244.334-.4.492a2.765 2.765 0 0 1-1.27.724c-.27.074-.577.111-.92.111zm-.146-6.157c-.237 0-.455.043-.654.13a1.627 1.627 0 0 0-.533.378c-.157.165-.287.37-.39.615a3.121 3.121 0 0 0-.213.844h3.44v-.088a3.25 3.25 0 0 0-.11-.68 1.844 1.844 0 0 0-.286-.603 1.472 1.472 0 0 0-.499-.431c-.203-.11-.455-.165-.755-.165zm8.182 4.208c0-.127-.019-.246-.057-.358a.755.755 0 0 0-.225-.318 1.683 1.683 0 0 0-.48-.276 4.952 4.952 0 0 0-.819-.235 7.753 7.753 0 0 1-1.028-.285 3.145 3.145 0 0 1-.777-.397 1.635 1.635 0 0 1-.492-.55 1.54 1.54 0 0 1-.172-.742c0-.27.06-.528.181-.771a1.97 1.97 0 0 1 .511-.641c.22-.184.487-.33.8-.438a3.2 3.2 0 0 1 1.047-.162c.41 0 .778.056 1.102.168.323.112.598.266.825.46a1.97 1.97 0 0 1 .695 1.517h-1.18c0-.14-.033-.28-.096-.422a1.15 1.15 0 0 0-.28-.38 1.44 1.44 0 0 0-.45-.274 1.676 1.676 0 0 0-.616-.104c-.245 0-.454.028-.625.085a1.233 1.233 0 0 0-.422.229.878.878 0 0 0-.241.324.948.948 0 0 0-.013.714.65.65 0 0 0 .241.276c.119.082.28.159.486.228.205.07.47.141.796.213.42.097.783.207 1.092.33.31.123.565.266.768.429.203.163.355.35.454.561.1.212.15.457.15.737 0 .3-.063.575-.188.825a1.83 1.83 0 0 1-.536.641 2.632 2.632 0 0 1-.838.416c-.326.1-.688.149-1.086.149a3.53 3.53 0 0 1-1.209-.19 2.708 2.708 0 0 1-.879-.505 2.139 2.139 0 0 1-.54-.717 1.974 1.974 0 0 1-.184-.829h1.175c.012.241.07.444.174.606.104.163.234.296.39.397.157.102.329.174.515.216.186.042.372.063.558.063.242 0 .453-.025.635-.076.182-.05.336-.12.46-.21a.902.902 0 0 0 .283-.313.826.826 0 0 0 .095-.39zm6.703 0c0-.127-.019-.246-.057-.358a.755.755 0 0 0-.225-.318 1.683 1.683 0 0 0-.48-.276 4.952 4.952 0 0 0-.818-.235 7.753 7.753 0 0 1-1.029-.285 3.145 3.145 0 0 1-.777-.397 1.635 1.635 0 0 1-.492-.55 1.54 1.54 0 0 1-.172-.742c0-.27.06-.528.181-.771a1.97 1.97 0 0 1 .511-.641c.22-.184.487-.33.8-.438a3.2 3.2 0 0 1 1.047-.162c.41 0 .778.056 1.102.168.323.112.599.266.825.46a1.97 1.97 0 0 1 .695 1.517h-1.18c0-.14-.032-.28-.096-.422a1.15 1.15 0 0 0-.28-.38 1.44 1.44 0 0 0-.45-.274 1.676 1.676 0 0 0-.616-.104 2 2 0 0 0-.625.085 1.233 1.233 0 0 0-.422.229.878.878 0 0 0-.241.324.948.948 0 0 0-.013.714.65.65 0 0 0 .241.276c.119.082.28.159.486.228.205.07.47.141.797.213.419.097.782.207 1.091.33.31.123.565.266.768.429.204.163.355.35.454.561.1.212.15.457.15.737 0 .3-.063.575-.188.825a1.83 1.83 0 0 1-.536.641 2.632 2.632 0 0 1-.838.416c-.326.1-.688.149-1.085.149a3.53 3.53 0 0 1-1.21-.19 2.708 2.708 0 0 1-.879-.505 2.139 2.139 0 0 1-.54-.717 1.974 1.974 0 0 1-.183-.829h1.174c.013.241.07.444.174.606.104.163.234.296.39.397.157.102.329.174.515.216.186.042.372.063.559.063.24 0 .452-.025.634-.076.182-.05.336-.12.46-.21a.902.902 0 0 0 .283-.313.826.826 0 0 0 .095-.39z"></path><g fill-rule="nonzero" transform="translate(0 -1)"><rect width="74.42" height="58.92" y="16.51" fill="#FFF" rx="6.2"></rect><path fill="#FFF" d="M37.21 25.81a7.89 7.89 0 1 0 0-15.78 7.89 7.89 0 0 0 0 15.78zm0 9c-9.34-.006-16.906-7.58-16.9-16.92C20.316 8.55 27.89.984 37.23.99c9.34.006 16.906 7.58 16.9 16.92a16.91 16.91 0 0 1-16.92 16.92v-.02z"></path><path fill="#212121" d="M50.1 14.18A13.42 13.42 0 0 0 24 15.57a1.015 1.015 0 0 0 2 .35 11.39 11.39 0 0 1 22.43 0 1.016 1.016 0 1 0 2-.36 13.4 13.4 0 0 0-.33-1.38zM13.59 45.76v25.03H9V45.76H4.13v-4.13h14.38v4.13h-4.92M32 70.79l-3.81-12h-2.54v12h-4.59V41.62h7.37c5.32 0 7.45 2.58 7.45 8.6 0 3.6-.74 6.18-3.4 7.62l4.34 12.94-4.82.01zm-3.56-25h-2.79v8.93h2.83c2.46 0 2.83-2 2.83-4.46s-.37-4.46-2.83-4.46l-.04-.01zm11.19-4.16h4.59v29.16h-4.59zM55.32 59.4h-2.75v11.39H48V41.62h7.33c5.28 0 7.49 2.74 7.49 8.85 0 5.9-2 8.93-7.49 8.93h-.01zm.08-13.64h-2.83v9.5h2.83c2.46 0 2.83-2.17 2.83-4.75s-.37-4.75-2.83-4.75zm12.76 25.19a2.85 2.85 0 0 1-2.87-2.87 2.87 2.87 0 1 1 5.73 0 2.85 2.85 0 0 1-2.87 2.87h.01zM66 41.62h4.34v21H66v-21zm-55.19-5.79a3.65 3.65 0 0 1-3 1.29 3.65 3.65 0 0 1-3-1.29c-1.14-1.29-1.12-3.52-1.12-6.53 0-3.01 0-5.24 1.12-6.53a3.65 3.65 0 0 1 3-1.29 3.65 3.65 0 0 1 3 1.29c1.14 1.29 1.12 3.52 1.12 6.53 0 3.01 0 5.24-1.12 6.53zM9 24.23a1.27 1.27 0 0 0-1.16-.58 1.23 1.23 0 0 0-1.14.58c-.45.73-.54 2.28-.54 5.07 0 2.79.09 4.34.54 5.07a1.23 1.23 0 0 0 1.14.58A1.27 1.27 0 0 0 9 34.37c.45-.73.52-2.28.52-5.07 0-2.79-.06-4.3-.52-5.07zm11.32 12.72l-3.62-9.09v9.09h-2.4v-15.3h2.15l3.59 9.09v-9.09h2.4v15.3h-2.12m4.71 0v-15.3h6.43v2.17h-4.02v4.34h3.46v2.17h-3.46v4.45h4.02v2.17h-6.43m17.11-13.13v13.13h-2.41V23.82h-2.55v-2.17h7.54v2.17h-2.58M58.4 36.95h-2.52l-2.19-11.63-2.17 11.63h-2.51l-2.9-15.3h2.64l1.51 11.6 2.1-11.6h2.67l2.12 11.6 1.49-11.6h2.64l-2.88 15.3m11.16-1.12a4.05 4.05 0 0 1-5.93 0c-1.14-1.29-1.12-3.52-1.12-6.53 0-3.01 0-5.24 1.12-6.53a4.05 4.05 0 0 1 5.93 0c1.14 1.29 1.12 3.52 1.12 6.53 0 3.01 0 5.24-1.12 6.53zm-1.81-11.6a1.27 1.27 0 0 0-1.16-.58 1.23 1.23 0 0 0-1.14.58c-.45.73-.54 2.28-.54 5.07 0 2.79.09 4.34.54 5.07a1.23 1.23 0 0 0 1.14.58 1.27 1.27 0 0 0 1.16-.58c.45-.73.52-2.28.52-5.07 0-2.79-.06-4.34-.52-5.07z"></path><path fill="#212121" d="M46.59 14.69l3.58 3.65 1.38-4.94z"></path></g></g></symbol><symbol viewBox="0 0 50 50" id="icon-manage-users"><g fill="none" fill-rule="evenodd"><path d="M32.813 33.594c0 9.06-7.345 16.406-16.407 16.406C7.345 50 0 42.655 0 33.594c0-9.062 7.345-16.407 16.406-16.407 9.062 0 16.407 7.345 16.407 16.407z" fill="#BFE0F3"></path><path fill="#2E3C3E" d="M46.875 23.438H17.187v-1.563h28.125V7.812H17.189V6.25h29.687zM9.375 1.563A3.128 3.128 0 0 0 6.25 4.688a3.128 3.128 0 0 0 3.125 3.125A3.128 3.128 0 0 0 12.5 4.688a3.128 3.128 0 0 0-3.125-3.125m0 7.812a4.692 4.692 0 0 1-4.688-4.688A4.692 4.692 0 0 1 9.375 0a4.692 4.692 0 0 1 4.688 4.688 4.692 4.692 0 0 1-4.688 4.687"></path><path d="M50 29.688H14.062V15.624h12.5V12.5H6.25a4.692 4.692 0 0 0-4.688 4.688v10.937h3.125v-6.25H6.25v7.813H0v-12.5a6.257 6.257 0 0 1 6.25-6.25h21.875v6.25h-12.5v10.937h32.813V4.687H15.624V3.125H50v26.563z" fill="#2E3C3E"></path><path fill="#2E3C3E" d="M17.188 26.563h29.687V25H17.187zM47.656 50H2.344C1.074 50 0 48.57 0 46.875v-2.016l5.862-3.35.776 1.357-5.075 2.9v1.109c0 .956.549 1.563.78 1.563h45.313c.232 0 .782-.607.782-1.563v-1.11l-5.076-2.9.776-1.356L50 44.86v2.016C50 48.57 48.927 50 47.656 50"></path><path fill="#2E3C3E" d="M33.618 46.198l-6.624-3.311.7-1.398 5.876 2.937 5.105-2.917.775 1.356zM16.382 46.198l-5.832-3.333.775-1.356 5.105 2.917 5.877-2.937.7 1.398z"></path><path d="M8.594 34.375c-2.366 0-3.125.854-3.125 3.516 0 2.083 1.095 4.297 3.125 4.297 2.03 0 3.125-2.214 3.125-4.297 0-2.662-.76-3.516-3.125-3.516m0 9.375c-2.672 0-4.688-2.519-4.688-5.86 0-2.363.533-5.078 4.688-5.078 4.154 0 4.687 2.715 4.687 5.079 0 3.34-2.015 5.859-4.687 5.859M25 34.375c-2.366 0-3.125.854-3.125 3.516 0 2.083 1.095 4.297 3.125 4.297 2.03 0 3.125-2.214 3.125-4.297 0-2.662-.76-3.516-3.125-3.516m0 9.375c-2.672 0-4.688-2.519-4.688-5.86 0-2.363.533-5.078 4.688-5.078 4.155 0 4.688 2.715 4.688 5.079 0 3.34-2.016 5.859-4.688 5.859M41.406 34.375c-2.365 0-3.125.854-3.125 3.516 0 2.083 1.096 4.297 3.125 4.297 2.03 0 3.125-2.214 3.125-4.297 0-2.662-.76-3.516-3.125-3.516m0 9.375c-2.672 0-4.687-2.519-4.687-5.86 0-2.363.533-5.078 4.687-5.078 4.155 0 4.688 2.715 4.688 5.079 0 3.34-2.016 5.859-4.688 5.859M15.625 47.656h1.563v-2.343h-1.563zM32.813 47.656h1.562v-2.343h-1.563zM8.594 15.625h1.562v-1.563H8.594zM8.594 18.75h1.562v-1.563H8.594z" fill="#2E3C3E"></path></g></symbol><symbol id="icon-manager-groups"><path d="M7.27 12.78c0 4.34 2.2 8.19 5.51 10.5C5.32 26.21 0 33.51 0 42h3.64c0-8.03 5.8-14.74 13.41-16.15l1.13 3.37h3.64l1.13-3.37c7.61 1.41 13.41 8.12 13.41 16.15H40c0-8.49-5.32-15.79-12.78-18.72 3.31-2.31 5.51-6.16 5.51-10.5C32.73 5.74 27.01 0 20 0 12.99 0 7.27 5.74 7.27 12.78zm21.82 0c0 5.07-4.05 9.13-9.09 9.13s-9.09-4.06-9.09-9.13c0-5.06 4.05-9.13 9.09-9.13s9.09 4.07 9.09 9.13zM18.18 31.04h3.64L23.64 42h-7.28z" fill="#f5f5f5"></path></symbol><symbol viewBox="0 0 64 64" id="icon-manager"><g fill="none" fill-rule="evenodd"><path d="M40 44c0 11.045-8.954 20-20 20S0 55.045 0 44c0-11.046 8.954-20 20-20s20 8.954 20 20z" fill="#B0DAF1"></path><path d="M40.707 31.707l-1.414-1.414L45.586 24H61c.552 0 1-.449 1-1V3c0-.551-.448-1-1-1H29c-.552 0-1 .449-1 1v9h-2V3c0-1.654 1.346-3 3-3h32c1.654 0 3 1.346 3 3v20c0 1.654-1.346 3-3 3H46.414l-5.707 5.707z" fill="#2E3C3E"></path><path fill="#2E3C3E" d="M40 14h2v-2h-2zM44 14h2v-2h-2zM48 14h2v-2h-2zM6 64H4v-7c0-8.01 4.445-9.7 9.152-11.489 1.742-.661 3.544-1.346 5.352-2.379l.992 1.736c-1.943 1.111-3.903 1.856-5.633 2.513C9.128 49.181 6 50.369 6 57v7zM50 64h-2v-7c0-6.631-3.128-7.819-7.863-9.619-1.73-.657-3.69-1.402-5.633-2.513l.992-1.736c1.808 1.033 3.609 1.718 5.352 2.379C45.555 47.3 50 48.99 50 57v7z"></path><path d="M27 44.882l3.803 1.9 2.91-2.91-1.187-1.78-5.526.922-5.526-.921-1.187 1.78 2.91 2.91L27 44.882zm4.197 4.335L27 47.117l-4.197 2.1-5.09-5.09 2.813-4.22L27 40.986l6.474-1.08 2.813 4.222-5.09 5.089z" fill="#2E3C3E"></path><path fill="#2E3C3E" d="M31 41h2v-4h-2zM21 41h2v-4h-2zM26 56h2v-2h-2zM26 52h2v-2h-2z"></path><path d="M22.519 36.14c1.752.84 4.423.86 4.48.86.06 0 2.73-.02 4.48-.858.313-.25 2.66-2.304 3.52-8.213v-3.93c0-5.531-2.466-8-8-8-5.531 0-8 2.469-8 8v3.93c.863 5.917 3.202 7.96 3.52 8.212M26.999 39c-.13 0-3.26-.012-5.446-1.105l-.107-.063c-.138-.091-3.384-2.332-4.436-9.69L17 28v-4c0-6.635 3.365-10 10-10 6.636 0 10 3.365 10 10l-.01 4.142c-1.051 7.358-4.297 9.599-4.435 9.69l-.107.063C30.26 38.988 27.132 39 27 39" fill="#2E3C3E"></path><path fill="#2E3C3E" d="M32.046 27.095l-10-4-3.6 1.8-.893-1.79 4.4-2.2 10 4 3.6-1.8.894 1.79zM12 64h2v-6h-2zM40 64h2v-6h-2z"></path></g></symbol><symbol viewBox="0 0 14 14" id="icon-mobile-menu-close"><path d="M14 1.41L12.59 0 7 5.59 1.41 0 0 1.41 5.59 7 0 12.59 1.41 14 7 8.41 12.59 14 14 12.59 8.41 7z" fill="#FFF" fill-rule="evenodd"></path></symbol><symbol viewBox="0 0 18 18" id="icon-mobile-menu-login"><path d="M7.09 12.59L8.5 14l5-5-5-5-1.41 1.41L9.67 8H0v2h9.67l-2.58 2.59zM16 0H2a2 2 0 0 0-2 2v4h2V2h14v14H2v-4H0v4a2 2 0 0 0 2 2h14c1.1 0 2-.9 2-2V2c0-1.1-.9-2-2-2z" fill-rule="evenodd"></path></symbol><symbol viewBox="0 0 18 14" id="icon-mobile-menu-open"><path d="M18 14v-2H0v2h18zM0 8h18V6H0v2zm0-8v2h18V0H0z" fill-rule="evenodd"></path></symbol><symbol viewBox="0 0 50 50" id="icon-money"><g fill="none" fill-rule="evenodd"><path d="M50 16.406c0 9.061-7.345 16.407-16.406 16.407-9.062 0-16.407-7.346-16.407-16.407S24.532 0 33.594 0C42.655 0 50 7.345 50 16.406z" fill="#BFE0F3"></path><path d="M17.188 32.813a3.128 3.128 0 0 1-3.125-3.126h1.562c0 .862.7 1.563 1.563 1.563.861 0 1.562-.7 1.562-1.563 0-.507-1.113-1.285-1.882-1.63-.468-.21-2.805-1.344-2.805-3.057a3.128 3.128 0 0 1 3.124-3.125A3.128 3.128 0 0 1 20.313 25H18.75c0-.862-.7-1.563-1.563-1.563-.861 0-1.562.701-1.562 1.563 0 .507 1.113 1.286 1.882 1.63.468.21 2.805 1.344 2.805 3.058a3.128 3.128 0 0 1-3.125 3.125" fill="#2E3C3E"></path><path fill="#2E3C3E" d="M16.406 22.656h1.563v-2.343h-1.563zM16.406 34.375h1.563v-2.344h-1.563zM21.875 28.125h1.563v-1.563h-1.563zM10.938 28.125H12.5v-1.563h-1.563z"></path><path d="M20.313 50H5.469A5.475 5.475 0 0 1 0 44.531v-12.5c0-13.78 6.033-17 10.025-19.131 1.117-.596 2.081-1.11 2.704-1.734l1.105 1.105c-.787.787-1.846 1.352-3.073 2.007-3.882 2.072-9.198 4.91-9.198 17.753v12.5a3.91 3.91 0 0 0 3.906 3.907h14.843V50zM34.375 31.25h-1.563c0-12.655-5.212-15.158-9.018-16.986-1.247-.598-2.424-1.164-3.253-1.993l1.105-1.105c.64.641 1.652 1.127 2.824 1.69 3.944 1.893 9.905 4.757 9.905 18.394" fill="#2E3C3E"></path><path d="M13.281 9.375v1.563h7.814l-.001-1.563H13.28zm7.813 3.125H13.28c-.861 0-1.562-.7-1.562-1.563V9.376c0-.862.7-1.563 1.562-1.563h7.813c.861 0 1.562.701 1.562 1.563v1.563c0 .861-.7 1.562-1.562 1.562z" fill="#2E3C3E"></path><path d="M14.545 7.813h5.285l2.56-5.12-2.077-1.038-2.776 1.388a.784.784 0 0 1-.699 0l-2.775-1.388-2.077 1.038 2.56 5.12zm5.768 1.562h-6.25a.782.782 0 0 1-.7-.432l-3.125-6.25a.781.781 0 0 1 .35-1.048L13.713.082c.22-.11.48-.11.699 0l2.776 1.388L19.963.082c.22-.11.48-.11.699 0l3.125 1.563a.781.781 0 0 1 .35 1.048l-3.126 6.25a.78.78 0 0 1-.698.432zM21.875 10.938V9.374a2.347 2.347 0 0 0 2.344-2.344h1.562a3.91 3.91 0 0 1-3.906 3.907M12.5 10.938A3.91 3.91 0 0 1 8.594 7.03h1.562A2.347 2.347 0 0 0 12.5 9.375v1.563zM17.188 18.75c-4.739 0-8.594 3.855-8.594 8.594 0 4.738 3.855 8.593 8.594 8.593 4.738 0 8.593-3.855 8.593-8.593 0-4.739-3.855-8.594-8.593-8.594m0 18.75c-5.601 0-10.157-4.555-10.157-10.156 0-5.601 4.556-10.157 10.157-10.157 5.6 0 10.156 4.556 10.156 10.157 0 5.6-4.556 10.156-10.157 10.156M23.438 46.875v1.563h6.25v-1.563h-6.25zM29.688 50h-6.25c-.862 0-1.563-.7-1.563-1.563v-1.562c0-.862.7-1.563 1.563-1.563h6.25c.861 0 1.562.701 1.562 1.563v1.563c0 .861-.7 1.562-1.563 1.562z" fill="#2E3C3E"></path><path d="M23.438 43.75v1.563h6.25V43.75h-6.25zm6.25 3.125h-6.25c-.862 0-1.563-.7-1.563-1.563V43.75c0-.862.7-1.563 1.563-1.563h6.25c.861 0 1.562.701 1.562 1.563v1.563c0 .861-.7 1.562-1.563 1.562z" fill="#2E3C3E"></path><path d="M23.438 40.625v1.563h6.25v-1.563h-6.25zm6.25 3.125h-6.25c-.862 0-1.563-.7-1.563-1.563v-1.562c0-.862.7-1.563 1.563-1.563h6.25c.861 0 1.562.701 1.562 1.563v1.563c0 .861-.7 1.562-1.563 1.562zM31.25 46.875v1.563h6.25v-1.563h-6.25zM37.5 50h-6.25c-.862 0-1.563-.7-1.563-1.563v-1.562c0-.862.701-1.563 1.563-1.563h6.25c.862 0 1.563.701 1.563 1.563v1.563c0 .861-.701 1.562-1.563 1.562z" fill="#2E3C3E"></path><path d="M31.25 43.75v1.563h6.25V43.75h-6.25zm6.25 3.125h-6.25c-.862 0-1.563-.7-1.563-1.563V43.75c0-.862.701-1.563 1.563-1.563h6.25c.862 0 1.563.701 1.563 1.563v1.563c0 .861-.701 1.562-1.563 1.562z" fill="#2E3C3E"></path><path d="M31.25 40.625v1.563h6.25v-1.563h-6.25zm6.25 3.125h-6.25c-.862 0-1.563-.7-1.563-1.563v-1.562c0-.862.701-1.563 1.563-1.563h6.25c.862 0 1.563.701 1.563 1.563v1.563c0 .861-.701 1.562-1.563 1.562z" fill="#2E3C3E"></path><path d="M31.25 37.5v1.563h6.25V37.5h-6.25zm6.25 3.125h-6.25c-.862 0-1.563-.7-1.563-1.563V37.5c0-.862.701-1.563 1.563-1.563h6.25c.862 0 1.563.701 1.563 1.563v1.563c0 .861-.701 1.562-1.563 1.562z" fill="#2E3C3E"></path><path d="M31.25 34.375v1.563h6.25v-1.563h-6.25zM37.5 37.5h-6.25c-.862 0-1.563-.7-1.563-1.563v-1.562c0-.862.701-1.563 1.563-1.563h6.25c.862 0 1.563.701 1.563 1.563v1.563c0 .861-.701 1.562-1.563 1.562zM39.063 46.875v1.563h6.25v-1.563h-6.25zM45.313 50h-6.25c-.862 0-1.563-.7-1.563-1.563v-1.562c0-.862.7-1.563 1.563-1.563h6.25c.861 0 1.562.701 1.562 1.563v1.563c0 .861-.7 1.562-1.563 1.562z" fill="#2E3C3E"></path><path d="M39.063 43.75v1.563h6.25V43.75h-6.25zm6.25 3.125h-6.25c-.862 0-1.563-.7-1.563-1.563V43.75c0-.862.7-1.563 1.563-1.563h6.25c.861 0 1.562.701 1.562 1.563v1.563c0 .861-.7 1.562-1.563 1.562z" fill="#2E3C3E"></path><path d="M39.063 40.625v1.563h6.25v-1.563h-6.25zm6.25 3.125h-6.25c-.862 0-1.563-.7-1.563-1.563v-1.562c0-.862.7-1.563 1.563-1.563h6.25c.861 0 1.562.701 1.562 1.563v1.563c0 .861-.7 1.562-1.563 1.562z" fill="#2E3C3E"></path><path d="M39.063 37.5v1.563h6.25V37.5h-6.25zm6.25 3.125h-6.25c-.862 0-1.563-.7-1.563-1.563V37.5c0-.862.7-1.563 1.563-1.563h6.25c.861 0 1.562.701 1.562 1.563v1.563c0 .861-.7 1.562-1.563 1.562z" fill="#2E3C3E"></path><path d="M39.063 34.375v1.563h6.25v-1.563h-6.25zm6.25 3.125h-6.25c-.862 0-1.563-.7-1.563-1.563v-1.562c0-.862.7-1.563 1.563-1.563h6.25c.861 0 1.562.701 1.562 1.563v1.563c0 .861-.7 1.562-1.563 1.562z" fill="#2E3C3E"></path><path d="M39.063 31.25v1.563h6.25V31.25h-6.25zm6.25 3.125h-6.25c-.862 0-1.563-.7-1.563-1.563V31.25c0-.862.7-1.563 1.563-1.563h6.25c.861 0 1.562.701 1.562 1.563v1.563c0 .861-.7 1.562-1.563 1.562z" fill="#2E3C3E"></path><path d="M39.063 28.125v1.563h6.25v-1.563h-6.25zm6.25 3.125h-6.25c-.862 0-1.563-.7-1.563-1.563v-1.562c0-.862.7-1.563 1.563-1.563h6.25c.861 0 1.562.701 1.562 1.563v1.563c0 .861-.7 1.562-1.563 1.562zM39.063 20.313v1.562h6.25v-1.563h-6.25zm6.25 3.125h-6.25c-.862 0-1.563-.701-1.563-1.563v-1.563c0-.861.7-1.562 1.563-1.562h6.25c.861 0 1.562.7 1.562 1.563v1.562c0 .862-.7 1.563-1.563 1.563zM39.844 17.188h1.562v-6.25h-1.562zM42.969 12.5h1.562V6.25H42.97zM39.844 9.375h1.562V7.812h-1.562zM42.969 15.625h1.562v-1.563H42.97z" fill="#2E3C3E"></path></g></symbol><symbol viewBox="0 0 60 64" id="icon-one-partner"><g fill="none" fill-rule="evenodd"><path d="M40 44c0 11.046-8.954 20-20 20S0 55.046 0 44c0-11.051 8.954-20 20-20s20 8.949 20 20z" fill="#B0DAF1"></path><path d="M30 2c-2.206 0-4 1.795-4 4 0 2.207 1.794 4 4 4s4-1.793 4-4c0-2.205-1.794-4-4-4m0 10c-3.309 0-6-2.69-6-6 0-3.308 2.691-6 6-6s6 2.692 6 6c0 3.31-2.691 6-6 6M29 64h2V46h-2zM29 20h2v-2h-2zM29 24h2v-2h-2zM23 44h11v-2H23zM21 40h18v-2H21zM43.707 38.708l-1.414-1.414L47.586 32l-5.293-5.293 1.414-1.414 6 6a.999.999 0 0 1 0 1.414l-6 6z" fill="#192324"></path><path d="M38 64h-2V42h2V24.001A4.004 4.004 0 0 1 42 20h3.586L58 7.586V4h2v4.415L46.414 22H42c-1.103 0-2 .897-2 2.001V44h-2v20z" fill="#192324"></path><path fill="#192324" d="M46.414 44H42v-2h3.586L55 32.586v-1.171l-9.707-9.708 1.414-1.414L57 30.586v2.829zM44.414 16H15.586L5.293 5.707l1.414-1.414L16.414 14h27.172l9.707-9.707 1.414 1.414zM16.293 38.708l-6-6a.999.999 0 0 1 0-1.414l6-6 1.414 1.413-5.293 5.294 5.293 5.293-1.414 1.414z"></path><path d="M24 64h-2V44h-2V24.001A2.002 2.002 0 0 0 18 22h-4.414L0 8.415V4h2v3.586L14.414 20H18c2.206 0 4 1.794 4 4.001V42h2v22z" fill="#192324"></path><path fill="#192324" d="M18 44h-4.414L3 33.415v-2.829l10.293-10.293 1.414 1.414L5 31.415v1.171L14.414 42H18zM0 2h2V0H0zM58 2h2V0h-2z"></path></g></symbol><symbol id="icon-ott-logo"><path d="M46.86 13.73C46.76 6.14 40.56 0 32.95 0S19.14 6.14 19.04 13.73H5.9c-3.24 0-5.9 2.65-5.9 5.9v39.14c0 3.24 2.66 5.9 5.9 5.9h53.62c3.24 0 5.9-2.66 5.9-5.9V19.63c0-3.25-2.66-5.9-5.9-5.9zm-7.99 0H27.03c.1-3.19 2.71-5.75 5.92-5.75s5.82 2.56 5.92 5.75z" fill="#fff"></path><path d="M11.39 38.67v22.19H7.32V38.67H3V35h12.75v3.67h-4.36M24.36 50.25h-2.29v10.61H18V35h6.54c4.72 0 6.61 2.29 6.61 7.63 0 3.19-.66 5.48-3.02 6.75l3.85 11.48h-4.25zm-2.29-11.58v7.92h2.5c2.18 0 2.51-1.82 2.51-3.96 0-2.15-.33-3.96-2.51-3.96zM35 35h4.07v25.86H35zM46.07 50.76v10.1H42V35h6.5c4.69 0 6.65 2.43 6.65 7.85 0 5.23-1.75 7.91-6.65 7.91zm0-12.09v8.42h2.5c2.18 0 2.51-1.92 2.51-4.21s-.33-4.21-2.51-4.21zM57 58.46c0-1.41 1.13-2.58 2.54-2.58 1.42 0 2.55 1.17 2.55 2.58 0 1.42-1.13 2.55-2.55 2.55-1.41 0-2.54-1.13-2.54-2.55zm.62-4.86h3.85V35h-3.85zM7.62 30.87c-1.3 0-2.06-.49-2.63-1.14C3.98 28.58 4 26.6 4 23.94c0-2.67-.02-4.65.99-5.8C5.56 17.5 6.32 17 7.62 17c1.3 0 2.06.5 2.63 1.14 1.01 1.15.99 3.13.99 5.8 0 2.66.02 4.64-.99 5.79-.57.65-1.33 1.14-2.63 1.14zm0-11.95c-.51 0-.82.21-1.01.52-.4.65-.48 2.02-.48 4.5 0 2.47.08 3.84.48 4.49.19.31.5.52 1.01.52s.84-.21 1.03-.52c.4-.65.46-2.02.46-4.49 0-2.48-.06-3.85-.46-4.5-.19-.31-.52-.52-1.03-.52zM18.34 31.57l-3.21-8.06v8.06H13V18h1.9l3.19 8.06V18h2.13v13.57h-1.88M22 31.57V18h5.7v1.92h-3.57v3.85h3.07v1.93h-3.07v3.94h3.57v1.93H22M37.4 19.92v11.65h-2.13V19.92H33V18h6.69v1.92H37.4M50.9 31.57h-2.23l-1.94-10.31-1.93 10.31h-2.23L40 18h2.34l1.34 10.29L45.54 18h2.37l1.88 10.29L51.11 18h2.34L50.9 31.57M57.62 30.87c-1.3 0-2.06-.49-2.63-1.14-1.01-1.15-.99-3.13-.99-5.79 0-2.67-.02-4.65.99-5.8.57-.64 1.33-1.14 2.63-1.14 1.3 0 2.06.5 2.63 1.14 1.01 1.15.99 3.13.99 5.8 0 2.66.02 4.64-.99 5.79-.57.65-1.33 1.14-2.63 1.14zm0-11.95c-.51 0-.82.21-1.01.52-.4.65-.48 2.02-.48 4.5 0 2.47.08 3.84.48 4.49.19.31.5.52 1.01.52s.84-.21 1.03-.52c.4-.65.46-2.02.46-4.49 0-2.48-.06-3.85-.46-4.5-.19-.31-.52-.52-1.03-.52zM43.16 10.33c-.69-2-1.95-3.74-3.58-5.02A10.809 10.809 0 0 0 32.88 3c-3 0-5.73 1.22-7.69 3.19A10.829 10.829 0 0 0 22 13.88a.956.956 0 0 0 1.91 0c0-2.48 1-4.72 2.63-6.34a8.899 8.899 0 0 1 6.34-2.63c2.09 0 4 .71 5.52 1.9a9.04 9.04 0 0 1 2.91 4l-1.79.47 4.01 4.06 1.52-5.5-1.89.49" fill="#1d1c1a"></path></symbol><symbol viewBox="0 0 66 65" id="icon-ott-logo2"><g fill-rule="nonzero" fill="none"><path d="M46.86 13.73C46.76 6.14 40.56 0 32.95 0S19.14 6.14 19.04 13.73H5.9c-3.24 0-5.9 2.65-5.9 5.9v39.14c0 3.24 2.66 5.9 5.9 5.9h53.62c3.24 0 5.9-2.66 5.9-5.9V19.63c0-3.25-2.66-5.9-5.9-5.9H46.86zm-7.99 0H27.03c.1-3.19 2.71-5.75 5.92-5.75s5.82 2.56 5.92 5.75z" fill="#FFF"></path><path fill="#1D1C1A" d="M11.39 38.67v22.19H7.32V38.67H3V35h12.75v3.67h-4.36M24.36 50.25h-2.29v10.61H18V35h6.54c4.72 0 6.61 2.29 6.61 7.63 0 3.19-.66 5.48-3.02 6.75l3.85 11.48h-4.25l-3.37-10.61zm-2.29-11.58v7.92h2.5c2.18 0 2.51-1.82 2.51-3.96 0-2.15-.33-3.96-2.51-3.96h-2.5zM35 35h4.07v25.86H35zM46.07 50.76v10.1H42V35h6.5c4.69 0 6.65 2.43 6.65 7.85 0 5.23-1.75 7.91-6.65 7.91h-2.43zm0-12.09v8.42h2.5c2.18 0 2.51-1.92 2.51-4.21s-.33-4.21-2.51-4.21h-2.5zM57 58.46c0-1.41 1.13-2.58 2.54-2.58 1.42 0 2.55 1.17 2.55 2.58 0 1.42-1.13 2.55-2.55 2.55-1.41 0-2.54-1.13-2.54-2.55zm.62-4.86h3.85V35h-3.85v18.6zM7.62 30.87c-1.3 0-2.06-.49-2.63-1.14C3.98 28.58 4 26.6 4 23.94c0-2.67-.02-4.65.99-5.8C5.56 17.5 6.32 17 7.62 17c1.3 0 2.06.5 2.63 1.14 1.01 1.15.99 3.13.99 5.8 0 2.66.02 4.64-.99 5.79-.57.65-1.33 1.14-2.63 1.14zm0-11.95c-.51 0-.82.21-1.01.52-.4.65-.48 2.02-.48 4.5 0 2.47.08 3.84.48 4.49.19.31.5.52 1.01.52s.84-.21 1.03-.52c.4-.65.46-2.02.46-4.49 0-2.48-.06-3.85-.46-4.5-.19-.31-.52-.52-1.03-.52zM18.34 31.57l-3.21-8.06v8.06H13V18h1.9l3.19 8.06V18h2.13v13.57h-1.88M22 31.57V18h5.7v1.92h-3.57v3.85h3.07v1.93h-3.07v3.94h3.57v1.93H22M37.4 19.92v11.65h-2.13V19.92H33V18h6.69v1.92H37.4M50.9 31.57h-2.23l-1.94-10.31-1.93 10.31h-2.23L40 18h2.34l1.34 10.29L45.54 18h2.37l1.88 10.29L51.11 18h2.34L50.9 31.57M57.62 30.87c-1.3 0-2.06-.49-2.63-1.14-1.01-1.15-.99-3.13-.99-5.79 0-2.67-.02-4.65.99-5.8.57-.64 1.33-1.14 2.63-1.14 1.3 0 2.06.5 2.63 1.14 1.01 1.15.99 3.13.99 5.8 0 2.66.02 4.64-.99 5.79-.57.65-1.33 1.14-2.63 1.14zm0-11.95c-.51 0-.82.21-1.01.52-.4.65-.48 2.02-.48 4.5 0 2.47.08 3.84.48 4.49.19.31.5.52 1.01.52s.84-.21 1.03-.52c.4-.65.46-2.02.46-4.49 0-2.48-.06-3.85-.46-4.5-.19-.31-.52-.52-1.03-.52zM43.16 10.33c-.69-2-1.95-3.74-3.58-5.02A10.809 10.809 0 0 0 32.88 3c-3 0-5.73 1.22-7.69 3.19A10.829 10.829 0 0 0 22 13.88a.956.956 0 0 0 1.91 0c0-2.48 1-4.72 2.63-6.34a8.899 8.899 0 0 1 6.34-2.63c2.09 0 4 .71 5.52 1.9a9.04 9.04 0 0 1 2.91 4l-1.79.47 4.01 4.06 1.52-5.5-1.89.49"></path></g></symbol><symbol viewBox="0 0 64 64" id="icon-plane"><g fill="none" fill-rule="evenodd"><path d="M64 21c0 11.597-9.401 21-21 21s-21-9.403-21-21C22 9.396 31.401 0 43 0s21 9.396 21 21z" fill="#B0DAF1"></path><path d="M55 37H42v-2h13c2.921 0 5.936-1.815 7-2.523v-.954C60.936 30.815 57.921 29 55 29H12a.997.997 0 0 1-.707-.293L6.586 24H5.257l2.538 11H19v2H7a1 1 0 0 1-.975-.775l-3-13A1.002 1.002 0 0 1 4 22h3c.265 0 .52.105.707.293L12.414 27H55c4.284 0 8.426 3.069 8.6 3.2a1 1 0 0 1 .4.8v2a1 1 0 0 1-.4.8c-.174.131-4.316 3.2-8.6 3.2" fill="#2E3C3E"></path><path d="M27.414 27h11.727l-14.4-8h-5.327l8 8zM43 29H27a.997.997 0 0 1-.707-.293l-10-10A1 1 0 0 1 17 17h8c.17 0 .337.044.486.126l18 10A1 1 0 0 1 43 29zM19.414 41h5.327l14.4-8H27.414l-8 8zM25 43h-8a1.002 1.002 0 0 1-.707-1.707l10-10A.997.997 0 0 1 27 31h16a1 1 0 0 1 .485 1.874l-17.999 10A1.009 1.009 0 0 1 25 43zM50 33h2v-2h-2zM46 33h2v-2h-2zM20 33h2v-2h-2zM16 33h2v-2h-2zM12 33h2v-2h-2zM6 43h8v-2H6zM0 43h4v-2H0zM10 19h4v-2h-4zM0 19h8v-2H0zM57 23h-2v-1c0-4.411-3.589-8-8-8h-3.002l1.202-1.601c.524-.696.8-1.525.8-2.399 0-2.206-1.794-4-4-4a3.96 3.96 0 0 0-2.399.799l-.78.587-.605-.766C35.791 3.555 32.691 2 29 2c-6.065 0-11 4.935-11 11h-2c0-7.169 5.831-13 13-13 3.983 0 7.494 1.617 10.206 4.688a6.006 6.006 0 0 1 8.446 7.333C52.863 12.358 57 16.705 57 22v1zM32.94 48.339l-1.881-.678c.72-2.003 3.23-6.661 10.94-6.661 4.065 0 7.869 1.599 10.714 4.502L51.285 46.9A12.902 12.902 0 0 0 42 43c-6.21 0-8.341 3.345-9.06 5.339M19 60h-2c0-5.514 4.486-10 10-10 2.465 0 4.833.905 6.669 2.548l-1.334 1.49A7.989 7.989 0 0 0 27 52c-4.411 0-8 3.589-8 8" fill="#2E3C3E"></path><path d="M56 60v-2c3.309 0 6-2.691 6-6s-2.691-6-6-6-6 2.691-6 6h-2c0-4.411 3.589-8 8-8s8 3.589 8 8-3.589 8-8 8" fill="#2E3C3E"></path><path fill="#2E3C3E" d="M42 60h14v-2H42zM36 60h4v-2h-4zM6 64h4v-2H6z"></path><path d="M6 64c-3.309 0-6-2.691-6-6a6.008 6.008 0 0 1 5.297-5.959C6.653 48.914 9.921 47 14 47c4.432 0 8 3.282 8 6h-2c0-1.405-2.474-4-6-4-3.462 0-6.164 1.654-7.051 4.316L6.721 54H6c-2.206 0-4 1.794-4 4s1.794 4 4 4v2z" fill="#2E3C3E"></path></g></symbol><symbol viewBox="0 0 64 64" id="icon-privat"><g fill="none" fill-rule="evenodd"><path d="M64 35c0 11.598-9.401 21-21 21s-21-9.402-21-21c0-11.599 9.401-21 21-21s21 9.401 21 21z" fill="#B0DAF1"></path><path fill="#2E3C3E" d="M31 64h2V41h-2zM32 2c-2.206 0-4 1.794-4 4s1.794 4 4 4 4-1.794 4-4-1.794-4-4-4m0 10c-3.309 0-6-2.691-6-6s2.691-6 6-6 6 2.691 6 6-2.691 6-6 6M38 64h2V38h-2zM43 33a1 1 0 0 1-1-1V22c0-3.309-2.691-6-6-6h-8c-1.96 0-3.801.962-4.925 2.572a1 1 0 0 1-1.64-1.144A8.011 8.011 0 0 1 28 14h8c4.411 0 8 3.589 8 8v10a1 1 0 0 1-1 1M24 64h2V45h-2z"></path><path d="M13.713 40.701C12.64 41.797 12 43.403 12 45.001c0 3.307 2.691 6 6 6 3.308 0 6-2.693 6-6v-3c0-2.758 2.243-5 5-5h33v-4H29c-2.757 0-5-2.244-5-5v-3c0-3.31-2.692-6-6-6-3.309 0-6 2.69-6 6 0 1.595.64 3.203 1.713 4.298l.001.001-1.429 1.4C11.212 29.603 9.69 29 8 29c-3.309 0-6 2.691-6 6 0 3.308 2.691 6 6 6 1.69 0 3.212-.604 4.285-1.7l1.43 1.4-.002.001M18 53.001c-4.41 0-8-3.59-8-8 0-.79.113-1.57.33-2.316A8.616 8.616 0 0 1 8 43c-4.41 0-8-3.589-8-8 0-4.41 3.59-8 8-8 .81 0 1.591.107 2.33.314A8.317 8.317 0 0 1 10 25c0-4.41 3.59-8 8-8 4.411 0 8 3.59 8 8v3c0 1.654 1.345 3 3 3h35v8H29c-1.655 0-3 1.346-3 3v3c0 4.411-3.589 8-8 8" fill="#2E3C3E"></path><path d="M18 23c-1.103 0-2 .897-2 2 0 1.102.897 2 2 2s2-.898 2-2c0-1.103-.897-2-2-2m0 6c-2.206 0-4-1.794-4-4s1.794-4 4-4 4 1.794 4 4-1.794 4-4 4M18 43c-1.103 0-2 .897-2 2 0 1.102.897 2 2 2s2-.898 2-2c0-1.103-.897-2-2-2m0 6c-2.206 0-4-1.794-4-4s1.794-4 4-4 4 1.794 4 4-1.794 4-4 4M8 33c-1.103 0-2 .897-2 2 0 1.102.897 2 2 2s2-.898 2-2c0-1.103-.897-2-2-2m0 6c-2.206 0-4-1.794-4-4s1.794-4 4-4 4 1.794 4 4-1.794 4-4 4M17 36h2v-2h-2zM21 36h2v-2h-2zM62 47h-4v-2h2v-6h-6v6h2v2h-4V37h10z" fill="#2E3C3E"></path><path fill="#2E3C3E" d="M56 45h2v-4h-2zM31 20h2v-2h-2zM31 24h2v-2h-2z"></path></g></symbol><symbol viewBox="0 0 50 50" id="icon-profit"><g fill="none" fill-rule="evenodd"><path d="M50 33.594C50 42.654 42.656 50 33.594 50c-9.062 0-16.406-7.345-16.406-16.406 0-9.062 7.344-16.407 16.406-16.407C42.656 17.187 50 24.532 50 33.594" fill="#BFE0F3"></path><path d="M35.938 12.5c-.862 0-1.563.7-1.563 1.562 0 .862.7 1.563 1.563 1.563.861 0 1.562-.7 1.562-1.563 0-.861-.7-1.562-1.562-1.562m0 4.687a3.128 3.128 0 0 1-3.125-3.125 3.128 3.128 0 0 1 3.125-3.125 3.128 3.128 0 0 1 3.125 3.125 3.128 3.128 0 0 1-3.125 3.125M4.688 26.562H3.125V5.47A2.347 2.347 0 0 1 5.47 3.125h21.094v1.562H5.469c-.43 0-.781.351-.781.782v21.093zM44.531 46.875H23.438v-1.563H44.53c.43 0 .782-.35.782-.78V23.436h1.562v21.094a2.347 2.347 0 0 1-2.344 2.344" fill="#2E3C3E"></path><path fill="#2E3C3E" d="M6.25 7.812h10.938V6.25H6.25zM6.25 10.937h1.563V9.375H6.25zM9.375 10.937h1.563V9.375H9.374zM12.5 10.937h1.563V9.375H12.5zM24.219 25.781h1.562V24.22H24.22zM32.813 43.75H43.75v-1.563H32.812zM42.188 40.625h1.562v-1.563h-1.563zM39.063 40.625h1.562v-1.563h-1.563zM35.938 40.625H37.5v-1.563h-1.563zM14.063 41.406a3.128 3.128 0 0 1-3.125-3.125H12.5c0 .862.7 1.563 1.563 1.563.861 0 1.562-.701 1.562-1.563 0-.507-1.112-1.286-1.882-1.63-.468-.21-2.805-1.344-2.805-3.057a3.128 3.128 0 0 1 3.125-3.125 3.128 3.128 0 0 1 3.125 3.125h-1.563c0-.862-.7-1.563-1.562-1.563-.862 0-1.563.701-1.563 1.563 0 .507 1.113 1.286 1.882 1.63.468.21 2.806 1.344 2.806 3.057a3.128 3.128 0 0 1-3.125 3.125"></path><path fill="#2E3C3E" d="M13.281 31.25h1.563v-2.344H13.28zM13.281 42.969h1.563v-2.344H13.28zM18.75 36.719h1.563v-1.563H18.75zM7.813 36.719h1.562v-1.563H7.812zM35.938 22.656a.78.78 0 0 1 .61.294l2.762 3.453 2.878-1.15v-4.16c0-.43.35-.78.78-.78h4.16l1.15-2.878-3.453-2.762a.78.78 0 0 1 0-1.22l3.453-2.763-1.15-2.878h-4.16a.782.782 0 0 1-.78-.78v-4.16l-2.878-1.15-2.762 3.453c-.296.371-.924.371-1.22 0l-2.763-3.453-2.877 1.15v4.16c0 .43-.35.78-.782.78h-4.158l-1.151 2.878 3.453 2.762a.78.78 0 0 1 0 1.22l-3.453 2.763 1.15 2.877h4.16c.43 0 .78.35.78.782v4.158l2.878 1.151 2.763-3.453a.78.78 0 0 1 .61-.294m3.125 5.469a.781.781 0 0 1-.61-.294l-2.515-3.143-2.515 3.143a.785.785 0 0 1-.901.238l-3.906-1.562a.783.783 0 0 1-.49-.726v-3.906h-3.907a.783.783 0 0 1-.726-.49l-1.562-3.907a.782.782 0 0 1 .238-.9l3.143-2.516-3.143-2.514a.782.782 0 0 1-.238-.901l1.562-3.906a.783.783 0 0 1 .726-.491h3.906V2.344c0-.32.195-.607.49-.726L32.523.055a.783.783 0 0 1 .9.239l2.516 3.143L38.452.294a.783.783 0 0 1 .901-.239l3.907 1.563c.296.12.49.406.49.726V6.25h3.906c.32 0 .607.194.726.49l1.563 3.907a.782.782 0 0 1-.239.9l-3.143 2.515 3.143 2.515c.27.215.366.58.239.901l-1.563 3.906a.783.783 0 0 1-.726.49H43.75v3.907c0 .32-.194.606-.49.726l-3.907 1.562a.786.786 0 0 1-.29.056"></path><path d="M35.938 8.594a5.475 5.475 0 0 0-5.47 5.468 5.475 5.475 0 0 0 5.47 5.47 5.475 5.475 0 0 0 5.468-5.47 5.475 5.475 0 0 0-5.468-5.468m0 12.5c-3.877 0-7.032-3.155-7.032-7.032 0-3.876 3.155-7.03 7.032-7.03 3.876 0 7.03 3.154 7.03 7.03 0 3.877-3.154 7.032-7.03 7.032M14.063 44.531c.237 0 .461.108.61.293l2.762 3.454 2.878-1.15v-4.16c0-.431.35-.78.78-.78h4.16l1.15-2.878-3.453-2.762a.78.78 0 0 1 0-1.22l3.453-2.763-1.15-2.878h-4.16a.782.782 0 0 1-.78-.78v-4.16l-2.878-1.15-2.762 3.453c-.296.371-.924.371-1.22 0l-2.763-3.453-2.877 1.15v4.16c0 .43-.35.78-.782.78H2.873l-1.151 2.878 3.453 2.762a.78.78 0 0 1 0 1.22L1.722 39.31l1.15 2.877h4.16c.43 0 .78.35.78.782v4.158l2.878 1.151 2.763-3.454a.782.782 0 0 1 .61-.293M17.188 50a.783.783 0 0 1-.61-.293l-2.515-3.144-2.515 3.144a.782.782 0 0 1-.901.237l-3.906-1.562a.783.783 0 0 1-.49-.726V43.75H2.343a.783.783 0 0 1-.726-.491L.056 39.353a.782.782 0 0 1 .238-.9l3.143-2.516-3.143-2.514a.782.782 0 0 1-.238-.901l1.562-3.906a.783.783 0 0 1 .726-.491H6.25v-3.906c0-.32.195-.607.49-.726l3.907-1.563a.783.783 0 0 1 .9.239l2.516 3.143 2.514-3.143a.783.783 0 0 1 .901-.239l3.907 1.563c.296.12.49.406.49.726v3.906h3.906c.32 0 .607.194.726.49l1.563 3.907a.782.782 0 0 1-.239.9l-3.143 2.515 3.143 2.515c.27.215.366.58.239.901l-1.563 3.906a.783.783 0 0 1-.726.49h-3.906v3.907c0 .32-.194.606-.49.726l-3.907 1.562a.786.786 0 0 1-.29.056" fill="#2E3C3E"></path></g></symbol><symbol id="icon-puzzle"><path d="M10 4H4v5c-2.21 0-4 1.79-4 4s1.79 4 4 4v5h6c0 2.21 1.79 4 4 4s4-1.79 4-4h6v-7h-2c-1.19 0-2-.81-2-2s.81-2 2-2h2V4h-6c0-2.21-1.79-4-4-4s-4 1.79-4 4zm6 0v2h6v3c-2.21 0-4 1.79-4 4s1.79 4 4 4v3h-6v2c0 1.19-.81 2-2 2s-2-.81-2-2v-2H6v-5H4c-1.19 0-2-.81-2-2s.81-2 2-2h2V6h6V4c0-1.19.81-2 2-2s2 .81 2 2z" fill="#616161"></path></symbol><symbol id="icon-reading-ebook"><path d="M9.09 10.91c0 3.52 1.71 6.64 4.32 8.64-2.93 1.28-5.35 3.44-7.1 6.13-1.55.53-2.71 2.04-2.45 3.81h-.05l.45 3.41C1.85 33.46 0 35.61 0 38.18c0 2.99 2.46 5.46 5.45 5.46h29.1c2.99 0 5.45-2.47 5.45-5.46 0-2.65-1.96-4.87-4.49-5.34l.46-3.29c0-.02-.01-.04 0-.06.24-1.67-.76-3.09-2.16-3.69-1.76-2.68-4.24-4.87-7.22-6.2 2.62-1.99 4.32-5.16 4.32-8.69C30.91 4.91 26 0 20 0S9.09 4.91 9.09 10.91zm23.3 18.18l-1.48 10.85V40H8.92c.02 0 0-.05 0-.06L7.44 29.09zm-5.12-18.18c0 4.04-3.23 7.27-7.27 7.27-4.04 0-7.27-3.23-7.27-7.27 0-4.04 3.23-7.27 7.27-7.27 4.04 0 7.27 3.23 7.27 7.27zm1.59 14.54H11.02c2.31-2.29 5.46-3.63 8.98-3.63 3.43 0 6.56 1.42 8.86 3.63zm-1.59 7.28c0 1 .82 1.82 1.82 1.82a1.82 1.82 0 1 0-1.82-1.82zm9.09 5.45c0 1.01-.81 1.82-1.81 1.82l.51-3.52c.74.23 1.3.88 1.3 1.7zM5.23 39.94c-.89-.12-1.59-.83-1.59-1.76 0-.75.48-1.37 1.13-1.65z" fill="#f5f5f5"></path></symbol><symbol id="icon-refresh"><path d="M0 7.63l1.84.75C3.3 4.64 6.84 2 11.13 2c3.24 0 6.13 1.59 7.93 4h-3.93v2h7V1h-2v3.09a11.939 11.939 0 0 0-9-4.09C6.01 0 1.74 3.16 0 7.63zm20.41 8l1.84.75C20.51 20.84 16.24 24 11.13 24c-3.61 0-6.82-1.61-9-4.09V23h-2v-7h7v2H3.16c1.81 2.39 4.69 4 7.97 4 4.28 0 7.82-2.64 9.28-6.37z" fill="#616161"></path></symbol><symbol viewBox="0 0 64 64" id="icon-simple"><g fill="none" fill-rule="evenodd"><path d="M40 20c0 11.046-8.954 20-20 20S0 31.046 0 20C0 8.949 8.954 0 20 0s20 8.949 20 20z" fill="#B0DAF1"></path><path fill="#192324" d="M13 23h2v-2h-2zM8 20h2v-2H8zM3 17h2v-2H3zM21 15h2v-2h-2zM18 10h2V8h-2zM15 5h2V3h-2zM31 7h2V5h-2zM31 12h2v-2h-2zM31 2h2V0h-2zM49 23h2v-2h-2zM54 20h2v-2h-2zM59 17h2v-2h-2zM41 15h2v-2h-2zM44 10h2V8h-2zM47 5h2V3h-2zM5 33h2v-2H5zM10 33h2v-2h-2zM0 33h2v-2H0zM13 43h2v-2h-2zM8 46h2v-2H8zM3 49h2v-2H3zM57 33h2v-2h-2zM52 33h2v-2h-2zM62 33h2v-2h-2zM49 43h2v-2h-2zM54 46h2v-2h-2zM59 49h2v-2h-2zM41 55h-2l.03-4.242L41 42.877v-8.876c0-.552-.448-1.001-1-1.001s-1 0-1 1h-2v-1.999c0-.552-.448-1.001-1-1.001s-1 0-1 1h-2v-1.999A1 1 0 0 0 31 30h-2a3.003 3.003 0 0 1 3-2.999c1.381 0 2.548.938 2.894 2.21a3.004 3.004 0 0 1 4 2A3.003 3.003 0 0 1 43 34.001l-.03 9.242L41 51.124V55z"></path><path fill="#192324" d="M33 37h2v-5h-2zM37 38h2v-4h-2zM27 38h-2V21.001c0-1.655 1.346-3 3-3s3 1.345 3 3V36h-2V21.001a1 1 0 0 0-2 0V38z"></path><path d="M28 52h-2v-1.666l-6-8v-7.638l.17-.253C20.338 34.193 21.872 32 24 32v2c-.779 0-1.616.857-2 1.332v6.335l6 8V52zM41 64h-2v-8H26v8h-2V54h17z" fill="#192324"></path><path fill="#192324" d="M28 60h2v-2h-2z"></path></g></symbol><symbol viewBox="0 0 66 66" id="icon-spin"><circle class="path" fill="none" cx="33" cy="33" r="30"></circle></symbol><symbol viewBox="0 0 40 43" id="icon-step-one"><g fill="none" fill-rule="evenodd"><circle fill="#B0DAF1" cx="20" cy="23" r="20"></circle><path fill="#212121" d="M35.094 34.242H32.28V3.492L23 6.938V4.313L34.625 0h.469z"></path></g></symbol><symbol viewBox="0 0 43 43" id="icon-step-three"><g fill="none" fill-rule="evenodd"><circle fill="#B0DAF1" cx="20" cy="23" r="20"></circle><path d="M28.148 16.008h2.86c1.312 0 2.465-.176 3.457-.528.992-.351 1.824-.828 2.496-1.43a5.809 5.809 0 0 0 1.512-2.109c.336-.804.504-1.66.504-2.566 0-1.031-.145-1.973-.434-2.824a5.915 5.915 0 0 0-1.313-2.203c-.585-.618-1.328-1.098-2.226-1.442-.899-.344-1.965-.515-3.2-.515-1.077 0-2.07.164-2.976.492a7.056 7.056 0 0 0-2.367 1.406 6.352 6.352 0 0 0-1.57 2.215c-.375.867-.563 1.84-.563 2.918h-2.812c0-1.375.261-2.64.785-3.797a9.072 9.072 0 0 1 2.156-2.988c.914-.836 2-1.485 3.258-1.946C28.973.231 30.335 0 31.805 0c1.5 0 2.867.21 4.101.633 1.235.422 2.285 1.035 3.153 1.84.867.804 1.539 1.793 2.015 2.965.477 1.171.715 2.515.715 4.03 0 .766-.125 1.528-.375 2.286a7.866 7.866 0 0 1-1.102 2.144 8.669 8.669 0 0 1-1.828 1.84 10.056 10.056 0 0 1-2.53 1.371c1.124.313 2.093.739 2.905 1.278a7.733 7.733 0 0 1 2.004 1.886 7.797 7.797 0 0 1 1.172 2.368 9.33 9.33 0 0 1 .387 2.695c0 1.547-.266 2.922-.797 4.125a8.803 8.803 0 0 1-2.203 3.059c-.938.835-2.047 1.468-3.328 1.898-1.282.43-2.672.645-4.172.645a13.52 13.52 0 0 1-4.043-.61 10.776 10.776 0 0 1-3.492-1.816c-1.024-.805-1.844-1.817-2.461-3.035-.617-1.22-.926-2.641-.926-4.266h2.813c0 1.078.199 2.07.597 2.977a6.772 6.772 0 0 0 1.676 2.332c.719.648 1.574 1.152 2.566 1.511.993.36 2.082.54 3.27.54 2.422 0 4.308-.622 5.66-1.864 1.352-1.242 2.027-3.043 2.027-5.402 0-1.235-.207-2.297-.62-3.188-.415-.89-1-1.62-1.759-2.191-.757-.57-1.664-.988-2.718-1.254-1.055-.266-2.223-.399-3.504-.399h-2.86v-2.39z" fill="#212121"></path></g></symbol><symbol viewBox="0 0 44 43" id="icon-step-two"><g fill="none" fill-rule="evenodd"><circle fill="#B0DAF1" cx="20" cy="23" r="20"></circle><path d="M43.125 34.594H21.75v-2.157l11.18-12.68a59.396 59.396 0 0 0 2.66-3.21c.726-.953 1.312-1.84 1.758-2.66.445-.82.765-1.594.96-2.32.196-.727.294-1.45.294-2.169 0-1.03-.153-1.972-.457-2.824a6.128 6.128 0 0 0-1.36-2.215c-.601-.625-1.347-1.109-2.238-1.453-.89-.344-1.914-.515-3.07-.515-1.188 0-2.254.199-3.2.597-.945.399-1.75.95-2.414 1.653a7.304 7.304 0 0 0-1.535 2.507c-.36.97-.539 2.024-.539 3.165H21c0-1.407.238-2.735.715-3.985a9.573 9.573 0 0 1 2.074-3.281c.906-.938 2.004-1.68 3.293-2.227C28.372.273 29.836 0 31.477 0c1.53 0 2.914.207 4.148.621 1.234.414 2.281 1.016 3.14 1.805.86.789 1.52 1.75 1.981 2.883.461 1.132.691 2.418.691 3.855 0 1.031-.187 2.07-.562 3.117a17.226 17.226 0 0 1-1.5 3.117 28.908 28.908 0 0 1-2.156 3.07 91.005 91.005 0 0 1-2.508 3l-9.516 10.759h17.93v2.367z" fill="#212121"></path></g></symbol><symbol viewBox="0 0 40 40" id="icon-tel"><g fill="none" fill-rule="evenodd"><circle fill="#3FBE60" cx="20" cy="20" r="20"></circle><path d="M8 8h24v24H8z"></path><path d="M14.62 18.79c1.44 2.83 3.76 5.14 6.59 6.59l2.2-2.2c.27-.27.67-.36 1.02-.24 1.12.37 2.33.57 3.57.57.55 0 1 .45 1 1V28c0 .55-.45 1-1 1-9.39 0-17-7.61-17-17 0-.55.45-1 1-1h3.5c.55 0 1 .45 1 1 0 1.25.2 2.45.57 3.57.11.35.03.74-.25 1.02l-2.2 2.2z" fill="#FFF"></path></g></symbol><symbol viewBox="0 0 64 64" id="icon-time"><g fill="none" fill-rule="evenodd"><path d="M42 43c0 11.597-9.401 21-21 21S0 54.597 0 43c0-11.599 9.401-21 21-21s21 9.401 21 21z" fill="#B0DAF1"></path><path d="M35 10C20.663 10 9 21.663 9 36s11.663 26 26 26 26-11.663 26-26-11.663-26-26-26m0 54C19.56 64 7 51.439 7 36S19.56 8 35 8c15.439 0 28 12.561 28 28S50.439 64 35 64" fill="#2E3C3E"></path><path d="M35 2c-1.654 0-3 1.346-3 3s1.346 3 3 3 3-1.346 3-3-1.346-3-3-3m0 8c-2.757 0-5-2.243-5-5s2.243-5 5-5 5 2.243 5 5-2.243 5-5 5M34 14h2v-2h-2zM21.707 50.707l-1.414-1.414 12-12 1.414 1.414zM15.295 17.709l-3.002-3.002 1.414-1.414 3.002 3.002zM11 37h2v-2h-2zM57 37h2v-2h-2zM34 60h2v-2h-2z" fill="#2E3C3E"></path><path d="M35 34c-1.103 0-2 .897-2 2 0 1.102.897 2 2 2 1.102 0 2-.898 2-2 0-1.103-.898-2-2-2m0 6c-2.206 0-4-1.794-4-4s1.794-4 4-4 4 1.794 4 4-1.794 4-4 4M8.414 14L10 15.586 14.586 11 13 9.414 8.414 14zM10 18a.997.997 0 0 1-.707-.293l-3-3a.999.999 0 0 1 0-1.414l6-6a.999.999 0 0 1 1.414 0l3 3a.999.999 0 0 1 0 1.414l-6 6A.997.997 0 0 1 10 18zM54.707 17.709l-1.414-1.414 3.002-3.002 1.414 1.414z" fill="#2E3C3E"></path><path d="M55.414 11L60 15.586 61.586 14 57 9.414 55.414 11zM60 18a.997.997 0 0 1-.707-.293l-6-6a.999.999 0 0 1 0-1.414l3-3a.999.999 0 0 1 1.414 0l6 6a.999.999 0 0 1 0 1.414l-3 3A.997.997 0 0 1 60 18zM35 56a19.87 19.87 0 0 1-14.14-5.855l1.414-1.415A17.881 17.881 0 0 0 35 54c9.925 0 18-8.075 18-18s-8.075-18-18-18v-2c11.028 0 20 8.972 20 20s-8.972 20-20 20" fill="#2E3C3E"></path><path d="M35 50a13.911 13.911 0 0 1-9.898-4.1l1.414-1.414A11.925 11.925 0 0 0 35 48c6.617 0 12-5.383 12-12s-5.383-12-12-12v-2c7.72 0 14 6.28 14 14s-6.28 14-14 14M15 37h2v-2h-2zM19 37h2v-2h-2zM23 37h2v-2h-2z" fill="#2E3C3E"></path><path fill="#2E3C3E" d="M27 37h2v-2h-2zM34 9h2V5h-2z"></path></g></symbol><symbol viewBox="0 0 64 60" id="icon-train"><g fill="none" fill-rule="evenodd"><path d="M64 21c0 11.597-9.401 21-21 21s-21-9.403-21-21C22 9.396 31.401 0 43 0s21 9.396 21 21z" fill="#B0DAF1"></path><path fill="#2E3C3E" d="M0 58h64v-2H0zM4 54H2V20c0-4.411 3.589-8 8-8s8 3.589 8 8v5h-2v-5c0-3.309-2.691-6-6-6s-6 2.691-6 6v34z"></path><path d="M36 53h-2c0-1.654-1.346-3-3-3H6v-2h25c2.757 0 5 2.243 5 5M8 37H6v-2h2v-2H6v-2h2c1.102 0 2 .897 2 2v2c0 1.102-.898 2-2 2M14 33v2h8.002L22 33h-8zm8 4h-8c-1.103 0-2-.898-2-2v-2c0-1.103.897-2 2-2h8c1.102 0 2 .897 2 2v2c0 1.102-.898 2-2 2zM2 60h2v-3H2zM6 60h2v-3H6zM10 60h2v-3h-2zM14 60h2v-3h-2zM18 60h2v-3h-2zM22 60h2v-3h-2zM26 60h2v-3h-2zM30 60h2v-3h-2zM34 60h2v-3h-2zM38 60h2v-3h-2zM42 60h2v-3h-2zM46 60h2v-3h-2zM50 60h2v-3h-2zM54 60h2v-3h-2zM58 60h2v-3h-2zM62 60h2v-3h-2z" fill="#2E3C3E"></path><path d="M56 54H6v-2h50c2.206 0 4-1.794 4-4v-2c0-2.477-11.636-17-25-17H6v-2h29c14.543 0 27 15.392 27 19v2c0 3.309-2.691 6-6 6" fill="#2E3C3E"></path><path d="M60 44H47c-7.411 0-13-5.589-13-13v-3h2v3c0 6.271 4.728 11 11 11h13v2zM56 48h5v-2h-5zM52 48h2v-2h-2zM30 33h2v-2h-2zM26 33h2v-2h-2zM6 43h18v-2H6z" fill="#2E3C3E"></path><path d="M64 35h-2v-1c0-4.411-3.589-8-8-8h-3.002l1.202-1.601c.524-.696.8-1.526.8-2.399 0-2.206-1.794-4-4-4a3.96 3.96 0 0 0-2.399.799l-.78.587-.605-.766C42.791 15.555 39.69 14 36 14c-6.065 0-11 4.935-11 11h-2c0-7.168 5.832-13 13-13 3.983 0 7.494 1.617 10.206 4.688a6.006 6.006 0 0 1 8.446 7.333C59.863 24.358 64 28.705 64 34v1z" fill="#2E3C3E"></path></g></symbol><symbol viewBox="0 0 60 64" id="icon-ui"><g fill="none" fill-rule="evenodd"><path d="M50 20c0 11.046-8.954 20-20 20s-20-8.954-20-20C10 8.949 18.954 0 30 0s20 8.949 20 20z" fill="#B0DAF1"></path><path d="M30 34c-1.654 0-3 1.346-3 3s1.346 3 3 3 3-1.346 3-3-1.346-3-3-3m0 8c-2.757 0-5-2.242-5-5 0-2.757 2.243-5 5-5s5 2.243 5 5c0 2.758-2.243 5-5 5M37 50h-5a1 1 0 0 1-.832-.445L30 47.803l-1.168 1.752A1 1 0 0 1 28 50h-5v-2h4.465l1.703-2.555c.371-.556 1.293-.556 1.664 0L32.535 48H37v2zM31 64H20c-2.206 0-4-1.794-4-4 0-.265.105-.52.293-.707l7-7 1.414 1.414-6.671 6.671c.177.923.99 1.622 1.964 1.622h11c.551 0 1-.449 1-1 0-.551-.449-1-1-1h-8v-2h8c1.654 0 3 1.346 3 3s-1.346 3-3 3M40 64h-4v-2h4c.973 0 1.787-.699 1.964-1.621l-6.671-6.672 1.414-1.414 6.993 6.994A1 1 0 0 1 44 60c0 2.206-1.794 4-4 4" fill="#192324"></path><path d="M20.014 50.24c.12.99.964 1.76 1.986 1.76h16c1.021 0 1.867-.77 1.986-1.76l-3.652-6.39L30 42.04l-6.334 1.81-3.652 6.39zM38 54H22c-2.206 0-4-1.795-4-4 0-.174.045-.345.132-.496l4-7a1 1 0 0 1 .593-.465l7-2a.99.99 0 0 1 .55 0l7 2a1 1 0 0 1 .593.465l4 7c.086.151.132.322.132.496 0 2.205-1.795 4-4 4z" fill="#192324"></path><g><mask id="ui-b" fill="#fff"><use xlink:href="#ui-a"></use></mask><path d="M44.483 56.279l-.967-1.751A28.032 28.032 0 0 0 58 30C58 14.56 45.44 2 30 2S2 14.56 2 30a28.03 28.03 0 0 0 14.483 24.527l-.967 1.75A30.032 30.032 0 0 1 0 30.002C0 13.459 13.458 0 30 0s30 13.458 30 30a30.033 30.033 0 0 1-15.517 26.278" fill="#192324" mask="url(#ui-b)"></path></g><path fill="#192324" d="M29 30h2v-2h-2zM29 26h2v-2h-2zM29 22h2v-2h-2z"></path></g></symbol><symbol viewBox="0 0 50 47" id="icon-users"><g fill="none" fill-rule="evenodd"><path d="M33.594 30.469c0 9.06-7.345 16.406-16.407 16.406C8.127 46.875.782 39.53.782 30.469c0-9.062 7.345-16.407 16.407-16.407 9.061 0 16.406 7.345 16.406 16.407z" fill="#BFE0F3"></path><path d="M41.406 11.719c-2.365 0-3.125.854-3.125 3.515 0 2.083 1.096 4.297 3.125 4.297 2.03 0 3.125-2.214 3.125-4.297 0-2.66-.76-3.515-3.125-3.515m0 9.375c-2.672 0-4.687-2.52-4.687-5.86 0-2.364.533-5.078 4.687-5.078 4.155 0 4.688 2.714 4.688 5.078 0 3.34-2.016 5.86-4.688 5.86" fill="#2E3C3E"></path><path fill="#2E3C3E" d="M35.558 22.545l-.804-1.34 3.907-2.344.804 1.34zM47.656 27.344H42.97V25.78h4.687c.232 0 .782-.606.782-1.562v-1.11l-5.076-2.9.776-1.356L50 22.203v2.016c0 1.694-1.073 3.125-2.344 3.125M8.594 11.719c-2.366 0-3.125.854-3.125 3.515 0 2.083 1.095 4.297 3.125 4.297 2.03 0 3.125-2.214 3.125-4.297 0-2.66-.76-3.515-3.125-3.515m0 9.375c-2.672 0-4.688-2.52-4.688-5.86 0-2.364.533-5.078 4.688-5.078 4.154 0 4.687 2.714 4.687 5.078 0 3.34-2.015 5.86-4.687 5.86"></path><path fill="#2E3C3E" d="M14.442 22.545L10.535 20.2l.804-1.34 3.907 2.344zM7.031 27.344H2.344C1.074 27.344 0 25.913 0 24.219v-2.016l5.862-3.35.776 1.356-5.075 2.9v1.11c0 .956.549 1.562.78 1.562h4.688v1.563zM8.594 40.625H7.03v-7.031c0-6.258 3.474-7.578 7.15-8.975 1.362-.517 2.769-1.053 4.182-1.86l.774 1.357c-1.517.868-3.05 1.45-4.4 1.963-3.7 1.406-6.143 2.334-6.143 7.515v7.031zM42.969 40.625h-1.563v-7.031c0-5.18-2.444-6.109-6.143-7.515-1.35-.513-2.883-1.095-4.4-1.963l.774-1.357c1.413.807 2.82 1.343 4.182 1.86 3.676 1.397 7.15 2.717 7.15 8.975v7.031z"></path><path d="M25 24.126l2.971 1.486 2.274-2.274-.928-1.39-4.317.719-4.317-.72-.928 1.391 2.274 2.274L25 24.126zm3.279 3.387L25 25.873l-3.279 1.64-3.976-3.976 2.197-3.297 5.058.843 5.058-.843 2.197 3.297-3.976 3.976z" fill="#2E3C3E"></path><path fill="#2E3C3E" d="M28.125 21.094h1.563v-3.125h-1.563zM20.313 21.094h1.562v-3.125h-1.563zM24.219 32.813h1.562V31.25H24.22zM24.219 29.688h1.562v-1.563H24.22z"></path><path d="M21.5 17.297c1.367.657 3.454.671 3.5.671.046 0 2.131-.014 3.5-.67.244-.195 2.078-1.8 2.75-6.416v-3.07c0-4.322-1.927-6.25-6.25-6.25s-6.25 1.928-6.25 6.25v3.07c.673 4.622 2.5 6.218 2.75 6.415m3.5 2.234c-.103 0-2.548-.01-4.255-.863l-.085-.05c-.107-.07-2.644-1.822-3.465-7.57l-.008-.11V7.811C17.188 2.63 19.817 0 25 0c5.184 0 7.813 2.629 7.813 7.812l-.008 3.236c-.821 5.748-3.358 7.5-3.465 7.57l-.085.05c-1.707.854-4.152.863-4.255.863" fill="#2E3C3E"></path><path fill="#2E3C3E" d="M28.942 10.231l-7.813-3.125-2.81 1.405-.7-1.397 3.44-1.72L28.87 8.52l2.81-1.405.7 1.397zM13.281 40.625h1.563v-6.25H13.28zM35.156 40.625h1.563v-6.25h-1.563z"></path></g></symbol></svg>